<svg version="1.1" id="Layer_1" xmlns="http://www.w3.org/2000/svg" xmlns:xlink="http://www.w3.org/1999/xlink" x="0px" y="0px"
	 width="100%" viewBox="0 0 512 512" enable-background="new 0 0 512 512" xml:space="preserve">
<path fill="transparent" opacity="1.000000" stroke="none" 
	d="
M286.000000,513.000000 
	C190.689804,513.000000 95.879608,513.000000 1.034703,513.000000 
	C1.034703,342.398102 1.034703,171.796219 1.034703,1.097158 
	C171.560211,1.097158 342.120514,1.097158 512.840393,1.097158 
	C512.840393,171.666550 512.840393,342.333252 512.840393,513.000000 
	C437.462860,513.000000 361.981415,513.000000 286.000000,513.000000 
M505.023315,290.189423 
	C505.352112,289.109314 505.938660,288.036682 505.970123,286.947998 
	C506.317139,274.942993 506.577850,262.935547 506.976074,250.009262 
	C506.652954,244.245865 506.280487,238.484726 506.016083,232.718643 
	C505.232880,215.639481 501.318115,199.138397 496.371704,182.899658 
	C485.361633,146.754166 466.549896,114.938622 441.342926,86.969017 
	C428.205048,72.391243 413.116180,59.872841 396.768494,48.970596 
	C380.311279,37.995296 362.788605,29.052517 344.278961,22.051395 
	C322.016022,13.630613 298.933533,8.308446 275.256409,7.279437 
	C257.797028,6.520652 240.147568,7.536303 222.731186,9.260358 
	C210.193237,10.501495 197.780884,13.753071 185.524612,16.926987 
	C166.373291,21.886477 148.645340,30.395788 131.475815,40.132206 
	C115.046249,49.449017 99.952255,60.626404 86.173721,73.447769 
	C70.361740,88.161324 56.882412,104.845352 45.223171,123.123573 
	C23.111822,157.787613 10.379400,195.689285 7.363034,236.413971 
	C5.940898,255.614578 7.112720,275.244080 9.358310,294.415833 
	C11.815005,315.389893 18.000614,335.663452 26.500177,355.225006 
	C38.069759,381.852051 53.449303,405.909729 72.911720,427.335175 
	C85.914421,441.649384 100.627647,454.203674 116.727997,464.835175 
	C139.507904,479.877441 163.929962,491.759155 190.472855,498.696228 
	C211.151535,504.100708 232.124222,507.654572 253.637421,507.030914 
	C260.462769,506.833038 267.330017,507.410553 274.121643,506.892883 
	C282.084442,506.285980 289.985687,504.871582 298.753662,503.960907 
	C316.888000,501.224701 334.414856,496.186584 351.350189,489.279205 
	C379.204620,477.918427 404.316345,461.988098 426.597321,441.828918 
	C441.228149,428.591400 453.991272,413.530457 464.872498,397.082275 
	C480.613586,373.287811 492.916351,347.799469 499.521393,319.885101 
	C501.771973,310.373688 503.091675,300.641998 505.023315,290.189423 
z"/>
<path fill="#1877F2" opacity="1.000000" stroke="#1877F2" stroke-width="10"
	d="
M297.913635,503.807434 
	C289.985687,504.871582 282.084442,506.285980 274.121643,506.892883 
	C267.330017,507.410553 260.462769,506.833038 253.637421,507.030914 
	C232.124222,507.654572 211.151535,504.100708 190.472855,498.696228 
	C163.929962,491.759155 139.507904,479.877441 116.727997,464.835175 
	C100.627647,454.203674 85.914421,441.649384 72.911720,427.335175 
	C53.449303,405.909729 38.069759,381.852051 26.500177,355.225006 
	C18.000614,335.663452 11.815005,315.389893 9.358310,294.415833 
	C7.112720,275.244080 5.940898,255.614578 7.363034,236.413971 
	C10.379400,195.689285 23.111822,157.787613 45.223171,123.123573 
	C56.882412,104.845352 70.361740,88.161324 86.173721,73.447769 
	C99.952255,60.626404 115.046249,49.449017 131.475815,40.132206 
	C148.645340,30.395788 166.373291,21.886477 185.524612,16.926987 
	C197.780884,13.753071 210.193237,10.501495 222.731186,9.260358 
	C240.147568,7.536303 257.797028,6.520652 275.256409,7.279437 
	C298.933533,8.308446 322.016022,13.630613 344.278961,22.051395 
	C362.788605,29.052517 380.311279,37.995296 396.768494,48.970596 
	C413.116180,59.872841 428.205048,72.391243 441.342926,86.969017 
	C466.549896,114.938622 485.361633,146.754166 496.371704,182.899658 
	C501.318115,199.138397 505.232880,215.639481 506.016083,232.718643 
	C506.280487,238.484726 506.652954,244.245865 506.664978,250.367676 
	C505.693695,250.423721 505.033539,250.121338 504.213257,249.516190 
	C497.503815,242.742432 490.954468,236.271423 484.241272,229.498779 
	C479.376923,224.476166 474.676453,219.755203 469.809601,214.746490 
	C463.421295,208.316437 457.199310,202.174149 450.811218,195.744049 
	C436.118439,180.858078 421.601990,166.249710 407.048584,151.678238 
	C405.658966,150.286896 404.038544,149.126038 402.352264,147.547287 
	C396.717957,141.896042 391.197235,136.614899 385.807037,131.203751 
	C372.190796,117.534576 358.633301,103.806923 344.657898,89.958374 
	C325.806702,89.166512 307.293365,87.287498 288.905029,88.131256 
	C252.155167,89.817535 225.404495,115.598099 222.139267,152.174622 
	C220.544083,170.043564 221.269089,188.119843 220.952026,206.102417 
	C220.921249,207.848007 220.947922,209.594604 220.947922,211.813263 
	C203.256638,211.813263 186.340652,211.813263 169.260498,211.813263 
	C169.260498,232.251114 169.260498,252.205399 169.427155,272.415100 
	C186.647232,289.704529 203.700684,306.738495 220.833908,324.249573 
	C220.924698,356.877777 220.922272,389.028931 220.979965,421.179962 
	C220.983429,423.117004 221.465973,425.053223 221.921936,427.279938 
	C228.346176,433.733948 234.574112,439.897797 240.983841,446.347321 
	C244.714859,450.110199 248.264084,453.587433 251.994156,457.350220 
	C259.065399,464.456360 265.955811,471.276886 273.027527,478.379150 
	C280.761292,486.137695 288.313782,493.614563 296.011536,501.335999 
	C296.742371,502.322845 297.328003,503.065155 297.913635,503.807434 
z"/>
<path fill="#195EB7" opacity="1.000000" stroke="#195EB7" stroke-width="10"
	d="
M298.333649,503.884155 
	C297.328003,503.065155 296.742371,502.322845 296.327271,501.175018 
	C298.326141,499.352051 300.353577,498.128937 301.954193,496.489197 
	C369.188934,427.608490 439.847778,362.108093 504.836731,291.010956 
	C503.091675,300.641998 501.771973,310.373688 499.521393,319.885101 
	C492.916351,347.799469 480.613586,373.287811 464.872498,397.082275 
	C453.991272,413.530457 441.228149,428.591400 426.597321,441.828918 
	C404.316345,461.988098 379.204620,477.918427 351.350189,489.279205 
	C334.414856,496.186584 316.888000,501.224701 298.333649,503.884155 
z"/>
<path fill="#1A5BAE" opacity="1.000000" stroke="#1A5BAE" stroke-width="10"
	d="
M504.929993,290.600189 
	C439.847778,362.108093 369.188934,427.608490 301.954193,496.489197 
	C300.353577,498.128937 298.326141,499.352051 296.182007,500.930481 
	C288.313782,493.614563 280.761292,486.137695 273.358582,478.222137 
	C276.047852,475.979950 278.907166,474.496735 281.080658,472.326630 
	C353.681732,399.837402 426.214935,327.280182 498.777069,254.751862 
	C500.532379,252.997391 502.503113,251.458435 504.373383,249.818939 
	C505.033539,250.121338 505.693695,250.423721 506.607880,250.827423 
	C506.577850,262.935547 506.317139,274.942993 505.970123,286.947998 
	C505.938660,288.036682 505.352112,289.109314 504.929993,290.600189 
z"/>
<path fill="#FEFFFF" opacity="1.000000" stroke="#FEFFFF" stroke-width="1"
	d="
M169.260498,272.159668 
	C169.260498,252.205399 169.260498,232.251114 169.260498,211.813263 
	C186.340652,211.813263 203.256638,211.813263 220.947922,211.813263 
	C220.947922,209.594604 220.921249,207.848007 220.952026,206.102417 
	C221.269089,188.119843 220.544083,170.043564 222.139267,152.174622 
	C225.404495,115.598099 252.155167,89.817535 288.905029,88.131256 
	C307.293365,87.287498 325.806702,89.166512 344.639526,90.416138 
	C345.015594,108.440735 345.015594,125.863251 345.015594,143.749451 
	C342.677063,143.749451 340.885773,143.738342 339.094666,143.751266 
	C328.443970,143.828186 317.779907,143.605179 307.145966,144.069427 
	C294.176849,144.635620 285.258453,150.972778 284.480225,162.288284 
	C283.367554,178.466431 284.196869,194.778122 284.196869,211.331848 
	C302.193542,211.331848 320.601715,211.331848 339.429962,211.469009 
	C343.794952,211.156433 343.040100,213.753281 342.742126,216.061310 
	C341.442719,226.126221 340.165680,236.194061 338.842773,246.255875 
	C337.720764,254.789520 336.547089,263.316376 335.343567,272.236877 
	C317.867523,272.236877 300.788940,272.236877 283.263977,272.236877 
	C283.263977,279.481812 283.243835,286.274231 283.267639,293.066559 
	C283.348114,316.039520 283.444183,339.012451 283.422455,362.442963 
	C283.385162,374.928772 283.459747,386.957001 283.422913,399.442902 
	C283.311523,408.662872 283.311523,417.425201 283.311523,427.001099 
	C275.841156,427.001099 268.920563,427.001099 261.540894,426.899628 
	C247.963043,426.862030 234.844315,426.925934 221.725616,426.989807 
	C221.465973,425.053223 220.983429,423.117004 220.979965,421.179962 
	C220.922272,389.028931 220.924698,356.877777 220.910217,323.807373 
	C220.906738,306.008484 220.906738,289.128845 220.906738,272.159668 
	C203.181274,272.159668 186.220886,272.159668 169.260498,272.159668 
z"/>
<path fill="#1B5197" opacity="1.000000" stroke="#1B5197" stroke-width="10"
	d="
M283.534302,361.985413 
	C283.444183,339.012451 283.348114,316.039520 283.267639,293.066559 
	C283.243835,286.274231 283.263977,279.481812 283.263977,272.236877 
	C300.788940,272.236877 317.867523,272.236877 335.343567,272.236877 
	C336.547089,263.316376 337.720764,254.789520 338.842773,246.255875 
	C340.165680,236.194061 341.442719,226.126221 342.742126,216.061310 
	C343.040100,213.753281 343.794952,211.156433 339.462646,211.152283 
	C339.994446,209.354950 340.730774,207.829376 341.860199,206.695251 
	C360.396637,188.082108 378.963287,169.498856 397.597992,150.984192 
	C398.945496,149.645355 400.869354,148.886612 402.525269,147.858185 
	C404.038544,149.126038 405.658966,150.286896 407.048584,151.678238 
	C421.601990,166.249710 436.118439,180.858078 450.639282,196.024261 
	C450.208527,197.104553 449.821777,197.654984 449.353241,198.123642 
	C395.624176,251.867752 341.895538,305.612335 288.112976,359.302887 
	C286.901489,360.512299 285.074310,361.105011 283.534302,361.985413 
z"/>
<path fill="#1B58A7" opacity="1.000000" stroke="#1B58A7" stroke-width="10"
	d="
M504.213257,249.516190 
	C502.503113,251.458435 500.532379,252.997391 498.777069,254.751862 
	C426.214935,327.280182 353.681732,399.837402 281.080658,472.326630 
	C278.907166,474.496735 276.047852,475.979950 273.177277,477.940430 
	C265.955811,471.276886 259.065399,464.456360 252.393585,457.328644 
	C255.574707,455.347626 259.042297,454.197449 261.413544,451.910522 
	C272.528290,441.190948 283.341431,430.158661 294.262177,419.237946 
	C355.770081,357.730164 417.275024,296.219421 478.800537,234.729263 
	C480.556641,232.974167 482.531982,231.438431 484.405090,229.800415 
	C490.954468,236.271423 497.503815,242.742432 504.213257,249.516190 
z"/>
<path fill="#1B4F91" opacity="1.000000" stroke="#1B4F91" stroke-width="10"
	d="
M402.352264,147.547287 
	C400.869354,148.886612 398.945496,149.645355 397.597992,150.984192 
	C378.963287,169.498856 360.396637,188.082108 341.860199,206.695251 
	C340.730774,207.829376 339.994446,209.354950 339.042542,211.015106 
	C320.601715,211.331848 302.193542,211.331848 284.196869,211.331848 
	C284.196869,194.778122 283.367554,178.466431 284.480225,162.288284 
	C285.258453,150.972778 294.176849,144.635620 307.145966,144.069427 
	C317.779907,143.605179 328.443970,143.828186 339.094666,143.751266 
	C340.885773,143.738342 342.677063,143.749451 345.015594,143.749451 
	C345.015594,125.863251 345.015594,108.440735 345.033936,90.560455 
	C358.633301,103.806923 372.190796,117.534576 385.807037,131.203751 
	C391.197235,136.614899 396.717957,141.896042 402.352264,147.547287 
z"/>
<path fill="#1A539D" opacity="1.000000" stroke="#1A539D" stroke-width="10"
	d="
M283.422455,362.442993 
	C285.074310,361.105011 286.901489,360.512299 288.112976,359.302887 
	C341.895538,305.612335 395.624176,251.867752 449.353241,198.123642 
	C449.821777,197.654984 450.208527,197.104553 450.805389,196.312073 
	C457.199310,202.174149 463.421295,208.316437 469.637909,215.026474 
	C469.207794,216.105957 468.821075,216.655716 468.352844,217.124023 
	C408.893555,276.597778 349.440247,336.077576 289.900970,395.471161 
	C288.251587,397.116486 285.677307,397.834686 283.534332,398.985229 
	C283.459747,386.957001 283.385162,374.928772 283.422455,362.442993 
z"/>
<path fill="#1A56A2" opacity="1.000000" stroke="#1A56A2" stroke-width="10"
	d="
M283.422913,399.442902 
	C285.677307,397.834686 288.251587,397.116486 289.900970,395.471161 
	C349.440247,336.077576 408.893555,276.597778 468.352844,217.124023 
	C468.821075,216.655716 469.207794,216.105957 469.804260,215.314240 
	C474.676453,219.755203 479.376923,224.476166 484.241241,229.498779 
	C482.531982,231.438431 480.556641,232.974167 478.800537,234.729263 
	C417.275024,296.219421 355.770081,357.730164 294.262177,419.237946 
	C283.341431,430.158661 272.528290,441.190948 261.413544,451.910522 
	C259.042297,454.197449 255.574707,455.347626 252.212753,457.043091 
	C248.264084,453.587433 244.714859,450.110199 241.380600,446.326965 
	C250.752518,442.207947 256.246826,434.465668 262.000000,427.001099 
	C268.920563,427.001099 275.841156,427.001099 283.311523,427.001099 
	C283.311523,417.425201 283.311523,408.662872 283.422913,399.442902 
z"/>
<path fill="#1C5093" opacity="1.000000" stroke="none"
	d="
M169.427155,272.415100 
	C186.220886,272.159668 203.181274,272.159668 220.906738,272.159668 
	C220.906738,289.128845 220.906738,306.008484 220.830429,323.330322 
	C203.700684,306.738495 186.647232,289.704529 169.427155,272.415100 
z"/>
<path fill="#1A55A0" opacity="1.000000" stroke="#1A55A0" stroke-width="10" 
	d="
M261.540894,426.899628 
	C256.246826,434.465668 250.752518,442.207947 241.198807,446.041321 
	C234.574112,439.897797 228.346176,433.733948 221.921921,427.279968 
	C234.844315,426.925934 247.963043,426.862030 261.540894,426.899628 
z"/>
</svg>