<svg version="1.1" id="Layer_1" xmlns="http://www.w3.org/2000/svg" xmlns:xlink="http://www.w3.org/1999/xlink" x="0px" y="0px"
	 width="100%" viewBox="0 0 512 512" enable-background="new 0 0 512 512" xml:space="preserve">
<path fill="#19D219" opacity="1.000000" stroke="none" 
	d="
M1.382781,369.057373 
	C1.000000,281.645782 1.000000,194.291550 1.000000,106.468658 
	C3.024626,99.382568 3.391714,92.433861 5.851223,85.834686 
	C21.596979,43.586891 51.040028,16.183788 94.166840,3.323695 
	C97.851097,2.225076 101.745476,2.545884 105.711418,1.241260 
	C202.020889,1.000000 298.041779,1.000000 394.531342,1.000000 
	C407.210968,1.891431 418.092712,6.132042 428.184509,13.114956 
	C463.972107,37.877785 469.256439,92.279106 438.853729,123.390701 
	C429.448212,133.015533 418.751099,140.267349 405.254181,143.752991 
	C402.535522,143.545731 400.933838,142.056412 399.390594,140.536362 
	C370.031281,111.618408 334.418121,95.132935 294.175354,88.333382 
	C246.459106,80.271088 200.619934,86.489197 157.342346,108.495506 
	C127.262466,123.790871 102.904747,145.443771 86.663315,175.460297 
	C81.172157,185.608749 77.178490,196.360184 74.707367,207.657776 
	C74.104530,210.413849 73.778839,213.253464 72.280220,216.159088 
	C42.616817,247.804062 21.032221,283.581573 10.390336,325.529083 
	C7.281241,337.784302 5.000161,350.199249 3.901099,362.814087 
	C3.704474,365.070923 4.121897,367.573975 1.382781,369.057373 
z"/>
<path fill="#00B900" opacity="1.000000" stroke="none" 
	d="
M0.999999,369.468658 
	C2.008617,361.498627 2.787602,353.957916 4.064130,346.502411 
	C10.946045,306.308899 26.306259,269.817139 51.693798,237.688065 
	C57.565842,230.256714 63.473923,222.893173 70.626968,216.184113 
	C72.568428,217.107483 72.572594,218.813156 72.424576,220.477127 
	C67.845108,271.954834 89.336586,311.564026 128.743301,342.593140 
	C155.618332,363.754730 186.692505,375.550903 220.280640,381.022919 
	C225.890320,381.936798 231.414795,383.023987 236.495148,385.731232 
	C241.803680,388.560089 244.496780,392.926849 244.877899,398.956116 
	C245.420685,407.543427 243.629272,415.847565 242.208374,424.205597 
	C240.217545,435.916077 243.060699,438.264435 254.319931,434.374908 
	C257.921875,433.130615 261.043243,430.622986 265.388641,430.416809 
	C267.812592,431.383423 268.376129,433.384033 269.211273,435.170715 
	C287.517944,474.335541 317.557190,499.007599 359.820465,508.651611 
	C362.046326,509.159546 365.100616,508.864899 365.218384,512.697876 
	C278.979095,513.000000 192.958206,513.000000 106.468658,513.000000 
	C102.540329,511.050049 98.547981,511.942596 94.896172,510.883392 
	C73.955894,504.809357 55.347721,494.851074 39.410717,479.674896 
	C22.477854,463.550293 10.834059,444.447083 3.896265,422.232208 
	C2.487849,417.722473 2.739985,413.042236 1.241226,408.288391 
	C1.000000,395.312439 1.000000,382.624878 0.999999,369.468658 
z"/>
<path fill="#009B00" opacity="1.000000" stroke="none" 
	d="
M365.468658,513.000000 
	C364.593109,510.649353 362.592865,511.118896 361.067932,510.818268 
	C342.214081,507.101593 324.891327,499.723022 309.527069,488.228333 
	C289.870483,473.522400 274.774719,455.132019 266.051575,431.514923 
	C266.311768,428.391205 268.655487,427.487518 270.611786,426.339081 
	C308.205109,404.269928 344.106262,379.731598 376.677490,350.726562 
	C397.741730,331.968597 417.244781,311.635193 429.362305,285.437988 
	C434.878387,273.512482 438.382294,261.107239 440.076324,248.133881 
	C440.291595,246.485138 440.327728,244.803162 441.241364,242.935318 
	C443.851440,240.245972 447.027100,239.063477 449.825592,237.289154 
	C480.820496,217.637436 500.843842,190.250259 508.659912,154.179337 
	C509.142395,151.952667 508.864502,148.896698 512.699646,148.781708 
	C513.000000,235.020889 513.000000,321.041779 513.000000,407.531342 
	C511.048492,414.640076 510.588043,421.594391 508.110840,428.166229 
	C492.249725,470.245331 462.912659,497.781342 419.825378,510.678345 
	C416.144501,511.780090 412.251465,511.453735 408.288330,512.758789 
	C393.979095,513.000000 379.958221,513.000000 365.468658,513.000000 
z"/>
<path fill="#00B900" opacity="1.000000" stroke="none" 
	d="
M513.000000,148.531342 
	C510.643799,149.407608 511.123993,151.414413 510.815552,152.939621 
	C507.038635,171.616104 499.913574,188.881912 488.458618,204.148804 
	C476.250488,220.419434 461.657257,234.035294 442.722595,242.947205 
	C440.381531,242.115402 440.873077,240.315201 440.867737,238.707581 
	C440.836639,229.375122 440.094452,220.111710 438.321350,210.936340 
	C434.085663,189.017975 424.249817,169.800034 410.312134,152.532043 
	C408.146851,149.849396 405.297577,147.571381 404.828064,143.474197 
	C410.486755,139.424347 417.090424,138.005402 422.709137,134.308655 
	C441.371582,122.029999 452.750244,105.354187 456.150757,83.044128 
	C461.741730,46.362858 437.462921,11.419301 400.449493,2.378862 
	C398.849670,1.988106 397.203247,1.787984 395.289276,1.249529 
	C399.024536,1.000000 403.049103,1.000000 407.536804,1.000000 
	C414.289062,2.987010 420.935608,3.249682 427.214844,5.561999 
	C470.393463,21.462336 498.212250,51.516781 510.955872,95.648506 
	C511.972839,99.170410 511.546722,102.896553 512.758789,106.711166 
	C513.000000,120.687561 513.000000,134.375122 513.000000,148.531342 
z"/>
<path fill="transparent" opacity="1.000000" stroke="none" 
	d="
M513.000000,106.531342 
	C511.675598,107.380135 511.245514,106.635300 511.060303,105.504692 
	C506.030945,74.807137 490.500366,49.933563 467.282776,30.047318 
	C450.792999,15.923520 431.452240,6.679025 409.779449,2.986790 
	C408.926239,2.841436 408.157715,2.688619 407.894165,1.398317 
	C441.763031,1.000000 475.526306,1.053642 509.288757,0.912796 
	C512.485840,0.899459 513.085815,1.731609 513.075073,4.773816 
	C512.955872,38.536438 513.000000,72.299637 513.000000,106.531342 
z"/>
<path fill="transparent" opacity="1.000000" stroke="none" 
	d="
M1.000000,408.468658 
	C4.714865,408.819489 3.265084,412.317383 3.745821,414.331818 
	C8.150582,432.789093 15.887580,449.559418 27.833170,464.328400 
	C39.866104,479.205383 53.939468,491.681946 71.325180,499.976868 
	C82.134300,505.134003 93.275459,509.496063 105.256920,511.234283 
	C105.634491,511.289032 105.935440,511.871887 106.136047,512.604248 
	C72.237289,513.000000 38.474358,512.946533 4.712229,513.087036 
	C1.517742,513.100281 0.913762,512.271973 0.924692,509.227234 
	C1.044703,475.797607 1.000000,442.367371 1.000000,408.468658 
z"/>
<path fill="transparent" opacity="1.000000" stroke="none" 
	d="
M408.468658,513.000000 
	C407.635712,511.243652 408.867981,511.237579 410.057770,511.017181 
	C439.841003,505.499939 464.136658,490.362152 483.639282,467.673553 
	C497.933685,451.044037 507.069672,431.612488 511.025665,409.906372 
	C511.179565,409.062012 511.297699,408.275543 512.602417,407.956604 
	C513.000000,441.762695 512.946472,475.525635 513.086975,509.287750 
	C513.100220,512.482178 512.272034,513.086243 509.227264,513.075317 
	C475.797607,512.955322 442.367401,513.000000 408.468658,513.000000 
z"/>
<path fill="transparent" opacity="1.000000" stroke="none" 
	d="
M105.531342,1.000000 
	C106.492439,3.657017 104.387787,2.763297 103.182228,3.029296 
	C80.360649,8.064743 60.036640,17.781322 42.634090,33.739544 
	C29.986723,45.337242 19.993877,58.716572 12.612487,74.057411 
	C8.067231,83.503860 4.864586,93.485619 3.032196,103.852226 
	C2.856908,104.843910 2.901796,105.855949 1.391734,106.166969 
	C1.000000,72.237289 1.053483,38.474354 0.912988,4.712223 
	C0.899694,1.517741 1.728041,0.913762 4.772755,0.924692 
	C38.202389,1.044703 71.632614,1.000000 105.531342,1.000000 
z"/>
<path fill="#FEFFFE" opacity="1.000000" stroke="none" 
	d="
M404.627838,142.970306 
	C418.061523,158.031357 428.971924,174.295517 435.504608,193.266403 
	C440.974548,209.151031 443.337128,225.427948 442.327423,242.609253 
	C439.460266,281.873199 419.345001,311.852509 392.593109,338.115997 
	C355.029572,374.993774 311.807678,404.283844 266.246704,430.923279 
	C260.935120,433.242554 256.265594,436.207458 250.937973,437.648590 
	C242.107040,440.037384 238.636230,436.968597 239.729370,427.901428 
	C240.744339,419.482605 243.153061,411.252808 243.192108,402.707336 
	C243.243362,391.490387 240.703476,387.651764 229.803360,384.946869 
	C216.589752,381.667786 202.994019,380.092194 189.934387,375.996582 
	C160.258652,366.690033 133.552994,352.269318 111.541092,330.053345 
	C80.471512,298.695831 65.521355,261.399841 70.955627,216.441895 
	C74.515831,196.309921 81.556503,178.002563 92.985855,161.454254 
	C111.568733,134.548523 136.285324,114.833733 166.121506,102.242958 
	C233.134705,73.963615 299.217651,76.303627 363.570465,111.009026 
	C378.894897,119.273476 392.399445,130.101562 404.627838,142.970306 
z"/>
<path fill="#01B901" opacity="1.000000" stroke="none" 
	d="
M301.321594,288.688110 
	C295.276428,290.024292 291.605072,287.900208 288.296600,282.870605 
	C277.442322,266.369659 266.038940,250.229843 253.999924,232.719833 
	C253.999924,239.324982 253.999908,244.546906 253.999908,249.768829 
	C253.999878,260.766876 253.880966,271.766846 254.058075,282.762024 
	C254.129410,287.190826 252.607162,289.370392 247.981476,289.029572 
	C245.661163,288.858612 243.317825,289.002747 240.984909,288.999420 
	C234.140732,288.989685 233.516434,288.405121 233.511520,281.688080 
	C233.497055,261.858276 233.506195,242.028442 233.506332,222.198624 
	C233.506378,214.533310 233.617783,206.865799 233.464569,199.203552 
	C233.377197,194.833008 235.012970,193.325577 239.559097,192.824158 
	C248.700745,191.815872 254.410431,194.910568 259.331970,202.959015 
	C268.089020,217.279846 278.176544,230.787567 287.728424,244.621002 
	C288.529602,245.781265 289.019836,247.259323 290.941101,248.012314 
	C290.941101,232.162735 290.939606,216.564209 290.941742,200.965698 
	C290.942780,193.104691 291.042114,192.993729 298.673157,193.002670 
	C312.438354,193.018784 311.316467,191.595612 311.311096,205.578094 
	C311.301605,230.406891 311.288818,255.235687 311.164429,280.519653 
	C308.957245,284.798828 305.729706,287.211121 301.321594,288.688110 
z"/>
<path fill="#02B902" opacity="1.000000" stroke="none" 
	d="
M324.605835,272.250610 
	C324.248047,247.383087 324.173096,222.757889 324.122559,198.132645 
	C324.115570,194.731995 325.664459,192.954834 329.302429,192.969574 
	C345.944855,193.036987 362.587708,193.014038 379.230347,192.987122 
	C382.550262,192.981750 384.120972,194.525055 384.084442,197.842499 
	C384.040497,201.836258 383.982086,205.833633 384.101807,209.824310 
	C384.218811,213.725342 382.334167,215.110504 378.610016,215.072296 
	C368.625458,214.969818 358.637146,215.149811 348.654755,214.969940 
	C345.681824,214.916367 344.692322,215.578522 344.677002,218.766388 
	C344.623291,229.962341 344.481384,229.961624 355.666290,229.961670 
	C363.155518,229.961700 370.647614,230.086533 378.132812,229.913147 
	C382.333344,229.815842 384.346588,231.334641 384.115814,235.717484 
	C383.923584,239.368759 383.981812,243.041275 384.101532,246.698730 
	C384.226929,250.529572 382.498322,252.078430 378.701721,252.037903 
	C368.717255,251.931320 358.727295,252.154007 348.747253,251.917984 
	C345.373322,251.838181 344.384857,252.914658 344.717651,256.101440 
	C344.958160,258.405090 344.745697,260.756012 344.629395,263.539612 
	C338.651184,268.373718 332.116333,271.224304 324.605835,272.250610 
z"/>
<path fill="#00B900" opacity="1.000000" stroke="none" 
	d="
M129.001114,226.000000 
	C129.001160,216.667847 129.113464,207.833633 128.952072,199.004425 
	C128.875809,194.831711 130.311829,192.873215 134.727646,192.955475 
	C151.169128,193.261719 149.428192,190.765900 149.466858,207.522110 
	C149.508408,225.519623 149.602219,243.518829 149.381927,261.513733 
	C149.331009,265.673584 150.011887,267.329895 154.713013,267.097717 
	C163.856155,266.646118 173.037384,266.953339 182.202805,266.969818 
	C188.400436,266.980957 188.946503,267.556610 188.967590,273.939087 
	C188.978592,277.271942 188.942032,280.605133 188.975601,283.937653 
	C189.007935,287.147949 187.651276,288.996582 184.259293,288.995880 
	C167.428223,288.992340 150.597153,288.992676 133.766083,288.994995 
	C129.648819,288.995544 128.962173,286.420654 128.972961,282.992371 
	C129.032196,264.161743 129.001160,245.330826 129.001114,226.000000 
z"/>
<path fill="#06BB06" opacity="1.000000" stroke="none" 
	d="
M210.032486,289.010254 
	C208.732254,289.010254 207.900040,289.014679 207.067902,289.009552 
	C200.906891,288.971405 200.129562,288.239044 200.124817,282.157898 
	C200.108292,261.020721 200.118332,239.883560 200.118362,218.746399 
	C200.118362,212.255463 200.242371,205.761322 200.075317,199.274689 
	C199.963593,194.936172 201.443680,192.843277 206.124939,192.933121 
	C222.309097,193.243729 220.789322,190.825439 220.798996,207.599945 
	C220.812637,231.233627 220.802475,254.867294 220.802429,278.500977 
	C220.802414,289.010193 220.802338,289.010193 210.032486,289.010254 
z"/>
<path fill="#009B00" opacity="1.000000" stroke="none" 
	d="
M324.226471,272.465698 
	C330.858948,269.463531 336.892914,265.669739 344.169067,264.022339 
	C344.397614,266.756165 346.035889,267.028351 348.314606,267.006592 
	C358.281982,266.911469 368.252930,267.085999 378.218140,266.910400 
	C382.492584,266.835083 384.336487,268.454071 384.111450,272.761230 
	C383.920959,276.406372 383.995453,280.071320 384.093323,283.723755 
	C384.186218,287.190582 382.798370,289.018799 379.160187,289.011566 
	C362.546387,288.978607 345.932434,288.968781 329.318726,289.019562 
	C325.749451,289.030457 324.119232,287.349030 324.119324,283.888031 
	C324.119446,280.233063 324.131042,276.578064 324.226471,272.465698 
z"/>
<path fill="#049D04" opacity="1.000000" stroke="none" 
	d="
M301.451416,288.913391 
	C303.747955,285.812195 306.978882,283.401947 310.739563,281.118652 
	C311.687897,288.664795 311.261261,289.038025 301.451416,288.913391 
z"/>
</svg>