<svg width="430" height="135" viewBox="0 0 430 135" fill="none" xmlns="http://www.w3.org/2000/svg">
<path d="M20.8005 20V19.442L22.8885 19.19H23.2665L25.3905 19.442V20H20.8005ZM20.9265 7.346V6.77H23.5365V7.562H23.3385L20.9265 7.346ZM22.6545 20L22.7085 6.77H23.3205L23.4465 13.322V20H22.6545ZM28.0005 20L23.0145 7.454H22.8885V6.77H24.9225L29.2605 17.768H28.8285L28.9365 17.498L33.1305 6.77H33.9585V7.454H33.5985L33.3825 7.994L28.7385 20H28.0005ZM31.4205 20V19.442L34.0485 19.19H34.4805L37.1445 19.442V20H31.4205ZM33.1485 20C33.2025 17.966 33.1845 15.896 33.2025 14.132L33.2745 6.77H35.3805C35.3265 8.804 35.3265 10.874 35.3265 12.944V13.844C35.3265 15.932 35.3265 17.984 35.3805 20H33.1485ZM34.2465 7.562V6.77H37.1085V7.346L34.4805 7.562H34.2465ZM40.9744 20.288C39.5164 20.288 38.4364 19.406 38.4364 17.912C38.4364 16.418 39.3184 15.5 41.9104 14.762C42.8644 14.474 44.1244 14.168 45.0784 13.934V14.384C44.1244 14.636 43.0804 14.924 42.3784 15.176C40.9924 15.716 40.3624 16.508 40.3624 17.624C40.3624 18.722 40.9744 19.28 41.9104 19.28C42.5764 19.28 43.2424 18.92 44.5384 17.57L44.7724 18.488H44.2144C43.1344 19.676 42.3964 20.288 40.9744 20.288ZM45.9244 20.27C44.7544 20.27 44.1784 19.514 44.0524 18.272V13.322C44.0524 11.36 43.4944 10.82 42.1084 10.82C41.4604 10.82 40.8124 10.982 39.9844 11.36L40.9564 10.91L40.7224 12.296C40.6504 13.178 40.2184 13.502 39.6784 13.502C39.1744 13.502 38.8324 13.232 38.7064 12.746C38.9944 11.198 40.4164 10.244 42.7384 10.244C45.0064 10.244 46.0324 11.234 46.0324 13.61V18.2C46.0324 19.154 46.2664 19.442 46.6984 19.442C46.9864 19.442 47.2024 19.316 47.5084 18.92L47.8144 19.172C47.4004 19.928 46.8064 20.27 45.9244 20.27ZM52.0128 20.288C50.7708 20.288 49.7988 20.018 48.7908 19.496L48.8448 17.246H49.7808L50.2668 19.658L49.4928 19.586V18.938C50.2308 19.424 50.8968 19.658 51.9048 19.658C53.3988 19.658 54.1908 19.046 54.1908 18.038C54.1908 17.21 53.7768 16.688 52.3188 16.238L51.3468 15.896C49.8348 15.392 48.8988 14.546 48.8988 13.124C48.8988 11.468 50.2128 10.244 52.5528 10.244C53.6868 10.244 54.5148 10.514 55.4868 11.036L55.3968 13.088H54.5508L53.9748 10.82L54.6588 11V11.576C53.9208 11.072 53.3628 10.856 52.5888 10.856C51.3108 10.856 50.6088 11.486 50.6088 12.422C50.6088 13.196 51.0588 13.7 52.4088 14.132L53.3808 14.456C55.2348 15.068 55.9728 15.95 55.9728 17.3C55.9728 19.082 54.5688 20.288 52.0128 20.288ZM60.8018 20.288C59.5598 20.288 58.5878 20.018 57.5798 19.496L57.6338 17.246H58.5698L59.0558 19.658L58.2818 19.586V18.938C59.0198 19.424 59.6858 19.658 60.6938 19.658C62.1878 19.658 62.9798 19.046 62.9798 18.038C62.9798 17.21 62.5658 16.688 61.1078 16.238L60.1358 15.896C58.6238 15.392 57.6878 14.546 57.6878 13.124C57.6878 11.468 59.0018 10.244 61.3418 10.244C62.4758 10.244 63.3038 10.514 64.2758 11.036L64.1858 13.088H63.3398L62.7638 10.82L63.4478 11V11.576C62.7098 11.072 62.1518 10.856 61.3778 10.856C60.0998 10.856 59.3978 11.486 59.3978 12.422C59.3978 13.196 59.8478 13.7 61.1978 14.132L62.1698 14.456C64.0238 15.068 64.7618 15.95 64.7618 17.3C64.7618 19.082 63.3578 20.288 60.8018 20.288ZM66.1897 20V19.478L68.1337 19.298H69.0157L70.9417 19.478V20H66.1897ZM67.5577 20C67.5937 19.118 67.6297 17.066 67.6297 15.824V14.618C67.6297 13.412 67.5937 12.548 67.5577 11.666L66.0637 11.576V11.126L69.4657 10.28L69.6997 10.424L69.6457 13.088V15.824C69.6457 17.066 69.6637 19.118 69.6997 20H67.5577ZM68.5117 8.21C67.8457 8.21 67.2877 7.724 67.2877 7.022C67.2877 6.338 67.8457 5.834 68.5117 5.834C69.1957 5.834 69.7537 6.338 69.7537 7.022C69.7537 7.724 69.1957 8.21 68.5117 8.21ZM72.3061 20V19.478L74.2321 19.298H75.1321L77.0221 19.478V20H72.3061ZM73.6561 20C73.7101 19.118 73.7281 17.066 73.7281 15.824V14.564C73.7281 13.376 73.7101 12.584 73.6561 11.702L72.1801 11.594V11.144L75.3841 10.28L75.6181 10.424L75.7441 12.44V15.824C75.7441 17.066 75.7621 19.118 75.7981 20H73.6561ZM78.3181 20V19.478L80.1901 19.298H81.1261L82.9801 19.478V20H78.3181ZM79.6501 20C79.7041 19.118 79.7221 17.102 79.7221 15.824V13.646C79.7221 11.99 79.2001 11.36 78.2821 11.36C77.3821 11.36 76.3741 11.972 75.2941 13.25L75.1681 12.494H75.4201C76.5181 11.036 77.6881 10.244 79.0921 10.244C80.7481 10.244 81.6841 11.252 81.6841 13.664V15.824C81.6841 17.102 81.7201 19.118 81.7561 20H79.6501ZM84.2941 20V19.478L86.1301 19.298H87.0661L88.9561 19.478V20H84.2941ZM85.5901 20C85.6441 19.118 85.6621 17.102 85.6621 15.824V13.646C85.6621 11.9 85.1401 11.36 84.1681 11.36C83.2861 11.36 82.3141 11.882 81.2161 13.16L81.0721 12.368H81.3601C82.4581 10.874 83.6281 10.244 84.9601 10.244C86.7421 10.244 87.6421 11.27 87.6421 13.682V15.824C87.6421 17.102 87.6601 19.118 87.6961 20H85.5901ZM95.0066 20.288C92.3426 20.288 90.2906 18.452 90.2906 15.248C90.2906 12.026 92.4866 10.244 95.0066 10.244C97.5266 10.244 99.7406 12.008 99.7406 15.248C99.7406 18.488 97.6526 20.288 95.0066 20.288ZM95.0066 19.694C96.5906 19.694 97.5446 18.2 97.5446 15.266C97.5446 12.332 96.5906 10.838 95.0066 10.838C93.4046 10.838 92.4506 12.332 92.4506 15.266C92.4506 18.2 93.4046 19.694 95.0066 19.694ZM117.871 15.212V20.27H116.125V15.212H117.871ZM121.687 7.94C121.615 8.084 121.435 8.192 121.129 8.138C120.625 8.606 119.221 9.758 118.375 10.388C122.893 11.972 121.363 14.6 120.013 13.7C119.797 12.782 118.987 11.342 117.889 10.442C118.465 9.542 119.437 7.85 119.707 7.202L121.687 7.94ZM118.699 7.904C118.627 8.066 118.447 8.174 118.141 8.102C117.655 8.588 116.323 9.812 115.495 10.496C119.815 12.224 118.213 14.816 116.917 13.898C116.737 12.962 116.053 11.468 115.027 10.55C115.549 9.596 116.449 7.832 116.701 7.202L118.699 7.904ZM115.855 7.814C115.783 7.958 115.603 8.066 115.297 8.012C114.811 8.516 113.497 9.794 112.669 10.514C116.881 12.386 115.225 14.978 113.983 14.006C113.839 13.088 113.209 11.558 112.219 10.55C112.741 9.578 113.641 7.778 113.875 7.112L115.855 7.814ZM120.247 13.898C120.247 13.898 121.219 14.672 121.813 15.23C121.759 15.428 121.597 15.518 121.345 15.518H113.011L112.867 14.996H119.365L120.247 13.898ZM120.931 18.578C120.931 18.578 122.047 19.478 122.731 20.126C122.677 20.324 122.497 20.414 122.245 20.414H111.949L111.805 19.892H119.941L120.931 18.578ZM120.499 4.934C120.499 4.934 121.579 5.762 122.245 6.356C122.209 6.554 122.011 6.644 121.759 6.644H112.435L112.291 6.122H119.545L120.499 4.934ZM112.651 9.056C112.507 9.254 112.129 9.38 111.607 9.074L112.129 8.984C111.103 10.586 108.673 13.214 106.711 14.654L106.675 14.456H107.485C107.377 15.446 107.017 15.968 106.603 16.112L105.919 14.204C105.919 14.204 106.333 14.114 106.477 13.988C107.971 12.71 110.023 9.488 110.743 7.706L112.651 9.056ZM110.995 5.888C110.887 6.104 110.545 6.284 109.969 6.05L110.491 5.942C109.681 7.274 108.025 9.308 106.675 10.388L106.657 10.19H107.503C107.413 11.126 107.089 11.702 106.693 11.846L105.919 9.938C105.919 9.938 106.279 9.866 106.405 9.758C107.323 8.786 108.511 6.212 108.889 4.844L110.995 5.888ZM107.431 16.4C108.061 18.38 107.809 19.892 107.305 20.612C106.945 21.098 106.117 21.206 105.793 20.702C105.541 20.27 105.739 19.784 106.171 19.442C106.675 18.92 107.215 17.57 107.143 16.4H107.431ZM110.473 15.806C113.983 17.48 112.651 20.144 111.409 19.046C111.373 18.02 110.797 16.724 110.257 15.914L110.473 15.806ZM108.889 16.202C111.571 18.704 109.825 21.296 108.727 19.91C108.943 18.722 108.853 17.282 108.637 16.256L108.889 16.202ZM110.365 12.152C113.731 14.15 112.345 16.778 111.139 15.626C111.121 14.528 110.599 13.142 110.131 12.242L110.365 12.152ZM106.189 14.258C107.161 14.222 109.447 14.078 111.751 13.898L111.769 14.15C110.743 14.528 108.817 15.212 106.711 15.824L106.189 14.258ZM106.189 10.01C107.035 10.046 108.871 10.046 110.653 10.01V10.262C109.915 10.55 108.385 11.09 106.801 11.558L106.189 10.01ZM123.631 16.418H138.247L139.129 15.122C139.129 15.122 140.155 16.022 140.731 16.652C140.677 16.85 140.515 16.922 140.263 16.922H123.775L123.631 16.418ZM133.747 17.624C142.711 18.956 139.831 22.628 138.247 21.17C137.473 20.162 135.961 18.866 133.639 17.876L133.747 17.624ZM129.139 17.282L131.353 18.434C131.227 18.632 130.921 18.722 130.399 18.632C128.977 19.766 126.493 20.918 123.937 21.494L123.829 21.26C125.971 20.324 128.167 18.596 129.139 17.282ZM129.409 5.006L131.515 5.204C131.479 5.42 131.371 5.564 131.011 5.636V16.616H129.409V5.006ZM132.937 5.006L135.043 5.204C135.007 5.42 134.881 5.564 134.539 5.636V16.616H132.937V5.006ZM125.845 7.832V7.112L127.699 7.832H136.375L137.167 6.824L139.111 8.192C138.985 8.39 138.751 8.498 138.283 8.552V16.706H136.573V8.354H127.519V16.706H125.845V7.832ZM126.853 12.008H137.383V12.53H126.853V12.008ZM141.739 20.162H155.257L156.391 18.722C156.391 18.722 157.669 19.694 158.479 20.396C158.425 20.576 158.245 20.666 157.957 20.666H141.883L141.739 20.162ZM142.315 6.446H154.807L155.923 5.042C155.923 5.042 157.201 6.014 157.993 6.68C157.939 6.878 157.741 6.968 157.489 6.968H142.459L142.315 6.446ZM145.357 14.006H154.843V14.528H145.357V14.006ZM146.203 15.68C150.505 17.624 148.741 20.9 147.193 19.442C147.175 18.2 146.581 16.778 146.005 15.788L146.203 15.68ZM152.215 15.644L154.681 16.184C154.627 16.4 154.429 16.562 154.015 16.58C153.349 17.678 152.233 19.226 151.171 20.378H150.793C151.315 19.01 151.909 17.03 152.215 15.644ZM153.817 9.632H153.637L154.465 8.714L156.265 10.064C156.157 10.208 155.905 10.37 155.527 10.442V15.05C155.509 15.158 154.627 15.464 154.087 15.464H153.817V9.632ZM144.547 9.632V8.876L146.383 9.632H154.915V10.154H146.275V15.212C146.275 15.374 145.519 15.77 144.799 15.77H144.547V9.632ZM165.516 8.102L169.782 7.058L170.052 7.256L169.98 10.136V15.824C169.98 17.192 169.998 18.614 170.052 20H167.892C167.928 18.614 167.946 17.192 167.946 15.824V8.354L165.516 8.696V8.102ZM169.89 19.19L172.644 19.478V20H165.174V19.478L168.072 19.19H169.89ZM174.611 20V19.478L176.537 19.298H177.455L179.435 19.478V20H174.611ZM175.997 20C176.033 19.118 176.051 17.048 176.051 15.824V6.572L174.575 6.482V5.996L177.869 5.366L178.139 5.528L178.085 8.372V15.752C178.085 17.048 178.103 19.118 178.139 20H175.997ZM177.059 16.832V16.058H177.149L179.921 13.286L182.747 10.514H183.719L177.059 16.832ZM182.099 20L179.147 14.6L180.569 13.286L183.935 19.37L185.249 19.478V20H182.099ZM180.245 11.054V10.514H184.763V11.054L182.657 11.234L182.297 11.288L180.245 11.054ZM189.836 24.68C186.902 24.68 185.912 23.654 185.912 22.304C185.912 21.26 186.704 20.45 188.324 19.856L188.396 19.982C187.622 20.666 187.244 21.134 187.244 21.98C187.244 23.294 188.198 23.978 189.854 23.978C192.338 23.978 193.58 23.06 193.58 21.728C193.58 21.026 193.13 20.342 191.726 20.342H189.602C188.828 20.342 188.396 20.324 187.928 20.18V20.126C186.974 19.874 186.488 19.28 186.488 18.452C186.488 17.642 186.92 16.922 188.126 16.058V15.896L188.504 16.094C187.964 16.706 187.73 17.084 187.73 17.642C187.73 18.236 188.126 18.614 189.098 18.614H191.726C194.21 18.614 195.254 19.622 195.254 21.152C195.254 22.934 193.31 24.68 189.836 24.68ZM190.106 16.724C187.676 16.724 186.344 15.392 186.344 13.502C186.344 11.558 187.694 10.244 190.124 10.244C191.42 10.244 192.392 10.604 192.986 11.216L193.058 11.288C193.598 11.828 193.886 12.584 193.886 13.502C193.886 15.392 192.518 16.724 190.106 16.724ZM190.106 16.166C191.312 16.166 192.05 15.104 192.05 13.484C192.05 11.81 191.294 10.784 190.124 10.784C188.936 10.784 188.198 11.828 188.198 13.502C188.198 15.122 188.9 16.166 190.106 16.166ZM192.41 11.432V11.144H192.518L195.056 10.28L195.362 10.478V11.612L192.41 11.432Z" fill="#003E52"/>
<path d="M20.792 66.5005V65.9605L22.7 65.7445H23.078L25.4 65.9605V66.5005H20.792ZM22.52 66.5005V53.8285H23.15L23.222 60.7585V66.5005H22.52ZM29 53.9545V53.3965H33.608V53.9545L31.718 54.1525H31.34L29 53.9545ZM31.088 66.6265L22.988 54.7465L22.952 54.7105L22.52 54.0625L20.756 53.9545V53.3965H23.942L31.538 64.6645L31.214 64.7725L31.196 59.3905V53.3965H31.862V66.6265H31.088ZM37.3682 66.5005V65.9605L40.0142 65.7445H40.4642L43.1282 65.9605V66.5005H37.3682ZM39.4202 66.5005C39.4742 64.5205 39.4742 62.4865 39.4742 60.4525V59.4625C39.4742 57.4285 39.4742 55.4125 39.4202 53.3965H41.0942C41.0582 55.3945 41.0582 57.4285 41.0582 59.4625V60.4525C41.0582 62.4865 41.0582 64.5025 41.0942 66.5005H39.4202ZM34.7222 56.8165L34.8662 53.3965H45.6482L45.8102 56.8165H45.0362L44.3882 53.3965L45.1262 54.0445H35.3702L36.1442 53.3965L35.4782 56.8165H34.7222ZM52.5789 54.6745L56.4849 53.6845L56.7549 53.8825L56.6829 56.7085V62.3785C56.6829 63.7285 56.7009 65.1325 56.7369 66.5005H55.1529C55.1889 65.1325 55.2069 63.7285 55.2069 62.3785V54.8005L52.5789 55.2145V54.6745ZM56.5929 65.7445L59.4549 66.0145V66.5005H52.3269V66.0145L55.3329 65.7445H56.5929ZM62.0438 69.6685L61.8458 69.2005C63.1238 68.5525 63.7358 67.9405 63.9338 66.6085L64.1318 67.2385L63.2678 66.7165C62.7818 66.4105 62.5478 66.0685 62.5478 65.6365C62.5478 65.0605 62.9438 64.6105 63.5738 64.6105C63.9338 64.6105 64.2398 64.7005 64.5278 64.9885C64.6538 65.3485 64.7078 65.6365 64.7078 66.0685C64.7078 67.7965 63.6638 69.0205 62.0438 69.6685ZM67.5365 66.5005V65.5645C68.7425 64.2325 69.9305 62.9005 70.7945 61.9285C72.7745 59.7325 73.5125 58.4725 73.5125 56.9425C73.5125 55.3225 72.5765 54.1525 70.9565 54.1525C70.2905 54.1525 69.6605 54.3145 68.9045 54.7285L69.6965 54.2065L69.1205 55.8445C68.9405 56.5285 68.6165 56.7805 68.2385 56.7805C67.9145 56.7805 67.6445 56.5825 67.5005 56.2765C67.8785 54.5665 69.4985 53.5945 71.3705 53.5945C73.8005 53.5945 75.0425 54.9265 75.0425 56.9605C75.0425 58.5625 74.0165 59.9125 71.2265 62.5225C70.6505 63.0805 69.4625 64.3225 68.2385 65.5465L68.1845 65.2405H75.5645V66.5005H67.5365ZM78.8194 60.2185C78.8194 64.7725 80.0794 66.2125 81.3934 66.2125C82.6714 66.2125 83.9494 64.7725 83.9494 60.2185C83.9494 55.6105 82.6714 54.1525 81.3934 54.1525C80.0794 54.1525 78.8194 55.6105 78.8194 60.2185ZM81.3934 53.5945C83.4814 53.5945 85.4254 55.5205 85.4254 60.2185C85.4254 64.8985 83.4814 66.7705 81.3934 66.7705C79.2694 66.7705 77.3434 64.8985 77.3434 60.2185C77.3434 55.5205 79.2694 53.5945 81.3934 53.5945ZM88.6983 60.2185C88.6983 64.7725 89.9583 66.2125 91.2723 66.2125C92.5503 66.2125 93.8283 64.7725 93.8283 60.2185C93.8283 55.6105 92.5503 54.1525 91.2723 54.1525C89.9583 54.1525 88.6983 55.6105 88.6983 60.2185ZM91.2723 53.5945C93.3603 53.5945 95.3043 55.5205 95.3043 60.2185C95.3043 64.8985 93.3603 66.7705 91.2723 66.7705C89.1483 66.7705 87.2223 64.8985 87.2223 60.2185C87.2223 55.5205 89.1483 53.5945 91.2723 53.5945Z" fill="#003E52"/>
<path d="M393.873 56.9641L394.58 57.6709L395.287 56.9635L396.487 55.7628C398.003 54.2459 400.461 54.245 401.978 55.7607C403.495 57.2764 403.496 59.7348 401.98 61.2516L394.584 68.6528L387.165 61.2385C385.648 59.7228 385.647 57.2644 387.163 55.7476C388.678 54.2307 391.137 54.2298 392.653 55.7455L393.873 56.9641Z" fill="#FF0000" stroke="#003E52" stroke-width="2" stroke-linecap="round"/>
<rect x="21" y="93.001" width="148" height="41" fill="white"/>
<rect x="21" y="93.001" width="148" height="41" stroke="#003E52" stroke-width="2"/>
<path d="M92.536 118.001V117.623L94.566 117.399H95.588L97.464 117.623V118.015L92.536 118.001ZM94.454 118.001C94.482 116.937 94.496 115.845 94.496 114.795V108.537L92.48 108.873V108.453L95.49 107.669L95.7 107.837L95.644 110.035V114.795C95.644 115.845 95.658 116.937 95.686 118.001H94.454Z" fill="black"/>
<rect width="150" height="43" transform="translate(260 92.001)" fill="#003E52"/>
<path d="M298.488 119.333H302.584V119.813H298.488V119.333ZM302.024 109.829H301.848L302.472 109.125L303.832 110.197C303.72 110.341 303.416 110.469 303.08 110.533V120.773C303.048 120.885 302.552 121.157 302.184 121.157H302.024V109.829ZM289.416 110.565H295.88V111.045H289.56L289.416 110.565ZM292.056 107.157L293.72 107.317C293.672 107.541 293.56 107.701 293.16 107.765C293.096 112.229 293.176 117.813 289.272 121.733L289.016 121.477C292.184 117.365 292.056 111.861 292.056 107.157ZM295.4 110.565H295.224L295.848 109.877L297.08 110.917C296.968 111.045 296.76 111.141 296.424 111.189C296.296 116.693 295.992 119.893 295.256 120.741C294.824 121.237 294.184 121.477 293.48 121.477C293.48 121.125 293.416 120.853 293.208 120.677C292.968 120.485 292.344 120.325 291.72 120.229L291.736 119.925C292.392 120.005 293.48 120.117 293.816 120.117C294.152 120.117 294.264 120.053 294.44 119.893C295.032 119.317 295.272 115.877 295.4 110.565ZM298.04 109.829V109.285L299.144 109.829H302.728V110.293H299.064V120.981C299.064 121.109 298.696 121.365 298.232 121.365H298.04V109.829ZM315.544 111.413C314.552 115.557 311.816 119.429 307.928 121.797L307.72 121.573C311.24 118.949 313.944 114.645 314.792 109.365L315.544 111.413ZM314.664 109.349C314.568 108.885 313.16 108.389 312.024 108.021C312.168 107.797 312.488 107.253 312.648 107.061C313.88 107.733 315.096 108.469 315.288 109.317C316.104 114.357 318.744 118.789 322.776 120.645L322.712 120.869C322.104 120.885 321.576 121.269 321.4 121.749C317.784 119.557 315.464 114.821 314.664 109.349ZM333.272 116.085H339.096V116.565H333.272V116.085ZM331.72 108.805H338.792L339.48 107.941C339.48 107.941 340.264 108.549 340.76 109.013C340.712 109.189 340.552 109.269 340.344 109.269H331.848L331.72 108.805ZM331.464 112.405H339.16L339.832 111.525C339.832 111.525 340.632 112.165 341.096 112.613C341.08 112.789 340.92 112.869 340.696 112.869H331.592L331.464 112.405ZM331.384 118.261H339.576L340.168 117.445C340.168 117.445 340.872 118.037 341.256 118.469C341.224 118.645 341.096 118.725 340.872 118.725H331.512L331.384 118.261ZM331.992 110.549H338.792L339.368 109.797C339.368 109.797 340.056 110.357 340.472 110.757C340.424 110.933 340.28 111.013 340.072 111.013H332.12L331.992 110.549ZM333.944 107.189L335.432 107.333C335.4 107.541 335.256 107.685 334.92 107.733V112.693H333.944V107.189ZM337.144 107.189L338.632 107.333C338.6 107.541 338.456 107.685 338.12 107.733V112.693H337.144V107.189ZM335.592 112.533H336.552V118.485H335.592V112.533ZM332.648 114.005V113.525L333.672 114.005H338.968V114.485H333.592V121.413C333.592 121.525 333.208 121.765 332.808 121.765H332.648V114.005ZM338.584 114.005H338.424L338.92 113.381L340.216 114.357C340.12 114.485 339.864 114.613 339.544 114.661V120.309C339.544 121.093 339.4 121.589 337.976 121.733C337.944 121.429 337.864 121.173 337.672 121.013C337.448 120.853 337.064 120.741 336.392 120.645V120.389C336.392 120.389 337.896 120.501 338.216 120.501C338.504 120.501 338.584 120.421 338.584 120.181V114.005ZM328.104 117.941L329.528 118.549C329.448 118.725 329.32 118.789 328.936 118.741C328.456 119.701 327.576 120.949 326.472 121.733L326.28 121.525C327.144 120.565 327.816 119.013 328.104 117.941ZM329.624 117.973C332.504 119.573 331.544 121.653 330.584 120.821C330.52 119.941 329.944 118.789 329.432 118.069L329.624 117.973ZM327.208 108.069V107.573L328.344 108.069H330.12L330.632 107.429L331.816 108.341C331.704 108.469 331.512 108.581 331.176 108.629V117.685C331.176 117.749 330.776 118.005 330.344 118.005H330.2V108.517H328.152V117.861C328.152 117.957 327.832 118.181 327.352 118.181H327.208V108.069ZM327.704 110.901H330.712V111.381H327.704V110.901ZM327.704 113.797H330.712V114.277H327.704V113.797ZM327.704 116.773H330.712V117.253H327.704V116.773ZM352.392 107.077L354.024 107.557C353.944 107.749 353.752 107.893 353.416 107.877C352.6 110.373 351.304 112.325 349.672 113.557L349.448 113.381C350.744 111.925 351.864 109.637 352.392 107.077ZM353.64 110.293H354.776C354.04 113.397 352.36 116.133 349.784 117.957L349.608 117.749C351.72 115.813 353.16 113.045 353.64 110.293ZM355.912 110.293H357.096C356.424 114.661 354.728 118.421 351.016 120.933L350.856 120.725C353.928 118.053 355.464 114.341 355.912 110.293ZM358.072 110.293H357.88L358.488 109.605L359.72 110.629C359.608 110.773 359.4 110.853 359.048 110.901C358.824 116.213 358.264 119.989 357.384 120.933C356.872 121.493 356.216 121.733 355.4 121.717C355.4 121.397 355.336 121.093 355.112 120.933C354.84 120.741 354.072 120.565 353.384 120.469L353.4 120.165C354.184 120.245 355.48 120.373 355.864 120.373C356.216 120.373 356.36 120.325 356.584 120.133C357.352 119.461 357.848 115.493 358.072 110.293ZM351.944 110.293H358.344V110.757H351.72L351.944 110.293ZM347.704 107.077L349.288 107.253C349.24 107.477 349.112 107.637 348.712 107.701V121.365C348.712 121.509 348.28 121.749 347.912 121.749H347.704V107.077ZM346.04 108.069L347.56 108.357C347.512 108.549 347.352 108.709 347.016 108.725C346.648 110.613 346.008 112.469 345.128 113.717L344.872 113.589C345.464 112.133 345.88 110.053 346.04 108.069ZM344.92 115.861C345.928 115.605 348.456 114.773 351 113.893L351.08 114.133C349.848 114.773 348.136 115.717 345.864 116.805C345.816 116.981 345.688 117.141 345.528 117.205L344.92 115.861ZM346.136 110.597H349.144L349.848 109.653C349.848 109.653 350.632 110.341 351.112 110.821C351.08 110.997 350.92 111.077 350.696 111.077H346.136V110.597ZM363.528 118.581H375.816L376.648 117.573C376.648 117.573 377.576 118.261 378.152 118.789C378.12 118.965 377.96 119.045 377.736 119.045H363.656L363.528 118.581ZM363.944 109.189H375.352L376.168 108.181C376.168 108.181 377.128 108.885 377.704 109.397C377.656 109.573 377.496 109.653 377.272 109.653H364.088L363.944 109.189ZM370.248 107.093L371.88 107.269C371.848 107.493 371.72 107.653 371.304 107.717V121.365C371.304 121.509 370.856 121.765 370.456 121.765H370.248V107.093ZM365.672 111.253V110.725L366.824 111.253H375.496V111.717H366.712V117.317C366.712 117.429 366.264 117.669 365.848 117.669H365.672V111.253ZM374.92 111.253H374.776L375.352 110.597L376.664 111.605C376.552 111.733 376.296 111.861 375.992 111.925V117.061C375.976 117.157 375.448 117.413 375.08 117.413H374.92V111.253ZM366.232 116.213H375.32V116.677H366.232V116.213ZM366.232 113.669H375.32V114.133H366.232V113.669Z" fill="white"/>
<rect x="128.5" y="93" width="41" height="41" fill="white"/>
<rect x="128.5" y="93" width="41" height="41" stroke="#003E52" stroke-width="2"/>
<path d="M139.5 114H160.5" stroke="#003E52" stroke-width="2"/>
<path d="M150.5 103V124" stroke="#003E52" stroke-width="2"/>
<rect x="21.5" y="93" width="41" height="41" fill="white"/>
<rect x="21.5" y="93" width="41" height="41" stroke="#003E52" stroke-width="2"/>
<path d="M52.5 113L31.5 113" stroke="#003E52" stroke-width="2"/>
</svg>
