<svg width="480" height="181" viewBox="0 0 480 181" fill="none" xmlns="http://www.w3.org/2000/svg">
<g clip-path="url(#clip0_2163_7272)">
<path d="M147.32 -60.0029L167.514 -34.5531L-39.8064 129.949L-60.0001 104.5L147.32 -60.0029Z" fill="#003E52"/>
<path d="M14.7881 62.1986L20.3689 57.9598L21.0366 58.839L15.4558 63.0777L14.7881 62.1986ZM14.3421 62.5373L15.234 61.8598L17.9147 65.3892C18.2695 65.8564 18.6354 66.3822 19.0123 66.9666C19.3977 67.5446 19.7299 68.1495 20.0089 68.7814C20.2879 69.4133 20.4613 70.0384 20.5291 70.6567C20.433 70.6359 20.3091 70.6228 20.1576 70.6173C20.0211 70.6139 19.8803 70.6137 19.7352 70.6167C19.5902 70.6197 19.4665 70.6333 19.3643 70.6574C19.2883 70.0989 19.1239 69.5473 18.871 69.0027C18.6181 68.4581 18.3238 67.9383 17.988 67.4432C17.6606 66.9418 17.3389 66.4829 17.0228 66.0667L14.3421 62.5373ZM18.9707 66.4357C19.3139 66.041 19.7069 65.5885 20.1496 65.0781C20.5945 64.5527 21.0626 63.9963 21.5539 63.4087C22.0538 62.8148 22.5452 62.2272 23.0281 61.6462L23.6979 62.3429C23.0373 63.1661 22.3767 63.9894 21.7161 64.8126C21.0554 65.6358 20.4562 66.3723 19.9182 67.0219L18.9707 66.4357ZM17.4 63.8915L17.2953 62.9866C17.7271 62.7791 18.1963 62.5768 18.7029 62.3796C19.2094 62.1824 19.7054 62.0066 20.1909 61.8522C20.6764 61.6978 21.0906 61.5907 21.4338 61.531L21.5838 62.5221C21.2342 62.5733 20.8177 62.6687 20.3343 62.8081C19.8509 62.9476 19.3526 63.1117 18.8396 63.3004C18.3202 63.4806 17.8403 63.6777 17.4 63.8915ZM18.025 54.5564L19.2134 54.2164C19.3151 54.8088 19.402 55.4259 19.4742 56.0676C19.5484 56.6944 19.5869 57.2478 19.5899 57.7277L18.5131 58.0031C18.4983 57.6661 18.4683 57.3004 18.4233 56.906C18.3802 56.4967 18.3223 56.0853 18.2494 55.6718C18.1849 55.252 18.1102 54.8801 18.025 54.5564ZM11.8304 59.9444L12.3524 58.9653C12.72 59.0612 13.0994 59.1815 13.4906 59.3264C13.8819 59.4712 14.2487 59.6279 14.5911 59.7965C14.942 59.9586 15.2352 60.1243 15.4709 60.2936L14.9366 61.3624C14.7159 61.1952 14.4311 61.0231 14.0823 60.846C13.7335 60.6689 13.3644 60.5005 12.9752 60.3407C12.5859 60.1809 12.2043 60.0488 11.8304 59.9444ZM20.0503 58.2018L20.9805 57.4953L26.2063 64.3757C26.4063 64.6391 26.5304 64.873 26.5786 65.0775C26.6267 65.282 26.5822 65.4967 26.4449 65.7215C26.3161 65.9399 26.0925 66.1834 25.7741 66.452C25.4642 66.7142 25.0672 67.0291 24.583 67.3968C24.4607 67.2888 24.3021 67.1681 24.1072 67.0349C23.9122 66.9017 23.7324 66.7972 23.5677 66.7214C23.9394 66.4525 24.2781 66.2019 24.5839 65.9696C24.8962 65.7458 25.099 65.5985 25.1925 65.5275C25.3644 65.3835 25.3891 65.2308 25.2665 65.0695L20.0503 58.2018ZM14.4443 56.6933L15.3999 55.9675L18.5935 60.1722L17.6378 60.898L14.4443 56.6933ZM8.55627 62.5116L8.60399 61.4104C8.9685 61.3613 9.35967 61.312 9.77751 61.2625C10.1954 61.2131 10.6015 61.1658 10.9959 61.1207C11.3988 61.0692 11.7378 61.0394 12.013 61.0314L12.0172 62.2538C11.7441 62.2469 11.4038 62.2575 10.9965 62.2855C10.5977 62.3072 10.1819 62.3417 9.74915 62.3891C9.3184 62.4216 8.92078 62.4624 8.55627 62.5116ZM10.5295 66.5381L10.5197 65.4405C10.8648 65.3659 11.2431 65.2996 11.6545 65.2416C12.0744 65.1772 12.4783 65.1182 12.8662 65.0647C13.2627 65.0047 13.5952 64.9664 13.864 64.9498L13.9288 66.1462C13.6686 66.1563 13.3413 66.1839 12.9469 66.229C12.5525 66.2741 12.1421 66.3245 11.7158 66.3805C11.283 66.4279 10.8876 66.4804 10.5295 66.5381ZM15.9339 72.7806C15.9181 72.2836 15.8794 71.7036 15.8177 71.0405C15.7581 70.3624 15.6792 69.6589 15.5809 68.9299C15.4762 68.1924 15.3663 67.4922 15.2514 66.8294L16.4136 66.9312C16.5347 67.5491 16.6475 68.2002 16.7519 68.8844C16.8563 69.5685 16.95 70.2475 17.033 70.9211C17.116 71.5947 17.1818 72.228 17.2302 72.8207L15.9339 72.7806ZM23.3099 53.2347L31.3116 47.1573L30.7696 46.4437L21.9015 53.1792L21.408 52.5294L31.1552 45.1262L32.6746 47.1266L23.7937 53.8718L23.3099 53.2347ZM23.0168 53.4573L23.8578 52.8186C24.0798 53.1991 24.303 53.5988 24.5274 54.0177C24.7539 54.4217 24.9406 54.7822 25.0876 55.0992L24.2339 55.7475C24.0825 55.4071 23.8936 55.0349 23.6671 54.631C23.4427 54.212 23.226 53.8208 23.0168 53.4573ZM24.196 54.7718L33.4336 47.7556L33.9175 48.3927L24.4888 55.554L24.196 54.7718ZM33.1533 47.9685L34.0452 47.2911C34.0452 47.2911 34.07 47.3325 34.1196 47.4154C34.1712 47.4834 34.2196 47.5471 34.2647 47.6066C34.4868 47.9871 34.6465 48.2944 34.7439 48.5285C34.8499 48.7561 34.8916 48.9521 34.8691 49.1165C34.8443 49.2425 34.797 49.3655 34.7273 49.4854C34.6512 49.5968 34.5484 49.7083 34.419 49.8201C34.3085 49.9039 34.1514 50.0233 33.9475 50.1781C33.7522 50.3265 33.5334 50.4793 33.2911 50.6365C33.2116 50.5495 33.1098 50.4595 32.9855 50.3664C32.8612 50.2733 32.7455 50.2004 32.6385 50.1477C32.8468 50.0163 33.0349 49.8935 33.2027 49.7794C33.3705 49.6654 33.4852 49.5783 33.5467 49.5181C33.6232 49.4601 33.6794 49.4107 33.7154 49.3699C33.7514 49.3292 33.7735 49.2789 33.7817 49.2191C33.7919 49.1444 33.756 49.0177 33.6738 48.839C33.5917 48.6603 33.444 48.4041 33.2307 48.0704L33.1533 47.9685ZM23.9974 49.4577L24.8765 48.7899L26.6185 51.0834C26.9411 51.5081 27.1933 51.9461 27.3753 52.3972C27.5657 52.8419 27.6391 53.3354 27.5955 53.8775C27.5538 54.4047 27.3495 55.0086 26.9824 55.6893C26.6238 56.3635 26.0494 57.1414 25.259 58.023C25.1754 57.9659 25.0727 57.91 24.9507 57.8552C24.8288 57.8005 24.7058 57.7533 24.5819 57.7135C24.4514 57.6652 24.3339 57.6339 24.2293 57.6196C24.9626 56.8215 25.4992 56.126 25.8391 55.533C26.1789 54.94 26.3795 54.4193 26.4408 53.9709C26.5021 53.5225 26.458 53.1207 26.3087 52.7653C26.1678 52.4035 25.9748 52.0612 25.7296 51.7384L23.9974 49.4577ZM26.8515 47.2899L27.7689 46.5931L31.5528 51.5751L30.6354 52.2719L26.8515 47.2899ZM28.0713 57.4139L28.6713 58.2039L35.0676 53.3458L34.4676 52.5558L28.0713 57.4139ZM29.1262 58.8027L29.7358 59.6054L36.1321 54.7474L35.5224 53.9446L29.1262 58.8027ZM27.0261 56.0378L27.6261 56.8278L34.0224 51.9697L33.4224 51.1797L27.0261 56.0378ZM25.6315 56.1327L33.9262 49.8327L37.5746 54.6362L29.2799 60.9362L25.6315 56.1327ZM34.8268 57.4465L34.9841 56.4632C35.565 56.2228 36.1589 55.9995 36.7656 55.7931C37.3659 55.5783 37.9365 55.386 38.4774 55.2163C39.0267 55.0402 39.5101 54.9007 39.9277 54.7979L39.6659 55.9612C39.2674 56.0361 38.803 56.1477 38.2727 56.296C37.7574 56.4463 37.2048 56.6182 36.615 56.8117C36.0252 57.0051 35.4292 57.2167 34.8268 57.4465ZM31.4429 59.3135L32.5966 59.0601C32.3987 59.505 32.1414 59.9951 31.8247 60.5304C31.5079 61.0657 31.1698 61.5904 30.8102 62.1046C30.4656 62.6208 30.1186 63.0987 29.7693 63.5381C29.6817 63.5109 29.5599 63.4829 29.404 63.4539C29.2545 63.4335 29.0976 63.4121 28.9332 63.3896C28.7837 63.3692 28.6556 63.3593 28.549 63.3599C28.9262 62.9395 29.299 62.4956 29.6673 62.0283C30.0377 61.5461 30.3805 61.0714 30.6955 60.6044C31.0105 60.1375 31.2597 59.7071 31.4429 59.3135ZM35.7755 44.4901L39.3176 41.7998L39.8692 42.5261L36.3271 45.2164L35.7755 44.4901ZM41.6366 40.0385L45.2424 37.2998L45.794 38.0261L42.1882 40.7648L41.6366 40.0385ZM43.3734 35.6855L44.3418 34.95L51.7934 44.761C52.0386 45.0838 52.1789 45.3656 52.2145 45.6065C52.2586 45.8409 52.2068 46.0812 52.0589 46.3274C51.8961 46.5716 51.6258 46.8506 51.248 47.1643C50.8851 47.4802 50.4148 47.8574 49.8372 48.2961C49.7493 48.2156 49.6389 48.132 49.5061 48.0453C49.3818 47.9522 49.2458 47.8613 49.098 47.7726C48.9652 47.6859 48.8411 47.6195 48.7256 47.5733C49.0294 47.3559 49.3171 47.1441 49.589 46.9376C49.8672 46.7396 50.1051 46.559 50.3025 46.3957C50.5149 46.2344 50.6593 46.1247 50.7357 46.0666C50.8631 45.9699 50.9319 45.8841 50.9421 45.8094C50.9544 45.7197 50.9154 45.6154 50.8251 45.4965L43.3734 35.6855ZM34.3906 42.5081L38.4297 39.4403L41.9813 44.1165L37.9422 47.1842L37.3326 46.3815L40.467 44.0009L38.1347 40.9302L35.0003 43.3108L34.3906 42.5081ZM43.8831 35.2984L44.4927 36.1011L41.1417 38.6463L43.4837 41.7297L46.8347 39.1846L47.4444 39.9873L43.1887 43.2196L39.6274 38.5307L43.8831 35.2984ZM33.8682 42.9049L34.8111 42.1887L43.2595 53.3121L42.3166 54.0282L33.8682 42.9049ZM57.0337 40.8411L65.1883 34.6476L65.798 35.4503L57.6434 41.6439L57.0337 40.8411ZM55.6521 28.3085L58.6209 26.0536L59.2499 26.8818L56.2811 29.1367L55.6521 28.3085ZM57.9037 31.8021L60.9362 29.4989L61.5652 30.3271L58.5328 32.6303L57.9037 31.8021ZM55.544 36.8693L61.953 32.0015L64.7401 35.6711L63.9119 36.3001L61.7151 33.4078L60.5557 34.2885L62.7524 37.1808L62.0771 37.6937L59.8804 34.8014L58.7336 35.6723L60.9304 38.5647L60.2678 39.0679L58.0711 36.1756L56.9371 37.0369L59.1338 39.9292L58.3311 40.5389L55.544 36.8693ZM54.335 26.4156L55.3079 25.8977C55.7995 26.7566 56.239 27.635 56.6263 28.533C57.0156 29.416 57.268 30.2155 57.3832 30.9316C57.3 30.9279 57.1891 30.9317 57.0505 30.9433C56.9204 30.9483 56.7893 30.9608 56.6571 30.9808C56.5185 30.9923 56.4013 31.0144 56.3055 31.047C56.1946 30.3543 55.9544 29.6059 55.5847 28.8017C55.2085 27.989 54.792 27.1937 54.335 26.4156ZM47.7453 35.7806L51.5677 32.8773L52.2451 33.7693L48.4227 36.6725L47.7453 35.7806ZM47.2507 31.7963L48.1171 31.1382L57.0107 42.8477L56.1443 43.5058L47.2507 31.7963ZM49.7317 35.1157L50.4278 34.8683C50.717 35.4255 51.0034 36.0318 51.2868 36.6871C51.5638 37.334 51.8174 37.9853 52.0475 38.6409C52.2776 39.2966 52.4659 39.9238 52.6125 40.5223C52.7676 41.1145 52.8615 41.6526 52.8943 42.1367C52.753 42.0565 52.5733 41.9786 52.3553 41.9031C52.1457 41.8212 51.965 41.7508 51.8132 41.692C51.7892 41.2548 51.7148 40.7689 51.5899 40.2341C51.4736 39.693 51.3187 39.1275 51.1253 38.5377C50.9403 37.9415 50.7277 37.3529 50.4873 36.772C50.249 36.1761 49.9972 35.624 49.7317 35.1157ZM51.5113 35.7129C51.6438 35.7463 51.8586 35.8175 52.1558 35.9266C52.4615 36.0293 52.7918 36.1468 53.1468 36.279C53.5017 36.4113 53.831 36.5362 54.1347 36.6538C54.4383 36.7715 54.6511 36.8576 54.7731 36.9124L54.7987 37.9778C54.6231 37.8701 54.3781 37.7415 54.0636 37.5919C53.7511 37.4274 53.4227 37.2683 53.0783 37.1147C52.7274 36.9525 52.4012 36.8052 52.0996 36.6726C51.7979 36.54 51.5638 36.4433 51.397 36.3824L51.5113 35.7129ZM53.9653 35.6373L57.8515 32.6856L58.3934 33.3992L54.5072 36.3508L53.9653 35.6373ZM51.7113 31.7437L54.9349 29.2953L56.8704 31.8436L53.6467 34.292L53.1145 33.5912L55.5991 31.7041L54.7281 30.5573L52.2435 32.4444L51.7113 31.7437ZM52.0269 29.4345L52.7531 28.8829L54.0305 30.5648L53.3043 31.1164L52.0269 29.4345ZM54.5527 32.76L55.2789 32.2084L56.6628 34.0305L55.9365 34.5821L54.5527 32.76ZM50.0072 30.426L53.7915 27.5518L54.3334 28.2653L51.3137 30.5588L55.0588 35.4898L54.2943 36.0705L50.0072 30.426ZM62.4916 28.4782L73.7042 19.962L74.4203 20.9049L63.2078 29.4211L62.4916 28.4782ZM61.006 24.6439L70.4474 17.473L71.1636 18.4158L61.7221 25.5868L61.006 24.6439ZM63.5823 19.4122L64.5889 18.6477L73.4824 30.3572L72.4759 31.1217L63.5823 19.4122ZM67.6757 25.3043L68.7524 25.029C68.8422 25.7644 68.8671 26.5291 68.8272 27.323C68.7872 28.1168 68.6981 28.9078 68.5599 29.6958C68.4238 30.4689 68.2407 31.2242 68.0105 31.9616C67.7823 32.6841 67.5187 33.3598 67.2196 33.9888C67.102 33.9575 66.9621 33.9232 66.7997 33.8858C66.6459 33.8419 66.491 33.8055 66.3351 33.7766C66.1727 33.7392 66.0307 33.7198 65.9091 33.7184C66.2255 33.1298 66.5075 32.487 66.755 31.79C67.011 31.0866 67.22 30.3653 67.3819 29.6262C67.5374 28.8785 67.6385 28.1387 67.6852 27.4067C67.7405 26.6682 67.7373 25.9674 67.6757 25.3043ZM69.1665 24.172C69.7887 24.4093 70.4629 24.6005 71.1892 24.7454C71.9174 24.8754 72.6658 24.97 73.4341 25.0294C74.1961 25.0802 74.9502 25.0767 75.6965 25.0189C76.4364 24.9525 77.1291 24.8416 77.7745 24.6862C77.7582 24.8058 77.7388 24.9478 77.7163 25.1122C77.7023 25.2702 77.6916 25.4324 77.6841 25.5988C77.685 25.7588 77.6913 25.9081 77.7028 26.0467C77.0251 26.1596 76.3001 26.228 75.528 26.2519C74.7559 26.2758 73.9717 26.2485 73.1754 26.1702C72.3792 26.0918 71.5934 25.9654 70.8179 25.7909C70.0509 25.6099 69.3242 25.385 68.6378 25.1161L69.1665 24.172ZM78.5906 13.6187L79.2512 12.7955C79.544 12.8812 79.8434 13.002 80.1495 13.158C80.4555 13.314 80.7007 13.4694 80.8851 13.624L80.1801 14.5211C80.0042 14.36 79.7675 14.1982 79.47 14.0358C79.1745 13.8584 78.8814 13.7193 78.5906 13.6187ZM75.9029 11.5614L82.3374 6.67424L82.8793 7.38777L76.4448 12.2749L75.9029 11.5614ZM80.0453 17.0947L86.6327 12.0915L87.1746 12.805L80.5873 17.8083L80.0453 17.0947ZM78.4182 15.799L85.9358 10.0893L86.4874 10.8155L78.9699 16.5252L78.4182 15.799ZM76.4316 13.7918L84.3951 7.74338L84.9661 8.49513L77.0026 14.5435L76.4316 13.7918ZM80.7428 19.1769L88.5024 13.2834L89.0637 14.0224L81.3041 19.916L80.7428 19.1769ZM77.9068 8.51235L78.8497 7.79621L81.2207 10.9179L80.2778 11.634L77.9068 8.51235ZM81.8583 13.6885L82.8012 12.9723L86.6722 18.069L85.7293 18.7851L81.8583 13.6885ZM82.4519 10.264L83.5756 9.81239C83.6333 10.1704 83.6802 10.5232 83.7165 10.8708C83.7612 11.2118 83.7918 11.5167 83.8084 11.7854L82.8728 12.1143C82.8263 11.8415 82.7626 11.5283 82.6815 11.1746C82.6089 10.8145 82.5324 10.511 82.4519 10.264ZM71.8172 13.8006L72.2369 12.8188C72.7559 12.9202 73.3017 13.0481 73.8744 13.2025C74.4406 13.3484 74.9034 13.4992 75.2628 13.6549L74.8884 14.7228C74.6446 14.6133 74.3474 14.5042 73.9968 14.3954C73.6463 14.2866 73.2798 14.1832 72.8973 14.0852C72.5169 13.9723 72.1569 13.8775 71.8172 13.8006ZM73.2874 16.6621L75.9121 14.6686L76.5218 15.4713L73.8971 17.4648L73.2874 16.6621ZM80.0004 20.7655C80.6895 21.1261 81.3624 21.2714 82.0191 21.2012C82.6842 21.1247 83.3761 20.8805 84.0947 20.4686C84.8068 20.0483 85.5908 19.5198 86.4467 18.8831C86.8969 18.5412 87.3789 18.1617 87.8926 17.7448C88.4149 17.3213 88.9329 16.9011 89.4466 16.4841C89.9624 16.0522 90.425 15.6472 90.8345 15.2693C90.8351 15.3759 90.8529 15.4964 90.8879 15.6305C90.9377 15.7668 90.9909 15.9073 91.0472 16.052C91.1036 16.1967 91.1555 16.318 91.203 16.4159C90.8167 16.7361 90.3921 17.0853 89.9294 17.4636C89.4815 17.8439 89.007 18.2244 88.5058 18.605C88.0196 18.9877 87.5387 19.3597 87.063 19.721C86.3155 20.2888 85.6219 20.7687 84.9821 21.1609C84.3508 21.5466 83.7413 21.8287 83.1536 22.0072C82.5743 22.1792 81.9923 22.2329 81.4073 22.1682C80.8309 22.097 80.2237 21.8884 79.5859 21.5424L80.0004 20.7655ZM77.9268 18.1412L78.1944 17.938L78.3504 17.7994L78.9094 17.636C79.7354 19.1116 80.26 20.4812 80.4831 21.745C80.7148 23.0023 80.6949 24.1224 80.4235 25.1054C80.3294 25.0697 80.2077 25.0416 80.0582 25.0212C79.9237 25.0028 79.7817 24.9834 79.6322 24.963C79.4977 24.9446 79.3804 24.94 79.2802 24.9491C79.5648 24.0364 79.6087 23.0186 79.412 21.8955C79.2154 20.7724 78.7622 19.5762 78.0526 18.3068L77.9268 18.1412ZM76.6237 20.658L76.0624 19.9189L76.3469 19.3412L78.3346 17.8315L78.9249 18.6088L77.2303 19.8959C77.0774 20.012 76.9406 20.1494 76.82 20.308C76.7014 20.4516 76.6359 20.5683 76.6237 20.658ZM76.6237 20.658C76.5486 20.5944 76.4437 20.5268 76.3088 20.4551C76.1825 20.3769 76.0562 20.2987 75.9298 20.2206C75.8035 20.1424 75.6965 20.0897 75.6088 20.0625C75.6914 19.9596 75.7601 19.8472 75.8148 19.7252C75.8716 19.5884 75.9058 19.4218 75.9174 19.2254C75.9398 19.061 75.9415 18.7986 75.9222 18.4382C75.9114 18.0713 75.8941 17.6693 75.8701 17.2321C75.8397 16.7864 75.8061 16.3631 75.7696 15.9622C75.733 15.5614 75.6969 15.2405 75.6613 14.9997L75.642 14.9742L75.8255 14.6339L76.6628 14.44C76.6881 14.7556 76.7161 15.1362 76.7465 15.5819C76.779 16.0127 76.8074 16.4733 76.8317 16.9638C76.858 17.4394 76.8747 17.9022 76.8817 18.3523C76.8972 18.796 76.8974 19.1843 76.8824 19.5172C76.8824 19.5172 76.8603 19.5674 76.8161 19.668C76.7739 19.7536 76.7319 19.8658 76.6901 20.0047C76.6418 20.1352 76.6053 20.2634 76.5804 20.3894C76.5577 20.5005 76.5721 20.59 76.6237 20.658Z" fill="white"/>
</g>
<defs>
<clipPath id="clip0_2163_7272">
<rect width="1200" height="181" fill="white"/>
</clipPath>
</defs>
</svg>
