<svg width="340" height="122" viewBox="0 0 340 122" fill="none" xmlns="http://www.w3.org/2000/svg">
<g clip-path="url(#clip0_2163_7272)">
<path d="M102.772 -47L115.213 -32.6724L-58.5589 118.219L-71 103.892L102.772 -47Z" fill="#003E52"/>
<path d="M10.5315 45.1122L13.7611 42.1535L14.2272 42.6622L10.9976 45.6209L10.5315 45.1122ZM10.2734 45.3486L10.7896 44.8757L12.6607 46.9182C12.9084 47.1886 13.1663 47.4948 13.4344 47.8368C13.7075 48.1744 13.949 48.5317 14.159 48.909C14.369 49.2862 14.5128 49.6653 14.5905 50.0462C14.5295 50.0388 14.4517 50.0377 14.3571 50.043C14.2719 50.0487 14.1842 50.0567 14.0941 50.0669C14.004 50.0771 13.9278 50.0927 13.8656 50.1135C13.7863 49.7703 13.6522 49.4365 13.4635 49.1121C13.2748 48.7877 13.0618 48.4811 12.8243 48.1923C12.5918 47.899 12.3652 47.6319 12.1446 47.3911L10.2734 45.3486ZM13.378 47.5088C13.5689 47.2435 13.7875 46.9392 14.0338 46.5961C14.2804 46.2436 14.5397 45.8704 14.8118 45.4765C15.0888 45.0781 15.3608 44.6842 15.6279 44.2949L16.0849 44.69C15.721 45.2403 15.3572 45.7906 14.9934 46.3409C14.6295 46.8912 14.2989 47.3839 14.0014 47.8192L13.378 47.5088ZM12.2543 46.0157L12.1372 45.4585C12.394 45.3046 12.6744 45.1517 12.9783 44.9999C13.2822 44.848 13.5808 44.7101 13.874 44.5861C14.1673 44.4621 14.419 44.3717 14.6291 44.3148L14.7794 44.923C14.5648 44.975 14.3111 45.0582 14.0182 45.1728C13.7254 45.2874 13.4247 45.4181 13.1163 45.5651C12.8034 45.7071 12.5161 45.8573 12.2543 46.0157ZM12.1068 40.17L12.8269 39.8901C12.9242 40.253 13.0138 40.632 13.0956 41.0273C13.1778 41.4131 13.2336 41.7552 13.263 42.0538L12.6087 42.287C12.5801 42.0782 12.5404 41.8523 12.4897 41.6094C12.4394 41.3571 12.3797 41.1044 12.3106 40.8513C12.2464 40.5937 12.1784 40.3666 12.1068 40.17ZM8.56122 43.8793L8.82986 43.2399C9.0641 43.2784 9.30714 43.3316 9.55898 43.3992C9.81082 43.4668 10.0481 43.5433 10.2709 43.6285C10.4986 43.7093 10.6906 43.7956 10.847 43.8873L10.5759 44.5833C10.4289 44.4919 10.2418 44.4011 10.0145 44.311C9.78725 44.2208 9.5479 44.1372 9.29647 44.0601C9.04505 43.983 8.79996 43.9228 8.56122 43.8793ZM13.5768 42.3223L14.1151 41.8292L17.7628 45.811C17.9024 45.9634 17.993 46.1018 18.0348 46.2263C18.0765 46.3508 18.0611 46.487 17.9886 46.6348C17.921 46.7781 17.7958 46.9425 17.6131 47.128C17.4353 47.3089 17.2063 47.5278 16.9261 47.7844C16.8438 47.7242 16.7382 47.6583 16.6092 47.5865C16.4802 47.5148 16.3623 47.4601 16.2554 47.4224C16.4713 47.2337 16.6677 47.0583 16.8447 46.8962C17.0262 46.7389 17.1439 46.6356 17.198 46.586C17.2967 46.4866 17.3033 46.3901 17.2177 46.2967L13.5768 42.3223ZM10.0012 41.7057L10.5542 41.1991L12.7833 43.6324L12.2303 44.139L10.0012 41.7057ZM6.6711 45.6651L6.63752 44.977C6.86155 44.9255 7.10217 44.8723 7.35937 44.8176C7.61657 44.7628 7.86661 44.71 8.10947 44.6593C8.35725 44.6041 8.56654 44.5661 8.73732 44.5452L8.81019 45.3057C8.63982 45.3172 8.4287 45.3433 8.17682 45.3842C7.92987 45.4206 7.67308 45.4659 7.40646 45.5203C7.14025 45.5653 6.89513 45.6135 6.6711 45.6651ZM8.13055 48.0576L8.06134 47.3751C8.27186 47.3088 8.50347 47.2458 8.75617 47.1861C9.01378 47.1219 9.26177 47.0619 9.50013 47.0063C9.74341 46.9462 9.94819 46.9033 10.1145 46.8775L10.2236 47.6184C10.0622 47.6396 9.86011 47.6756 9.61724 47.7263C9.37438 47.777 9.12189 47.832 8.85977 47.8913C8.59315 47.9457 8.35007 48.0011 8.13055 48.0576ZM11.8527 51.6321C11.8143 51.3237 11.7569 50.9649 11.6804 50.5558C11.6044 50.1372 11.5148 49.7039 11.4117 49.2558C11.3042 48.8029 11.1956 48.3734 11.086 47.9676L11.8151 47.9641C11.926 48.3417 12.0336 48.7404 12.1379 49.1602C12.2422 49.58 12.3395 49.9972 12.4299 50.4116C12.5203 50.8261 12.5976 51.2164 12.6617 51.5826L11.8527 51.6321ZM15.3199 39.0438L19.9506 34.8016L19.5723 34.3887L14.4403 39.0902L14.0958 38.7141L19.7366 33.5466L20.7971 34.7042L15.6577 39.4124L15.3199 39.0438ZM15.1503 39.1991L15.637 38.7533C15.7971 38.9774 15.959 39.2133 16.1227 39.4611C16.2868 39.6995 16.4238 39.9131 16.5335 40.102L16.0394 40.5545C15.9256 40.3514 15.7867 40.1306 15.6225 39.8922C15.4588 39.6444 15.3014 39.4134 15.1503 39.1991ZM15.9598 39.9494L21.3056 35.0521L21.6434 35.4207L16.1869 40.4194L15.9598 39.9494ZM21.1434 35.2007L21.6596 34.7278C21.6596 34.7278 21.6774 34.7522 21.713 34.8009C21.749 34.8403 21.7828 34.8771 21.8143 34.9115C21.9744 35.1356 22.0914 35.3177 22.1655 35.4578C22.2445 35.5933 22.2817 35.7129 22.2772 35.8165C22.269 35.8964 22.2466 35.9756 22.2102 36.0543C22.1692 36.128 22.1116 36.2033 22.0375 36.2803C21.9736 36.3388 21.8826 36.4221 21.7647 36.5302C21.6516 36.6338 21.5242 36.7414 21.3825 36.8532C21.328 36.8036 21.2594 36.7534 21.1767 36.7026C21.094 36.6518 21.0179 36.6131 20.9482 36.5865C21.0703 36.4927 21.1803 36.4055 21.2782 36.3249C21.3761 36.2442 21.4425 36.1834 21.4773 36.1425C21.5215 36.102 21.5537 36.068 21.5738 36.0405C21.5938 36.0131 21.6047 35.9806 21.6064 35.9429C21.6084 35.8958 21.5788 35.819 21.5174 35.7125C21.456 35.606 21.3493 35.4551 21.1974 35.2597L21.1434 35.2007ZM15.5308 36.6536L16.0395 36.1875L17.2554 37.5148C17.4806 37.7605 17.6628 38.0186 17.8019 38.2889C17.946 38.5548 18.02 38.8576 18.024 39.1975C18.0284 39.528 17.936 39.9156 17.7466 40.3603C17.5622 40.8005 17.2494 41.3177 16.8081 41.9117C16.7528 41.881 16.6857 41.8521 16.6067 41.8251C16.5276 41.798 16.4484 41.7757 16.3689 41.758C16.285 41.7355 16.2101 41.7228 16.1441 41.7199C16.5546 41.1811 16.8486 40.7174 17.0261 40.3288C17.2035 39.9402 17.2984 39.6046 17.3108 39.322C17.3232 39.0395 17.2727 38.7919 17.1593 38.5793C17.0508 38.3622 16.911 38.1603 16.7399 37.9735L15.5308 36.6536ZM17.1824 35.1405L17.7133 34.6541L20.3546 37.5372L19.8237 38.0236L17.1824 35.1405ZM18.5234 41.3711L18.9422 41.8282L22.6438 38.4372L22.2249 37.9801L18.5234 41.3711ZM19.2597 42.1748L19.6853 42.6393L23.3868 39.2483L22.9612 38.7838L19.2597 42.1748ZM17.7939 40.5747L18.2127 41.0319L21.9142 37.6409L21.4954 37.1837L17.7939 40.5747ZM16.9313 40.7139L21.7316 36.3164L24.2782 39.0963L19.478 43.4938L16.9313 40.7139ZM22.7296 41.0032L22.7709 40.3821C23.1187 40.1992 23.4754 40.0261 23.8412 39.8628C24.2025 39.6946 24.5465 39.5421 24.8733 39.4054C25.2051 39.2642 25.498 39.1497 25.7519 39.0617L25.6558 39.8007C25.4121 39.8702 25.1295 39.9664 24.808 40.0891C24.4959 40.2123 24.1619 40.351 23.806 40.5053C23.4501 40.6596 23.0913 40.8255 22.7296 41.0032ZM20.7309 42.3595L21.4343 42.1355C21.3367 42.4238 21.2048 42.7436 21.0384 43.0949C20.872 43.4463 20.6917 43.7923 20.4975 44.1329C20.3127 44.474 20.1242 44.7913 19.9321 45.0849C19.876 45.073 19.7986 45.0626 19.6999 45.0535C19.6057 45.0494 19.5068 45.0451 19.4032 45.0405C19.309 45.0364 19.2287 45.0376 19.1624 45.0441C19.373 44.7608 19.5794 44.4631 19.7818 44.1511C19.9847 43.8297 20.1707 43.5147 20.3399 43.2059C20.5091 42.8972 20.6395 42.6151 20.7309 42.3595ZM22.5754 32.8852L24.6253 31.0073L25.0103 31.4276L22.9605 33.3055L22.5754 32.8852ZM25.9673 29.7779L28.054 27.8663L28.439 28.2865L26.3523 30.1982L25.9673 29.7779ZM26.798 26.969L27.3584 26.4556L32.5598 32.1333C32.7309 32.3201 32.8345 32.4874 32.8705 32.6353C32.9114 32.7786 32.8929 32.9312 32.815 33.0929C32.7278 33.2542 32.5756 33.4434 32.3584 33.6604C32.1507 33.8778 31.8798 34.1396 31.5455 34.4458C31.4861 34.4007 31.4126 34.3551 31.325 34.3088C31.2423 34.2579 31.1524 34.2092 31.0554 34.1625C30.9677 34.1162 30.8867 34.0819 30.8121 34.0598C30.9887 33.9071 31.1556 33.7587 31.3129 33.6146C31.4747 33.4754 31.6124 33.3493 31.7259 33.2363C31.8487 33.1237 31.9323 33.0472 31.9766 33.0066C32.0503 32.9391 32.0882 32.8818 32.0903 32.8347C32.0927 32.7782 32.0624 32.7155 31.9994 32.6467L26.798 26.969ZM21.5997 31.7313L23.9371 29.5899L26.4162 32.296L24.0787 34.4374L23.6532 33.9728L25.4671 32.3111L23.8391 30.5341L22.0252 32.1958L21.5997 31.7313ZM27.093 26.6988L27.5186 27.1633L25.5793 28.9399L27.214 30.7243L29.1533 28.9477L29.5788 29.4123L27.116 31.6685L24.6302 28.955L27.093 26.6988ZM21.2973 32.0082L21.843 31.5084L27.7401 37.9455L27.1944 38.4454L21.2973 32.0082ZM35.5959 29.3926L40.315 25.0694L40.7405 25.534L36.0214 29.8572L35.5959 29.3926ZM34.0158 21.6723L35.7338 20.0984L36.1729 20.5777L34.4549 22.1516L34.0158 21.6723ZM35.6179 23.7172L37.3728 22.1095L37.8119 22.5888L36.0569 24.1964L35.6179 23.7172ZM34.4405 27.0063L38.1494 23.6086L40.0948 25.7322L39.6156 26.1713L38.0822 24.4975L37.4112 25.1122L38.9446 26.786L38.5538 27.144L37.0204 25.4702L36.3568 26.0781L37.8901 27.7519L37.5067 28.1032L35.9733 26.4294L35.3171 27.0306L36.8505 28.7044L36.3859 29.1299L34.4405 27.0063ZM33.0873 20.57L33.663 20.1917C34.0183 20.698 34.3423 21.2195 34.635 21.756C34.928 22.2832 35.131 22.7663 35.2439 23.2053C35.1919 23.2078 35.1231 23.2166 35.0375 23.2317C34.9568 23.2423 34.8759 23.2576 34.7948 23.2777C34.7092 23.2928 34.6376 23.3133 34.5798 23.339C34.471 22.9143 34.2785 22.4624 34.0022 21.9831C33.7214 21.499 33.4164 21.0279 33.0873 20.57ZM29.5243 26.7769L31.7364 24.7504L32.2093 25.2666L29.9972 27.2931L29.5243 26.7769ZM28.9876 24.3257L29.489 23.8664L35.6968 30.6427L35.1954 31.1021L28.9876 24.3257ZM30.7224 26.249L31.1414 26.055C31.3534 26.3852 31.5665 26.746 31.7805 27.1376C31.9901 27.5243 32.1853 27.915 32.3662 28.3099C32.5471 28.7047 32.7004 29.0842 32.826 29.4483C32.9565 29.8079 33.0459 30.1374 33.0941 30.4368C33.0016 30.395 32.8853 30.3569 32.7452 30.3224C32.6101 30.2835 32.4936 30.2501 32.3957 30.2222C32.3557 29.9515 32.2815 29.6533 32.173 29.3277C32.0695 28.9976 31.9406 28.6546 31.7863 28.2986C31.637 27.9382 31.4708 27.5841 31.2879 27.2364C31.1053 26.8792 30.9168 26.5501 30.7224 26.249ZM31.8643 26.5184C31.9486 26.5316 32.0864 26.5635 32.2777 26.6144C32.4738 26.6607 32.6861 26.7148 32.9146 26.7768C33.1431 26.8387 33.3553 26.8975 33.551 26.9532C33.7467 27.009 33.8841 27.0504 33.9632 27.0775L34.0404 27.7391C33.9249 27.6821 33.765 27.6161 33.5606 27.5411C33.3567 27.4567 33.1432 27.3766 32.92 27.3007C32.6923 27.22 32.4808 27.147 32.2855 27.0819C32.0902 27.0167 31.9389 26.97 31.8316 26.9417L31.8643 26.5184ZM33.3872 26.3303L35.6361 24.27L36.0144 24.683L33.7655 26.7432L33.3872 26.3303ZM31.7606 24.0366L33.6261 22.3276L34.9771 23.8023L33.1116 25.5114L32.7401 25.1058L34.1779 23.7886L33.57 23.125L32.1321 24.4422L31.7606 24.0366ZM31.8243 22.5814L32.2446 22.1964L33.1363 23.1697L32.716 23.5547L31.8243 22.5814ZM33.5874 24.5059L34.0077 24.1209L34.9736 25.1753L34.5533 25.5603L33.5874 24.5059ZM30.6244 23.3145L32.8143 21.3083L33.1926 21.7212L31.4451 23.3221L34.0593 26.1757L33.6168 26.581L30.6244 23.3145ZM38.2822 21.3849L44.7709 15.4405L45.2708 15.9861L38.782 21.9305L38.2822 21.3849ZM37.1372 19.084L42.601 14.0785L43.1009 14.6242L37.6371 19.6296L37.1372 19.084ZM38.4399 15.68L39.0224 15.1463L45.2303 21.9227L44.6478 22.4563L38.4399 15.68ZM41.3261 19.1117L41.9804 18.8785C42.0785 19.331 42.138 19.8055 42.1587 20.3018C42.1794 20.7982 42.1694 21.2956 42.1288 21.7939C42.0885 22.2829 42.0179 22.7635 41.917 23.2356C41.8165 23.6984 41.6913 24.1341 41.5413 24.5427C41.4663 24.53 41.3773 24.5167 41.2741 24.5027C41.1758 24.4843 41.0773 24.4705 40.9786 24.4615C40.8754 24.4475 40.7859 24.4436 40.7101 24.4497C40.8733 24.0652 41.0118 23.649 41.1258 23.201C41.2447 22.7485 41.3333 22.2876 41.3916 21.8183C41.4454 21.3441 41.4658 20.8778 41.4528 20.4196C41.4448 19.9568 41.4025 19.5208 41.3261 19.1117ZM42.1888 18.3214C42.5897 18.4333 43.0203 18.5135 43.4806 18.5619C43.9413 18.601 44.4124 18.6169 44.8941 18.6097C45.3712 18.5975 45.8403 18.552 46.3014 18.4731C46.7581 18.3893 47.1828 18.2805 47.5756 18.1467C47.5723 18.222 47.5684 18.3115 47.5638 18.4151C47.5642 18.5142 47.5668 18.6158 47.5717 18.7198C47.5815 18.8194 47.594 18.9119 47.6091 18.9975C47.1938 19.1067 46.7466 19.1909 46.2674 19.2502C45.7883 19.3094 45.2987 19.3375 44.7986 19.3345C44.2986 19.3315 43.8022 19.298 43.3096 19.2339C42.8219 19.1654 42.3567 19.0672 41.914 18.9392L42.1888 18.3214ZM47.4475 11.2119L47.8113 10.6616C47.9985 10.6981 48.1917 10.7561 48.3912 10.8356C48.5906 10.9151 48.7521 10.9977 48.8758 11.0833L48.4886 11.6821C48.3698 11.592 48.2132 11.5049 48.0187 11.4209C47.8246 11.3275 47.6342 11.2578 47.4475 11.2119ZM45.6565 10.0859L49.3802 6.67467L49.7585 7.08759L46.0348 10.4989L45.6565 10.0859ZM48.5526 13.2916L52.3647 9.79927L52.743 10.2122L48.9309 13.7045L48.5526 13.2916ZM47.4655 12.5787L51.8159 8.59324L52.201 9.01354L47.8505 12.999L47.4655 12.5787ZM46.1138 11.4437L50.7223 7.2218L51.1208 7.65685L46.5123 11.8787L46.1138 11.4437ZM49.1063 14.5474L53.5968 10.4336L53.9886 10.8613L49.4981 14.9751L49.1063 14.5474ZM46.7285 8.07322L47.2741 7.57336L48.9291 9.37989L48.3835 9.87976L46.7285 8.07322ZM49.4851 11.0675L50.0308 10.5677L52.7328 13.5171L52.1871 14.017L49.4851 11.0675ZM49.6578 8.90219L50.3312 8.55655C50.3876 8.77607 50.4371 8.99293 50.4796 9.20713C50.5271 9.41683 50.5637 9.60481 50.5894 9.77109L50.026 10.0295C49.9815 9.86243 49.9238 9.67116 49.853 9.45573C49.7871 9.23579 49.7221 9.05128 49.6578 8.90219ZM43.2425 11.7143L43.4472 11.0792C43.7761 11.1125 44.1231 11.1607 44.4884 11.2239C44.8492 11.2821 45.1459 11.3494 45.3785 11.4256L45.2069 12.1118C45.0488 12.0576 44.8576 12.0068 44.6332 11.9592C44.4088 11.9117 44.1747 11.8684 43.9311 11.8294C43.6878 11.781 43.4583 11.7426 43.2425 11.7143ZM44.3219 13.4107L45.8409 12.0192L46.2664 12.4837L44.7475 13.8753L44.3219 13.4107ZM48.7356 15.5787C49.1852 15.7635 49.6123 15.8152 50.0169 15.7339C50.4265 15.648 50.843 15.4563 51.2666 15.1587C51.6856 14.8561 52.1432 14.4822 52.6393 14.0368C52.8998 13.7981 53.1779 13.5342 53.4737 13.2452C53.7744 12.9517 54.0726 12.6604 54.3684 12.3713C54.6646 12.0729 54.9292 11.7943 55.1623 11.5355C55.1688 11.6019 55.1868 11.6758 55.2163 11.7573C55.2552 11.8392 55.2963 11.9236 55.3397 12.0104C55.3831 12.0972 55.4224 12.1697 55.4576 12.2279C55.2355 12.4494 54.9914 12.6912 54.7251 12.9532C54.4683 13.2156 54.1948 13.4797 53.9048 13.7454C53.6242 14.0115 53.3462 14.2706 53.071 14.5228C52.6384 14.9191 52.2343 15.2577 51.8586 15.5385C51.4879 15.8148 51.1248 16.0254 50.7693 16.1703C50.4187 16.3106 50.0595 16.3775 49.6918 16.3708C49.3289 16.3596 48.9391 16.2647 48.5222 16.086L48.7356 15.5787ZM47.2943 14.0646L47.4491 13.9228L47.5382 13.8276L47.8767 13.6938C48.4756 14.5646 48.8808 15.3869 49.0923 16.1605C49.3087 16.9297 49.3607 17.628 49.2483 18.2553C49.1877 18.2385 49.1103 18.228 49.0161 18.2239C48.9313 18.2202 48.8418 18.2163 48.7476 18.2122C48.6629 18.2085 48.5896 18.2123 48.5277 18.2238C48.6524 17.6394 48.6213 17.0034 48.4343 16.3157C48.2474 15.6281 47.8966 14.9097 47.3821 14.1605L47.2943 14.0646ZM46.6279 15.7058L46.2361 15.2781L46.3799 14.9022L47.5302 13.8485L47.9423 14.2982L46.9616 15.1967C46.8731 15.2777 46.7959 15.3711 46.7299 15.4767C46.6644 15.5729 46.6303 15.6493 46.6279 15.7058ZM46.6279 15.7058C46.5775 15.6706 46.5083 15.6345 46.4203 15.5976C46.3371 15.5562 46.254 15.5149 46.1709 15.4735C46.0878 15.4321 46.0182 15.4054 45.9621 15.3935C46.0075 15.3248 46.0438 15.2509 46.0709 15.1718C46.0983 15.0834 46.11 14.9777 46.106 14.8549C46.1105 14.7512 46.0964 14.5878 46.0637 14.3646C46.036 14.1369 46.002 13.8877 45.962 13.617C45.9174 13.3414 45.8723 13.0799 45.8265 12.8325C45.7807 12.5851 45.7398 12.3875 45.7038 12.2397L45.6903 12.2249L45.785 12.0026L46.2949 11.8338C46.3288 12.0288 46.368 12.264 46.4126 12.5397C46.4576 12.8059 46.5017 13.0909 46.545 13.3948C46.5888 13.6893 46.6257 13.9764 46.656 14.2561C46.6911 14.5313 46.7135 14.7729 46.7233 14.981C46.7233 14.981 46.7124 15.0135 46.6907 15.0786C46.6694 15.1343 46.6497 15.2066 46.6317 15.2955C46.6091 15.3794 46.5937 15.4613 46.5855 15.5412C46.5777 15.6116 46.5918 15.6665 46.6279 15.7058Z" fill="white"/>
</g>
<defs>
<clipPath id="clip0_2163_7272">
<rect width="340" height="122" fill="white"/>
</clipPath>
</defs>
</svg>
