<svg xmlns="http://www.w3.org/2000/svg" xmlns:xlink="http://www.w3.org/1999/xlink" width="1080" zoomAndPan="magnify" viewBox="0 0 810 809.999993" height="1080" preserveAspectRatio="xMidYMid meet" version="1.0"><rect x="-81" width="972" fill="#ffffff" y="-80.999999" height="971.999992" fill-opacity="1"/><rect x="-81" width="972" fill="#003e52" y="-80.999999" height="971.999992" fill-opacity="1"/><path fill="#fffaf3" d="M 482.21875 640.457031 C 593.539062 649.199219 591.792969 593.25 591.792969 593.25 C 665.808594 546.621094 609.859375 456.285156 609.859375 456.285156 C 620.933594 352.542969 600.535156 312.910156 600.535156 312.910156 C 609.859375 230.730469 584.796875 209.75 584.796875 209.75 C 559.152344 111.25 520.6875 109.503906 520.6875 109.503906 C 514.859375 99.011719 500.289062 89.105469 488.046875 85.023438 C 475.808594 80.945312 477.558594 107.753906 477.558594 107.753906 C 420.441406 75.699219 417.527344 85.023438 417.527344 85.023438 C 424.519531 90.851562 435.011719 128.152344 435.011719 128.152344 C 406.453125 154.378906 409.367188 217.910156 409.367188 217.910156 C 427.433594 241.222656 437.925781 241.804688 437.925781 241.804688 C 437.925781 241.804688 424.519531 280.269531 430.929688 305.332031 C 430.929688 305.332031 308.539062 488.339844 382.558594 617.144531 C 382.558594 617.144531 310.285156 685.335938 240.347656 660.855469 C 170.40625 636.378906 240.347656 517.480469 240.347656 517.480469 C 240.347656 517.480469 248.039062 489.621094 220.53125 509.320312 C 175.070312 541.960938 144.179688 696.757812 217.851562 706.667969 C 422.65625 734.292969 442.703125 637.308594 482.21875 640.457031 Z M 482.21875 640.457031 " fill-opacity="1" fill-rule="nonzero"/></svg>