<svg xmlns="http://www.w3.org/2000/svg" xmlns:xlink="http://www.w3.org/1999/xlink" width="1080" zoomAndPan="magnify" viewBox="0 0 810 809.999993" height="1080" preserveAspectRatio="xMidYMid meet" version="1.0"><rect x="-81" width="972" fill="#ffffff" y="-80.999999" height="971.999992" fill-opacity="1"/><rect x="-81" width="972" fill="#003e52" y="-80.999999" height="971.999992" fill-opacity="1"/><path fill="#fffaf3" d="M 645.699219 355.296875 C 642.863281 347.296875 637.363281 340.566406 631.964844 334.015625 C 622.804688 322.90625 613.492188 311.644531 601.675781 303.414062 C 586.328125 292.722656 568.226562 288.03125 549.46875 285.871094 C 549.097656 258.027344 543.058594 225.984375 540.539062 219.3125 C 511.640625 142.789062 468.511719 99.964844 460.183594 104.625 C 451.253906 109.621094 438.84375 164.046875 467.683594 231.222656 C 470.300781 237.320312 473.035156 243.238281 475.832031 248.960938 C 461.171875 236.175781 445.488281 224.800781 428.78125 214.835938 C 412.078125 204.871094 394.617188 196.472656 376.402344 189.640625 C 369.53125 187.078125 362.574219 184.746094 355.617188 182.414062 C 352.832031 181.480469 349.410156 180.671875 347.246094 182.65625 C 345.449219 184.304688 345.457031 187.097656 345.679688 189.527344 C 350.5625 242.265625 394 283.636719 440.558594 308.882812 C 447.363281 312.574219 454.289062 316.035156 461.210938 319.492188 C 463.691406 320.730469 466.304688 322.09375 467.710938 324.484375 C 469.171875 326.96875 469.023438 330.046875 468.828125 332.921875 C 467.800781 348.101562 466.773438 363.277344 465.75 378.453125 C 465.609375 380.527344 465.417969 382.738281 464.136719 384.367188 C 462.042969 387.039062 458.0625 386.453125 454.695312 386.832031 C 401.078125 392.898438 365.984375 393.28125 332.113281 404.269531 C 235.582031 435.585938 189.40625 508.726562 196.414062 594.605469 C 194.710938 598.933594 167.519531 597.582031 164.507812 605.195312 C 161.496094 612.8125 162.941406 621.488281 165.652344 629.214844 C 178.269531 665.195312 219.585938 684.3125 253.871094 671.125 C 246.839844 697.058594 265.421875 703.878906 272.773438 704.457031 C 321.742188 708.316406 394.53125 708.738281 430.703125 707.945312 C 435.414062 707.84375 453.753906 706.246094 441.125 687.832031 C 430.574219 672.445312 399.808594 668.941406 393.214844 667.070312 C 411.941406 665.980469 422.917969 643.875 431.453125 627.171875 C 439.988281 610.46875 440.246094 601.679688 463.628906 597.488281 C 468.5625 608.207031 472.585938 619.257812 475.699219 630.636719 C 478.8125 642.019531 480.972656 653.578125 482.183594 665.316406 C 483.167969 674.929688 483.679688 685.140625 489.125 693.125 C 499.644531 708.550781 522.148438 710.140625 540.6875 707.945312 C 545.632812 707.363281 551.523438 703.953125 553.1875 699.265625 C 554.714844 694.949219 551.652344 690.5 548.96875 686.789062 C 523.851562 652.035156 519.628906 603.308594 538.40625 564.757812 C 545.179688 550.839844 554.597656 538.371094 561.902344 524.726562 C 565.300781 518.347656 568.21875 511.761719 570.660156 504.960938 C 573.101562 498.160156 575.039062 491.222656 576.472656 484.140625 C 577.90625 477.058594 578.824219 469.914062 579.222656 462.699219 C 579.621094 455.484375 579.496094 448.28125 578.851562 441.085938 C 577.984375 431.65625 576.621094 420.886719 582.988281 413.882812 C 585.429688 411.195312 602.710938 412.628906 615.96875 406.246094 C 633.648438 397.726562 639.667969 383.039062 642.734375 379.429688 C 648.226562 372.957031 648.539062 363.296875 645.699219 355.296875 Z M 645.699219 355.296875 " fill-opacity="1" fill-rule="nonzero"/></svg>