<svg xmlns="http://www.w3.org/2000/svg" xmlns:xlink="http://www.w3.org/1999/xlink" width="1080" zoomAndPan="magnify" viewBox="0 0 810 809.999993" height="1080" preserveAspectRatio="xMidYMid meet" version="1.0"><rect x="-81" width="972" fill="#ffffff" y="-80.999999" height="971.999992" fill-opacity="1"/><rect x="-81" width="972" fill="#003e52" y="-80.999999" height="971.999992" fill-opacity="1"/><path fill="#fffaf3" d="M 310.5625 234.835938 C 311.753906 233.84375 310.925781 232.492188 311.273438 231.351562 C 311.273438 231.179688 310.964844 230.871094 310.75 230.5625 C 311.59375 227.886719 311.046875 226.988281 306.960938 214.496094 C 305.007812 208.496094 302.835938 207.910156 300.640625 191.320312 C 298.996094 178.828125 301.257812 172.066406 299.746094 170.832031 C 297.777344 173.378906 300.105469 174.648438 295.941406 186.257812 C 295.433594 187.597656 295.820312 186.257812 293.894531 194.371094 C 291.511719 204.441406 287.722656 212.355469 284.414062 220.949219 C 282.273438 226.507812 275.722656 237.230469 270.691406 238.945312 C 264.074219 241.207031 270.128906 228.808594 260.621094 216.90625 C 259.523438 215.566406 258.679688 213.933594 257.554688 212.582031 C 248.289062 201.46875 251.289062 206.222656 246.082031 197.851562 C 241.003906 189.738281 238.648438 186.765625 235.195312 169.734375 C 232.957031 158.675781 235.085938 159.53125 233.855469 156.976562 C 232.878906 154.941406 236.238281 152.957031 243.683594 144.925781 C 246.039062 142.355469 249.441406 142.421875 254.261719 138.230469 C 257.96875 134.988281 265.667969 130.195312 271.667969 126.03125 C 282.03125 118.777344 276.285156 122.378906 281.882812 119.003906 C 297.855469 109.375 298.632812 110.96875 302.597656 107.476562 C 306.492188 105.125 310.507812 103.003906 314.648438 101.113281 C 321.890625 97.96875 321.691406 102.453125 330.621094 100.726562 C 343.742188 98.15625 368.648438 81.3125 400.191406 92.371094 C 408.140625 95.175781 415.417969 99.191406 422.03125 104.421875 C 425.804688 107.542969 431.738281 111.640625 435.042969 114.90625 C 437.257812 117.050781 439.707031 118.878906 442.390625 120.390625 C 445.074219 121.902344 447.90625 123.050781 450.882812 123.835938 C 453.121094 124.332031 453.429688 123.835938 455.945312 125.777344 C 459.976562 129.058594 463.734375 132.628906 467.21875 136.488281 C 469.667969 139.621094 472.894531 141.617188 474.328125 143.292969 C 500.734375 174.410156 509.140625 185.214844 510.332031 186.6875 C 516.945312 194.558594 513.492188 187.570312 520.871094 202.648438 C 522.0625 205.082031 520.75 205.925781 520.871094 207.507812 C 521.445312 213.597656 508.820312 229.960938 508.820312 229.972656 C 505.902344 234.6875 496.515625 243.363281 487.464844 247.730469 C 484.195312 249.28125 478.988281 251.53125 475.921875 253.085938 C 475.050781 253.609375 474.257812 254.234375 473.539062 254.957031 C 466.765625 259.792969 468.101562 264.878906 466.066406 266.488281 C 465.789062 266.832031 465.648438 267.222656 465.640625 267.664062 C 465.398438 269.351562 463.296875 271.28125 461.40625 269.96875 C 460.007812 268.8125 458.808594 267.476562 457.804688 265.964844 C 456.800781 264.453125 456.039062 262.828125 455.515625 261.089844 C 451.875 246.214844 450.160156 252.09375 448.058594 212.125 C 448.058594 211 447.75 209.875 447.722656 208.753906 C 447.46875 200.570312 447.722656 200.050781 447.324219 196.941406 C 445.984375 197.371094 445.890625 198.390625 444.820312 201.777344 C 440.375 215.714844 440.800781 214.859375 439.664062 216.664062 C 436.503906 221.914062 436.824219 223.960938 435.578125 226.183594 C 435.472656 226.371094 435.3125 226.613281 435.351562 226.789062 C 435.6875 228.046875 434.804688 229.023438 434.644531 230.121094 C 434.324219 231.171875 433.902344 232.175781 433.371094 233.132812 C 433.117188 233.882812 432.957031 234.660156 432.703125 235.398438 C 432.070312 237.136719 431.09375 239.414062 431 239.867188 C 430.667969 241.597656 429.796875 246.324219 429.796875 246.335938 C 429.636719 256.152344 429.996094 256.472656 428.910156 258.386719 C 426.78125 262.164062 428.910156 264.960938 428.457031 265.695312 C 428 266.433594 428.242188 267.34375 428.390625 268.1875 C 429.019531 271.917969 430.152344 275.488281 431.789062 278.898438 C 447.550781 310.230469 452.464844 307.015625 459.910156 333.996094 C 460.324219 335.523438 462.933594 345.191406 463.042969 347.144531 C 463.175781 349.367188 464.113281 351.441406 465.035156 356.933594 C 465.378906 359.488281 466.296875 361.820312 467.792969 363.921875 C 469.226562 365.847656 470.3125 368.046875 471.609375 370.09375 C 487.128906 394.503906 491.398438 397.582031 497.960938 411.253906 C 502.632812 420.972656 507.628906 433.464844 509.273438 436.4375 C 513.292969 443.695312 514.9375 455.023438 514.953125 455.035156 C 517.976562 469.441406 517.910156 461.730469 519.867188 477.570312 C 521.367188 489.847656 523.65625 487.945312 523.441406 495.527344 C 523.09375 507.386719 522.972656 511.003906 527.175781 514.804688 C 529.875 517.390625 532.859375 519.597656 536.121094 521.421875 C 538.132812 522.410156 539.917969 523.707031 541.480469 525.316406 C 543.042969 526.925781 544.285156 528.75 545.210938 530.792969 C 550.140625 542.121094 546.644531 543.042969 549.496094 550.714844 C 552.738281 559.378906 558.683594 562.070312 560.835938 577.828125 C 563.289062 595.8125 545.171875 631.761719 541.25 641.402344 C 533.777344 659.800781 533.589844 659.316406 529.640625 666.214844 C 527.550781 669.839844 528.757812 669.574219 526.46875 675.585938 C 523.519531 683.351562 523.320312 685.386719 525.128906 693.820312 C 525.183594 694.132812 525.28125 694.425781 525.433594 694.699219 C 525.582031 694.976562 525.769531 695.222656 525.996094 695.4375 C 526.222656 695.65625 526.480469 695.828125 526.765625 695.964844 C 527.050781 696.097656 527.347656 696.179688 527.660156 696.21875 C 532.613281 697.117188 549.617188 701.320312 565.832031 699.59375 C 567.910156 699.351562 569.917969 699.628906 571.855469 700.421875 C 577.640625 702.78125 578.285156 703.007812 577.28125 705.242188 C 571.589844 717.816406 548.15625 714.789062 531.074219 717.078125 C 527.726562 717.535156 526.574219 716.570312 525.863281 718.417969 C 522.785156 726.453125 514.953125 726.691406 476.980469 725.113281 C 474.597656 725.003906 475.828125 727.789062 470.996094 727.871094 C 451.847656 728.257812 446.078125 728.675781 420.863281 728.527344 C 418.105469 728.527344 418.308594 728.164062 409.75 727.695312 C 407.234375 727.5625 404.691406 727.46875 402.171875 727.296875 C 401.722656 727.257812 401.277344 727.179688 400.839844 727.058594 C 400.402344 726.9375 399.980469 726.777344 399.574219 726.582031 C 399.167969 726.382812 398.78125 726.148438 398.417969 725.875 C 398.054688 725.605469 397.71875 725.304688 397.414062 724.972656 C 397.105469 724.636719 396.832031 724.28125 396.589844 723.894531 C 396.351562 723.511719 396.148438 723.109375 395.980469 722.6875 C 395.816406 722.265625 395.691406 721.832031 395.605469 721.386719 C 395.523438 720.941406 395.480469 720.492188 395.480469 720.039062 C 395.480469 719.394531 395.386719 718.765625 395.316406 717.976562 C 391.140625 717.65625 402.816406 717.976562 347.425781 717.667969 C 313.816406 717.453125 315.0625 716.933594 314.527344 718.671875 C 312.332031 725.847656 304.566406 723.480469 291.390625 723.425781 C 250.058594 723.265625 257.394531 723.34375 239.089844 721.457031 C 232.839844 720.800781 235.074219 717.011719 233.09375 714.667969 C 231.847656 713.25 234.792969 711.457031 234.847656 709.621094 C 234.953125 706.113281 237.164062 704.347656 242.222656 697.117188 C 245.007812 693.097656 248.851562 687.128906 250.632812 684.851562 C 254.410156 679.992188 257.460938 682.800781 259.1875 678.34375 C 260.234375 675.664062 265.667969 669.132812 266.164062 650.078125 C 266.433594 639.582031 266.511719 642.351562 268.039062 635.589844 C 269.390625 624.945312 269.964844 614.253906 269.753906 603.523438 C 269.6875 598.675781 268.734375 586.601562 269.992188 582.101562 C 271.039062 578.378906 271.640625 563.890625 271.574219 561.734375 C 271.132812 547.835938 271.464844 551.8125 271.332031 547.554688 C 271.332031 545.640625 270.648438 542.761719 270.703125 542.28125 C 270.8125 539.597656 270.742188 536.921875 270.488281 534.246094 C 270.382812 530.429688 270.488281 526.601562 270.25 522.800781 C 269.804688 515.421875 268.121094 507.121094 269.054688 500.144531 C 271.558594 481.507812 266.808594 486.167969 272.699219 468.652344 C 273.824219 465.320312 275.699219 464.019531 275.066406 461.15625 C 274.492188 458.476562 274.585938 454.929688 272.84375 449.34375 C 270.792969 443.59375 269.324219 437.695312 268.441406 431.652344 C 267.5625 425.605469 267.285156 419.535156 267.609375 413.433594 C 267.609375 413.433594 266.792969 405.964844 268.949219 374.246094 C 269.21875 370.429688 272.378906 354.496094 272.792969 353.332031 C 278.601562 337.023438 277.078125 341.386719 279.914062 334.585938 C 283.261719 326.632812 282.753906 327.675781 282.886719 327.433594 C 296.988281 303.226562 298.753906 302.800781 299.234375 297.980469 C 299.671875 295.773438 300.230469 293.601562 300.910156 291.457031 C 301.472656 288.914062 303.988281 287.976562 308.246094 272.941406 C 308.929688 271.074219 309.46875 269.167969 309.867188 267.222656 C 310.160156 264.773438 310.441406 262.308594 310.953125 259.898438 C 311.464844 256.984375 311.402344 254.085938 310.765625 251.195312 C 310.589844 245.320312 311.472656 243.015625 310.765625 240.097656 C 310.574219 239.269531 310.601562 238.445312 310.84375 237.632812 C 311.113281 236.777344 310.136719 235.945312 310.925781 235.15625 Z M 319.546875 633.0625 C 319.445312 633.347656 319.375 633.640625 319.332031 633.945312 C 318.933594 645.632812 318.421875 644.738281 318.113281 647.574219 C 315.984375 667.269531 317.953125 668.863281 317.136719 671.851562 C 316.90625 672.886719 316.882812 673.929688 317.058594 674.976562 C 317.234375 676.023438 317.597656 676.996094 318.15625 677.902344 C 318.71875 679.066406 319.011719 679.148438 320.335938 678.917969 C 325.789062 678.007812 325.894531 678.917969 329.214844 677.582031 C 338.023438 674.191406 339.644531 673.628906 343.152344 673 C 345.578125 672.558594 345.015625 670.753906 346.714844 669.574219 C 349.3125 667.78125 346.714844 665.957031 347.570312 661.367188 C 347.960938 659.195312 346.914062 658.300781 339.859375 652.152344 C 335.332031 648.21875 337.289062 651.191406 331.492188 646.503906 C 329.214844 644.667969 326.710938 643.078125 324.890625 640.625 C 319 632.699219 320.6875 632.792969 319.546875 633.0625 Z M 407.367188 682.722656 C 408.089844 681.945312 407.929688 683.003906 409.324219 676.496094 C 409.523438 675.570312 408.960938 675.304688 405.507812 673.164062 C 405.066406 672.894531 404.609375 672.679688 403.914062 672.320312 C 403.875 676.363281 405.535156 679.457031 407.367188 682.722656 Z M 407.367188 682.722656 " fill-opacity="1" fill-rule="nonzero"/></svg>