<svg xmlns="http://www.w3.org/2000/svg" xmlns:xlink="http://www.w3.org/1999/xlink" width="1080" zoomAndPan="magnify" viewBox="0 0 810 809.999993" height="1080" preserveAspectRatio="xMidYMid meet" version="1.0"><rect x="-81" width="972" fill="#ffffff" y="-80.999999" height="971.999992" fill-opacity="1"/><rect x="-81" width="972" fill="#003e52" y="-80.999999" height="971.999992" fill-opacity="1"/><path fill="#fffaf3" d="M 488.800781 604.421875 C 495.753906 590.550781 501.9375 576.480469 506.847656 561.109375 C 515.804688 532.867188 522.324219 503.1875 521.957031 473.445312 C 521.289062 418.867188 524.195312 403.992188 524.996094 400.984375 C 525.0625 400.75 525.398438 400.683594 525.53125 400.917969 C 529.175781 407.300781 560.390625 465.757812 577.601562 508.203125 C 599.328125 561.742188 621.152344 500.847656 620.917969 482.367188 C 620.550781 454.394531 584.320312 353.59375 557.75 320.171875 C 531.148438 286.75 520.652344 280.300781 516.105469 269.640625 C 511.5625 259.011719 509.15625 229 499.261719 214.191406 C 489.402344 199.386719 485.324219 174.6875 495.585938 166.332031 C 505.847656 157.976562 507.984375 153.667969 514.4375 151.894531 C 520.820312 150.15625 534.621094 147.882812 537.863281 144.777344 C 537.929688 144.710938 537.964844 144.609375 537.929688 144.507812 C 537.664062 143.207031 535.523438 134.113281 526.835938 132.144531 C 517.476562 130.003906 500.132812 132.410156 497.960938 131.640625 C 495.820312 130.871094 479.679688 96.582031 442.046875 101.761719 C 421.625 104.570312 405.75 114.394531 391.613281 129.570312 C 375 147.382812 360.027344 167.167969 346.894531 187.65625 C 331.417969 211.820312 318.484375 237.585938 308.425781 264.425781 C 303.746094 276.925781 294.15625 286.683594 286.367188 297.246094 C 278.113281 308.40625 270.191406 319.769531 262.90625 331.601562 C 248.265625 355.398438 235.933594 380.597656 226.140625 406.769531 C 218.1875 428.058594 211.804688 449.882812 205.585938 471.738281 C 201.511719 486.011719 196.128906 499.246094 193.289062 516.523438 C 191.984375 524.410156 188.84375 546.101562 193.488281 546.902344 C 194.925781 547.171875 207.425781 533.871094 209.699219 524.476562 C 211.972656 515.121094 228.683594 469.667969 232.492188 460.277344 C 236.300781 450.917969 258.828125 399.882812 271.226562 382.167969 C 279.25 370.707031 282.65625 364.925781 284.09375 362.25 C 284.261719 361.949219 284.695312 362.117188 284.628906 362.449219 C 282.15625 375.585938 275.539062 432.203125 277.078125 470.9375 C 278.3125 502.554688 277.578125 533.234375 279.851562 544.128906 C 282.125 555.027344 289.207031 591.222656 290.980469 605.660156 C 292.75 620.097656 298.699219 628.585938 303.78125 635.90625 C 305.71875 638.714844 321.226562 653.484375 322.761719 654.222656 C 322.832031 654.253906 322.898438 654.320312 322.929688 654.421875 C 323.199219 655.824219 326.675781 666.351562 326.90625 671.699219 C 327.175781 677.382812 330.75 681.859375 329.847656 685.671875 C 328.945312 689.480469 326.574219 693.925781 327.710938 696.199219 C 328.847656 698.472656 336.566406 702.28125 340.746094 704.285156 C 344.921875 706.324219 350.101562 713.410156 354.046875 709.367188 C 357.957031 705.324219 360.628906 701.644531 362.132812 701.378906 C 363.636719 701.109375 368.21875 700.476562 371.757812 701.378906 C 375.300781 702.28125 379.847656 705.691406 383.15625 705.824219 C 386.433594 705.957031 394.820312 705.457031 395.824219 704.421875 C 396.59375 703.652344 394.117188 700.542969 392.847656 699.039062 C 392.648438 698.804688 392.882812 698.472656 393.148438 698.570312 C 394.988281 699.207031 398.699219 700.507812 399.464844 700.609375 C 400.367188 700.710938 403.609375 699.507812 404.277344 699.273438 C 404.34375 699.238281 404.414062 699.171875 404.445312 699.105469 L 405.179688 696.898438 C 405.25 696.734375 405.414062 696.667969 405.582031 696.734375 C 406.617188 697.269531 410.0625 698.871094 411.230469 697.46875 C 412.632812 695.832031 404.511719 687.476562 397.695312 687.339844 C 390.84375 687.207031 377.675781 683.164062 374.398438 682.664062 C 371.125 682.160156 366.78125 679.152344 362.871094 676.578125 C 356.21875 672.203125 354.246094 656.558594 354.246094 656.558594 C 354.246094 656.558594 353.277344 649.707031 353.476562 649.910156 C 354.949219 651.414062 358.492188 651.113281 360.195312 650.710938 C 362.335938 650.210938 377.339844 649.808594 380.449219 651.714844 C 383.890625 653.820312 393.117188 648.941406 394.621094 649.308594 C 396.125 649.675781 400.535156 651.144531 402.039062 652.082031 C 403.742188 653.152344 410.59375 651.078125 413.871094 649.675781 C 417.144531 648.273438 422.726562 648.40625 423.628906 650.109375 C 424.097656 651.011719 427.808594 647.769531 429.945312 646.867188 C 432.085938 645.964844 435.394531 645.867188 435.894531 647.136719 C 436.332031 648.203125 436.363281 651.214844 436.261719 651.980469 C 436.261719 652.117188 436.597656 671.800781 432.554688 672.769531 C 423.832031 674.875 416.578125 673.539062 424.632812 680.558594 C 430.613281 685.769531 427.003906 689.179688 430.046875 690.816406 C 433.089844 692.457031 444.984375 696.5 447.023438 697.035156 C 448.996094 697.535156 455.179688 698.136719 456.316406 691.351562 C 456.351562 691.152344 456.582031 691.019531 456.75 691.152344 C 457.386719 691.621094 459.023438 692.554688 462.699219 693.359375 C 468.015625 694.492188 479.910156 693.492188 484.992188 695.261719 C 490.003906 697 497.359375 696.800781 497.523438 696.765625 C 497.660156 696.765625 501.335938 696.398438 502.839844 696.5 C 504.34375 696.632812 502.335938 691.6875 501.703125 690.917969 C 501.066406 690.148438 523.996094 693.191406 524.730469 692.1875 C 525.230469 691.519531 525.53125 690.882812 525.664062 690.550781 C 525.734375 690.417969 525.867188 690.347656 526.035156 690.382812 C 527.003906 690.71875 530.277344 691.855469 530.847656 691.285156 C 531.480469 690.648438 527.671875 680.789062 516.410156 676.714844 C 508.320312 673.804688 506.28125 675.308594 502.371094 674.171875 C 498.460938 673.039062 488.433594 670.128906 484.257812 668.992188 C 480.078125 667.855469 475.535156 666.953125 473.863281 665.816406 C 472.226562 664.683594 469.953125 663.277344 470.1875 662.007812 C 472.15625 651.882812 468.882812 641.585938 473.996094 632.164062 C 479.175781 622.839844 484.15625 613.679688 488.800781 604.421875 Z M 488.800781 604.421875 " fill-opacity="1" fill-rule="nonzero"/></svg>