<svg xmlns="http://www.w3.org/2000/svg" xmlns:xlink="http://www.w3.org/1999/xlink" width="1080" zoomAndPan="magnify" viewBox="0 0 810 809.999993" height="1080" preserveAspectRatio="xMidYMid meet" version="1.0"><defs><clipPath id="770e3fc304"><path d="M 105.570312 139 L 704 139 L 704 672 L 105.570312 672 Z M 105.570312 139 " clip-rule="nonzero"/></clipPath></defs><rect x="-81" width="972" fill="#ffffff" y="-80.999999" height="971.999992" fill-opacity="1"/><rect x="-81" width="972" fill="#003e52" y="-80.999999" height="971.999992" fill-opacity="1"/><g clip-path="url(#770e3fc304)"><path fill="#fffaf3" d="M 692.296875 258.265625 C 692.21875 257.933594 690.265625 251.609375 688.882812 249.765625 C 687.695312 248.15625 687.199219 246.1875 686.152344 244.503906 C 683.558594 240.28125 683.519531 237.722656 682.210938 235.167969 C 681.339844 233.484375 681.222656 231.5625 681.128906 229.707031 C 680.789062 227.082031 680.105469 224.515625 679.800781 221.886719 C 679.277344 216.992188 678.011719 216.121094 679.484375 213.257812 C 679.730469 213.664062 679.984375 214.078125 680.253906 214.480469 C 680.3125 214.160156 680.375 213.839844 680.4375 213.519531 C 680.65625 213.542969 680.886719 213.566406 681.121094 213.589844 C 681.214844 212.621094 681.285156 211.601562 680.730469 210.746094 C 680.203125 210.0625 680.789062 209.289062 680.683594 208.539062 C 680.460938 206.945312 679.972656 205.382812 679.140625 204 C 679.367188 202.972656 678.757812 201.996094 678.945312 200.988281 C 679.527344 201.1875 680.089844 201.816406 680.75 201.523438 C 680.335938 200.933594 679.765625 200.460938 679.421875 199.828125 C 679.351562 199.398438 679.363281 198.964844 679.347656 198.53125 C 679.828125 198.550781 680.316406 198.570312 680.8125 198.59375 C 680.152344 198.246094 679.503906 197.875 678.878906 197.488281 C 678.980469 197.316406 679.195312 196.976562 679.296875 196.808594 C 680.210938 197.425781 681.222656 197.992188 682.371094 197.898438 C 681.527344 197.339844 680.484375 196.996094 679.945312 196.078125 C 681.253906 196.265625 682.382812 196.988281 683.621094 197.390625 C 681.894531 195.820312 679.296875 195.117188 678.230469 192.894531 C 679.878906 193.511719 681.601562 194.414062 683.414062 194.007812 C 681.488281 193.164062 679.109375 193.078125 677.628906 191.417969 C 678.292969 191.363281 678.96875 191.304688 679.644531 191.257812 C 678.96875 190.96875 678.25 190.808594 677.519531 190.832031 C 677.21875 190.386719 676.917969 189.941406 676.632812 189.488281 C 677.792969 189.554688 678.925781 189.867188 679.976562 190.367188 C 679.511719 189.402344 678.441406 189.042969 677.765625 188.28125 C 676.515625 186.910156 675.972656 185.144531 671.347656 183.65625 C 670.917969 183.496094 670.972656 182.9375 670.824219 182.585938 C 672.078125 182.84375 673.359375 182.980469 674.644531 182.839844 C 674.488281 182.675781 674.175781 182.347656 674.019531 182.1875 C 672.941406 182.054688 671.730469 182.253906 670.855469 181.460938 C 671.367188 181.066406 671.960938 181.453125 672.507812 181.550781 C 672.992188 181.699219 673.503906 181.605469 674.007812 181.5625 C 672.914062 180.972656 671.5625 180.8125 670.695312 179.867188 C 670.324219 179.464844 669.828125 179.230469 669.347656 179 C 668.863281 178.816406 668.683594 178.292969 668.363281 177.933594 C 667.855469 177.25 666.796875 177.167969 666.488281 176.3125 C 664.304688 171.847656 662.816406 171.132812 662.050781 170.589844 C 664.148438 168.40625 667.941406 167.601562 666.980469 153.625 C 666.519531 146.898438 664.722656 143 662.839844 140.296875 C 661.363281 138.179688 658.507812 140.566406 657.210938 142.703125 C 655.339844 145.777344 655.242188 149.609375 652.621094 152.1875 C 647.175781 157.535156 649.5 157.296875 647.679688 156.5 C 643.019531 152.796875 633.660156 154.269531 630.8125 157.445312 C 630.335938 157.949219 630.382812 158.675781 630.167969 159.292969 C 629.933594 159.535156 629.65625 159.734375 629.40625 159.941406 C 628.464844 153.863281 625.558594 153.5 627.378906 145.683594 C 627.734375 144.140625 630.414062 142.800781 626.164062 141.515625 C 624.304688 140.953125 612.84375 148.394531 610.597656 166.496094 C 608.234375 166.976562 607.839844 165.972656 606.761719 166.628906 C 602.816406 168.484375 603.375 167.5625 598.964844 168.796875 C 597.972656 168.945312 596.933594 168.695312 595.972656 169.058594 C 592.554688 170.28125 591.449219 170.367188 588.941406 172.441406 C 588.011719 173.191406 582.175781 176.789062 579.5 179.972656 C 578.289062 181.453125 576.5625 182.347656 575.117188 183.566406 C 573.996094 184.421875 573.070312 185.507812 571.910156 186.300781 C 570.957031 186.40625 569.980469 186.273438 569.039062 186.503906 C 566.722656 186.917969 557.351562 195.398438 557.113281 195.734375 C 553.488281 200.867188 553.085938 199.625 551.726562 200.335938 C 550.761719 200.851562 550.015625 201.699219 549.015625 202.148438 C 548.441406 202.453125 547.78125 202.234375 547.179688 202.359375 C 539.089844 205.367188 540.761719 203.601562 536.941406 207.253906 C 536.480469 207.761719 529.839844 214.484375 528.921875 215.6875 C 528.101562 216.648438 527.625 217.914062 526.558594 218.648438 C 526.015625 218.808594 525.429688 218.742188 524.917969 218.976562 C 520.664062 220.820312 518.910156 222.757812 516.507812 225.492188 C 514.839844 226.972656 513.113281 228.445312 511.902344 230.34375 C 511.316406 231.089844 510.964844 232.207031 509.921875 232.410156 C 505.214844 233.605469 502.984375 237.203125 501.910156 237.964844 C 501.511719 238.035156 499.121094 237.585938 495.300781 240.953125 C 493.960938 242.105469 492.558594 243.207031 491.421875 244.5625 C 490.5625 245.582031 490.695312 246.449219 489.578125 247.378906 C 486.191406 250.210938 486.085938 248 482.109375 252.960938 C 477.570312 252.824219 467.167969 257.121094 465.863281 258.152344 C 464.132812 259.339844 463.191406 261.300781 461.597656 262.625 C 461.261719 262.90625 455.8125 267.378906 453.722656 268.539062 C 452.652344 269.136719 444.175781 279.265625 440.820312 280.121094 C 426.644531 283.742188 413.035156 317.683594 287.082031 285.035156 C 283.3125 284.058594 286.792969 283.675781 279.035156 281.878906 C 278.15625 281.675781 272.050781 280.269531 269.875 279.726562 C 244.496094 273.425781 228.167969 275.882812 224.644531 279.074219 C 221.085938 279.878906 200.820312 288.964844 198.832031 289.40625 C 191.667969 291.140625 181.78125 296.992188 171.625 302.507812 C 171.292969 302.585938 165.433594 303.363281 157.984375 307.453125 C 158.234375 307.648438 158.585938 307.785156 158.664062 308.132812 C 157.675781 308.390625 156.589844 308.359375 155.734375 308.992188 C 154.820312 309.613281 153.800781 310.082031 152.675781 310.097656 C 152.617188 310.308594 152.5625 310.523438 152.503906 310.742188 C 149.785156 311.710938 147.222656 313.164062 144.789062 314.734375 C 145.273438 314.816406 145.757812 314.890625 146.242188 314.980469 C 143.113281 316.386719 142.699219 316.667969 140.414062 319.324219 C 141.316406 319.148438 142.179688 318.832031 143.070312 318.597656 C 140.398438 321.855469 136.042969 320.453125 131.738281 328.101562 C 132.882812 326.410156 134.347656 324.613281 136.492188 324.277344 C 134.917969 327.683594 131.765625 327.539062 129.742188 333.109375 C 130.921875 331.195312 132.25 329.230469 134.199219 328.035156 C 133.464844 330.320312 129.304688 333.164062 127.363281 339.410156 C 128.40625 336.628906 130.230469 334.253906 132.265625 332.132812 C 131.726562 334.378906 129.714844 335.9375 129.371094 338.25 C 130.320312 337.179688 131.203125 336.03125 131.886719 334.769531 C 132.132812 334.304688 132.457031 333.878906 132.851562 333.535156 C 132.492188 335.050781 131.179688 336.039062 130.46875 337.371094 C 126.15625 345.183594 128.628906 344 123.003906 353.585938 C 121.207031 356.613281 123.390625 356.148438 119.800781 359.488281 C 120.023438 359.5 120.472656 359.523438 120.695312 359.535156 C 119.632812 360.6875 118.304688 361.558594 116.832031 362.089844 C 118.222656 361.78125 119.5 361.15625 120.746094 360.488281 C 120.621094 360.875 120.488281 361.261719 120.359375 361.65625 C 120.957031 361.273438 121.558594 360.902344 122.1875 360.582031 C 122.011719 361.722656 121.046875 362.4375 120.542969 363.414062 C 121.058594 363.1875 121.550781 362.917969 122.039062 362.644531 C 120.492188 365.550781 116.621094 369.085938 112.832031 370.550781 C 116.875 369.769531 116.792969 368.761719 118.960938 367.597656 C 118.042969 369.988281 115.96875 371.710938 115 374.074219 C 116.960938 372.40625 120.921875 365.882812 121.6875 364.992188 C 120.132812 369.578125 117.34375 371.828125 116.382812 373.660156 C 115.375 376.160156 114.269531 378.699219 114.222656 381.449219 C 115.300781 380.066406 114.917969 378.515625 116.25 375.960938 C 116.421875 382.761719 108.675781 391.976562 105.574219 398.472656 C 105.707031 398.253906 113.3125 386.878906 113.703125 386.539062 C 113.527344 387.386719 113.226562 388.203125 113.007812 389.042969 C 113.28125 388.804688 113.558594 388.566406 113.835938 388.332031 C 109.128906 399.546875 105.882812 398.984375 106.125 402.574219 C 106.53125 401.945312 106.882812 401.289062 107.296875 400.671875 C 107.222656 401.953125 106.316406 403.019531 106.367188 404.316406 C 108.703125 401.179688 108.429688 399.714844 112.992188 393 C 112.894531 393.332031 110.207031 402.789062 108.714844 404.40625 C 107.6875 405.566406 106.847656 407.042969 106.976562 408.644531 C 107.695312 407.632812 107.933594 406.355469 108.742188 405.394531 C 108.6875 407.320312 108.140625 409.265625 108.65625 411.179688 C 108.855469 412.234375 109.511719 413.160156 109.664062 414.222656 C 109.210938 416.398438 107.648438 418.261719 107.632812 420.539062 C 108.023438 419.855469 108.351562 419.132812 108.6875 418.417969 C 108.679688 421.851562 108.484375 425.402344 109.796875 428.65625 C 110.082031 428.863281 110.429688 429.023438 110.636719 429.328125 C 111.121094 431.636719 110.082031 433.875 110.191406 436.179688 C 110.214844 438.84375 108.101562 443.152344 109.84375 446.300781 C 110.121094 444.308594 109.066406 444.078125 110.605469 438.332031 C 111.015625 440.832031 111.769531 443.359375 111.285156 445.90625 C 111.046875 448.265625 110.003906 450.480469 109.925781 452.863281 L 109.714844 452.890625 C 109.75 451.304688 109.484375 449.636719 110.269531 448.175781 C 110.011719 448.3125 109.757812 448.449219 109.503906 448.59375 C 108.871094 451.492188 109.417969 454.480469 108.980469 457.398438 C 108.855469 458.546875 109.632812 459.644531 109.25 460.789062 C 109.007812 461.800781 109.265625 462.839844 109.222656 463.867188 C 109.167969 466.554688 108.125 466.824219 109.160156 469.738281 C 109.242188 468.398438 109.039062 467 109.636719 465.75 C 110.765625 471.261719 106.882812 474.4375 109.621094 485.324219 C 110 486.71875 108.664062 488.039062 108.25 492.304688 C 108.25 492.304688 108.394531 494.003906 108.375 499.339844 C 108.308594 498.730469 108.214844 498.128906 108.160156 497.527344 C 108.421875 504.144531 108.796875 504.707031 109.4375 505.28125 C 109.332031 503.1875 108.761719 501.128906 108.945312 499.015625 C 110.324219 502.515625 109.433594 503.507812 110.785156 508.054688 C 112.027344 512.128906 110.9375 511.042969 111.605469 514.757812 C 111.875 516.371094 111.289062 517.945312 111.140625 519.542969 C 111.066406 519.96875 110.480469 524.921875 110.894531 528.738281 C 111.492188 538.570312 112.113281 529.515625 109.835938 544.445312 C 109.546875 546.105469 109.671875 547.796875 109.765625 549.46875 C 110.160156 545.734375 111.53125 537.769531 111.886719 536.417969 C 112.382812 538.464844 112 537.089844 111.902344 545.207031 C 111.902344 547.414062 112.828125 549.496094 112.949219 551.683594 C 112.582031 554.640625 108.859375 564.203125 108.867188 567.902344 C 108.816406 568.867188 109.003906 569.832031 108.953125 570.800781 C 107.917969 572.230469 106.792969 573.609375 105.882812 575.132812 C 107.09375 573.851562 108.234375 572.496094 109.519531 571.289062 C 112.476562 577.234375 111.082031 576.554688 111.1875 578.625 C 111.136719 580.527344 112.113281 582.214844 112.722656 583.957031 C 113.152344 585.964844 113.417969 588.0625 114.460938 589.871094 C 114.191406 588.988281 113.863281 588.105469 113.886719 587.171875 C 118.070312 591.226562 115.023438 589.78125 112.804688 596.128906 C 114.199219 594.761719 114.964844 592.917969 116.082031 591.34375 C 116.589844 591.914062 117.0625 592.511719 117.546875 593.105469 C 117.28125 591.933594 116.460938 590.660156 117.164062 589.492188 C 118.492188 587.203125 119.617188 584.796875 121.085938 582.585938 C 121.488281 583.925781 121.550781 585.519531 122.691406 586.496094 C 122.210938 584.699219 121.730469 582.882812 121.8125 581.007812 C 122.507812 582.203125 122.617188 583.726562 123.738281 584.664062 C 122.878906 581.570312 121.964844 580.691406 123.492188 576.410156 C 125.035156 578.480469 125.4375 586.234375 127.476562 587.90625 C 127.425781 585.238281 125.90625 586.199219 126.476562 579.3125 C 127.683594 580.855469 126.894531 581.113281 127.183594 584.21875 C 127.488281 583.316406 127.613281 582.371094 127.753906 581.4375 C 129.140625 583.664062 130.054688 586.152344 131.363281 588.425781 C 130.421875 586.453125 129.972656 584.285156 129.019531 582.316406 C 128.253906 580.539062 127.300781 579.933594 127.058594 574.800781 C 128.175781 576.582031 128.167969 578.824219 129.382812 580.566406 C 129.453125 579 128.066406 575.503906 127.488281 574.078125 C 127.09375 573.179688 127.925781 572.390625 128.300781 571.648438 C 128.789062 572.582031 128.996094 573.65625 129.625 574.519531 C 129.878906 574.960938 130.285156 575.359375 130.351562 575.890625 C 130.246094 577.050781 129.785156 578.191406 129.980469 579.378906 C 130.253906 580.828125 129.8125 582.476562 130.894531 583.683594 C 130.902344 581.332031 130.160156 578.898438 130.96875 576.605469 C 132.554688 578.683594 134.117188 580.777344 135.746094 582.820312 C 134.761719 581.015625 133.613281 579.308594 132.476562 577.597656 C 132.585938 577.515625 132.796875 577.355469 132.902344 577.273438 C 132.367188 576.257812 131.664062 575.273438 131.46875 574.132812 C 132.070312 571.875 132.8125 569.648438 133.84375 567.550781 C 135.113281 569.265625 133.378906 571.265625 134.03125 573.105469 C 134.59375 574.953125 135.367188 576.832031 136.699219 578.273438 C 136.625 577.335938 136.214844 576.484375 135.957031 575.601562 C 135.714844 574.902344 136.175781 574.265625 136.347656 573.621094 C 136.3125 572.597656 135.59375 571.574219 136.957031 569.257812 C 137.105469 570.023438 136.933594 570.921875 137.511719 571.554688 C 138.078125 568.574219 136.46875 569.503906 138.171875 564.84375 C 138.339844 565.828125 138.316406 566.851562 138.605469 567.816406 C 138.875 568.773438 139.375 569.660156 139.523438 570.652344 C 139.785156 573.351562 139.363281 576.078125 139.691406 578.769531 C 139.769531 578.664062 139.921875 578.445312 140 578.339844 C 141.914062 564.800781 136.429688 566.535156 140.757812 557.503906 C 141.644531 567.027344 141.898438 563.824219 142.648438 568.664062 C 142.710938 569.734375 142.550781 570.8125 142.644531 571.886719 C 144.253906 569.75 143.199219 570.070312 143.757812 568.621094 C 144.101562 567.652344 144.476562 566.679688 144.566406 565.652344 C 144.636719 564.566406 144.09375 563.46875 144.484375 562.40625 C 146.554688 556.304688 144.058594 556.445312 144.445312 549.175781 C 144.472656 548.875 145.417969 527.964844 145.417969 527.964844 C 145.617188 528.875 145.671875 529.804688 145.652344 530.738281 C 145.625 532.003906 146.046875 533.214844 146.253906 534.449219 C 145.988281 533.960938 145.710938 533.472656 145.390625 533.027344 C 145.238281 535.632812 146.335938 538.683594 146.265625 539.953125 C 146.433594 539.75 146.605469 539.550781 146.777344 539.359375 C 147.238281 542.742188 146.140625 546.066406 146.371094 549.445312 C 146.320312 551.039062 146.894531 552.570312 146.851562 554.164062 C 146.910156 556.898438 145.09375 579.460938 145.046875 579.792969 C 144.363281 583.605469 145.792969 596.90625 143.160156 606.429688 C 142.871094 607.761719 142.445312 609.144531 142.75 610.519531 C 143.351562 614.003906 141.996094 613.25 140.640625 617.789062 C 140.773438 620.671875 139.472656 623.386719 139.542969 626.269531 C 139.417969 628.585938 141.398438 632.875 142.828125 634.292969 C 142.296875 634.527344 141.757812 634.75 141.234375 635 C 142.0625 634.875 142.871094 634.546875 143.722656 634.625 C 144.015625 634.832031 144.277344 635.089844 144.546875 635.339844 C 144.402344 635.417969 144.113281 635.570312 143.964844 635.648438 C 144.90625 635.542969 145.835938 635.6875 146.71875 636.019531 C 148.0625 636.640625 149.105469 634.71875 150.558594 636.910156 C 151.921875 639.847656 155.382812 641.675781 153.816406 646.605469 C 153.269531 648.46875 152.996094 650.417969 152.230469 652.21875 C 151.519531 653.941406 148.082031 657.472656 153.074219 661.101562 C 154.070312 661.789062 154.296875 664.453125 156.011719 667.164062 C 157.179688 668.789062 162.359375 669.007812 166.332031 670.53125 C 169.34375 671.714844 185.878906 671.609375 190.28125 669.789062 C 190.921875 669.453125 191.46875 668.960938 192.027344 668.511719 C 186.410156 652.21875 191.085938 666.324219 184.792969 650.699219 C 184.664062 649.492188 185.015625 648.308594 185.0625 647.113281 C 184.828125 646.988281 184.59375 646.871094 184.363281 646.757812 C 183.367188 643.019531 180.347656 643.726562 175.875 636.285156 C 174.972656 634.03125 173.445312 632.105469 172.511719 629.863281 C 171.570312 627.542969 170.65625 628.007812 170.042969 624.484375 C 165 595.621094 170.246094 576.496094 170.421875 572.941406 C 170.71875 567.539062 172.246094 559.613281 172.394531 559.078125 C 173.003906 557.050781 171.785156 558.300781 175.054688 552.09375 C 176.027344 550.023438 177.332031 548.078125 177.792969 545.808594 C 182.316406 530.472656 178.691406 541.226562 181.335938 527.988281 C 181.652344 526.6875 182.652344 525.71875 183.15625 524.503906 C 183.660156 523.289062 184.242188 522.167969 184.691406 520.929688 C 187.289062 513.765625 189.335938 510.269531 189.761719 509.214844 C 190.066406 508.460938 190.121094 507.59375 190.488281 506.859375 C 190.488281 506.859375 197.316406 493.761719 197.316406 493.761719 C 196.816406 495.648438 195.683594 497.328125 195.402344 499.28125 C 197.234375 497.730469 204.574219 477.382812 207.152344 474.175781 C 210.234375 470.3125 213.25 464.183594 214.839844 462.726562 C 215.367188 462.867188 215.714844 463.347656 215.699219 463.894531 C 215.628906 466.421875 218.070312 478.835938 210.332031 494.308594 C 203.664062 510.285156 196.964844 514.71875 195.347656 523.101562 C 193.601562 532.160156 194.195312 531.238281 201.652344 540.964844 C 212.46875 555.078125 242.894531 606.582031 242.988281 606.921875 C 243.523438 608.527344 242.464844 610.039062 242 611.53125 C 242.371094 611.261719 242.742188 611 243.113281 610.738281 C 243.144531 610.832031 243.195312 611.023438 243.21875 611.117188 C 243.46875 611.394531 243.886719 611.628906 243.867188 612.0625 C 243.980469 613.089844 243.285156 613.945312 242.828125 614.800781 C 243.066406 614.964844 243.300781 615.132812 243.539062 615.308594 C 243.890625 614.863281 244.234375 614.410156 244.589844 613.976562 C 244.476562 614.535156 244.355469 615.097656 244.246094 615.660156 C 244.652344 616.433594 244.054688 617.167969 243.777344 617.871094 C 244.25 617.875 244.722656 617.882812 245.199219 617.882812 C 245.140625 618.160156 245.082031 618.445312 245.03125 618.738281 C 245.277344 618.496094 245.523438 618.257812 245.773438 618.03125 C 245.457031 619.164062 244.976562 620.253906 244.777344 621.421875 C 245.089844 621.386719 245.40625 621.363281 245.726562 621.339844 C 245.234375 622.035156 244.773438 622.761719 244.492188 623.570312 C 245.171875 623.09375 245.746094 622.492188 246.351562 621.933594 C 246.273438 623.296875 245.605469 624.566406 245.664062 625.9375 C 245.960938 625.554688 246.234375 625.164062 246.511719 624.777344 C 246.421875 625.652344 246.304688 626.535156 246.121094 627.40625 C 246.265625 627.398438 246.558594 627.390625 246.703125 627.382812 C 246.972656 628.957031 247.683594 630.613281 249.078125 631.503906 C 249.125 631.148438 249.175781 630.796875 249.234375 630.453125 C 249.488281 630.773438 249.734375 631.113281 249.976562 631.449219 C 250.132812 631.210938 250.289062 630.96875 250.449219 630.742188 C 250.699219 631.078125 250.953125 631.421875 251.207031 631.765625 C 251.492188 630.539062 251.976562 629.367188 252.75 628.371094 C 252.875 628.398438 253.117188 628.449219 253.238281 628.476562 C 253.695312 628.351562 254.148438 628.214844 254.605469 628.089844 C 254.859375 628.53125 255.195312 628.945312 255.34375 629.445312 C 255.359375 630.242188 255.054688 631 254.882812 631.777344 C 254.710938 631.398438 254.566406 631.019531 254.421875 630.640625 C 254.285156 631.640625 254.289062 632.703125 254.828125 633.597656 C 255.316406 632.445312 255.621094 631.238281 255.996094 630.054688 C 256.71875 631.222656 256.253906 632.632812 256.332031 633.914062 C 256.691406 633.789062 257.039062 633.644531 257.394531 633.511719 C 257.371094 633.769531 257.347656 634.035156 257.328125 634.304688 C 257.773438 634.382812 258.21875 634.488281 258.65625 634.613281 C 258.871094 634.304688 259.074219 633.988281 259.28125 633.675781 C 259.382812 634.597656 259.371094 635.527344 259.386719 636.460938 C 259.851562 636.199219 260.324219 635.953125 260.796875 635.71875 C 260.808594 636.359375 260.8125 637.003906 260.804688 637.652344 C 260.910156 637.632812 261.121094 637.597656 261.226562 637.582031 C 261.097656 638.675781 261.078125 639.921875 260.242188 640.757812 C 259.363281 641.699219 259.164062 643.070312 258.226562 643.972656 C 257.570312 644.609375 255.164062 648.339844 256.105469 650.285156 C 257.582031 653.539062 258.191406 658.730469 262.246094 660.96875 C 263.511719 661.667969 264.496094 662.78125 265.808594 663.40625 C 270.773438 665.113281 279.507812 665.832031 279.929688 665.828125 C 290.820312 666.09375 289.761719 665.476562 294.734375 664.035156 C 295.039062 662.949219 295.78125 661.886719 295.433594 660.71875 C 292.117188 649.101562 291.417969 651.96875 288.738281 646.242188 C 292.953125 641.46875 287.226562 638.382812 287.199219 634.4375 C 287.105469 634.414062 286.914062 634.363281 286.816406 634.339844 C 286.804688 634.503906 286.78125 634.835938 286.765625 635.003906 C 286.082031 634.796875 285.222656 634.796875 284.785156 634.148438 C 279.632812 627.625 280.332031 621.394531 276.960938 618.851562 C 277.066406 617.914062 278.328125 617.550781 278.085938 616.546875 C 277.175781 608.894531 276.746094 609.261719 275.773438 607.734375 C 235.261719 546.046875 244.410156 552.875 239.652344 544.691406 C 239.203125 543.921875 239.007812 543.058594 238.453125 542.320312 C 237.84375 541.535156 238.292969 540.546875 238.621094 539.753906 C 239.046875 538.699219 239.195312 537.640625 239.710938 536.632812 C 241.0625 534.003906 243.523438 530.769531 242.445312 526.078125 C 242.242188 525.25 242.828125 524.519531 243.125 523.792969 C 244.355469 521.609375 244.664062 518.429688 246.53125 514.019531 C 249.242188 507.609375 251.652344 504.683594 253.605469 500.21875 C 255.429688 496.039062 255.386719 492.882812 258.390625 490.734375 C 261.25 488.871094 261.929688 482.617188 262.988281 480.503906 C 273.683594 459.191406 271.210938 466.746094 274.878906 460.367188 C 276.777344 457.070312 277.089844 454.148438 279.71875 450.878906 C 280.394531 450.039062 280.375 448.984375 280.769531 447.992188 C 281.167969 446.933594 281.808594 445.992188 282.457031 445.074219 C 283.265625 445.605469 289.378906 448.917969 294.546875 452.78125 C 295.578125 453.570312 296.898438 453.722656 298.0625 454.230469 C 300.660156 455.328125 299.886719 458.273438 310.632812 460.695312 C 320.078125 462.828125 323.152344 466.058594 327.871094 467.128906 C 328.894531 467.359375 329.949219 467.457031 330.957031 467.742188 C 333.144531 468.359375 334.957031 469.511719 337.300781 469.503906 C 338.910156 469.527344 340.417969 470.144531 341.949219 470.566406 C 342.914062 470.847656 343.933594 470.695312 344.917969 470.867188 C 346.347656 471.058594 347.695312 471.617188 349.128906 471.796875 C 354.4375 472.890625 371.941406 472.714844 377.074219 471.75 C 379.242188 471.339844 388.242188 471.265625 389.269531 471.125 C 389.625 471.003906 395.5625 470.015625 395.6875 470.003906 C 399 469.871094 403.871094 467.828125 408.414062 467.671875 C 412.65625 467.527344 416.851562 468.324219 420.835938 466.351562 C 425.820312 464.082031 439.585938 462.234375 442.609375 462.054688 C 446.765625 461.804688 450.734375 460.28125 454.925781 460.074219 C 458.433594 459.898438 457.929688 460.75 460.113281 459.421875 C 460.992188 459.476562 461.875 459.4375 462.753906 459.535156 C 463.367188 459.675781 463.910156 460.03125 464.53125 460.144531 C 465.148438 460.234375 465.777344 460.1875 466.394531 460.308594 C 468.601562 461.597656 467.195312 466.28125 468.703125 474.398438 C 468.789062 474.8125 469.078125 481.003906 468.6875 483.414062 C 468.433594 485.171875 470.410156 498.226562 469.722656 502.449219 C 469.117188 507.183594 469.554688 516.980469 470.027344 519.015625 C 471.457031 524.996094 470.574219 527.269531 470.664062 540.035156 C 470.730469 542.128906 467.953125 542.058594 470.183594 546.515625 C 471.097656 548.191406 471.449219 550.113281 472.429688 551.765625 C 474.984375 555.957031 474.335938 560.496094 474.394531 562.914062 C 474.203125 565.1875 474.8125 567.519531 474.109375 569.738281 C 474.109375 569.738281 472.023438 585.515625 470.613281 592.757812 C 469.964844 595.246094 470.855469 598.613281 468.960938 605.316406 C 468.601562 606.738281 468.386719 608.191406 468.058594 609.621094 C 467.710938 610.902344 468.152344 612.3125 467.527344 613.535156 C 466.714844 615.296875 465.652344 617.089844 465.886719 619.113281 C 466.085938 618.65625 466.261719 618.191406 466.460938 617.738281 C 466.757812 619.78125 465.488281 621.582031 465.570312 623.609375 C 465.804688 623.257812 466.03125 622.90625 466.261719 622.5625 C 466.011719 624.96875 464.304688 630.640625 465.671875 635.496094 C 465.96875 635.621094 466.308594 635.71875 466.515625 635.996094 C 472.679688 643.21875 469.472656 640.011719 474.328125 643.476562 C 474.363281 643.089844 474.367188 642.710938 474.375 642.332031 C 474.722656 642.4375 475.074219 642.546875 475.433594 642.652344 C 475.460938 642.75 475.523438 642.9375 475.554688 643.027344 C 476.644531 642.515625 477.550781 643.644531 478.566406 643.886719 C 478.882812 644.359375 479.300781 644.773438 479.851562 644.96875 C 479.90625 645.042969 480.015625 645.199219 480.070312 645.277344 C 480.378906 645.320312 480.695312 645.355469 481.007812 645.445312 C 481.328125 646.078125 481.789062 646.804688 481.566406 647.542969 C 480.972656 649.207031 479.871094 650.621094 478.621094 651.84375 C 477.308594 653.0625 477.148438 654.949219 476.582031 656.558594 C 475.425781 659.574219 478.203125 660.160156 479.46875 661.222656 C 481.097656 662.40625 482.585938 666.054688 482.925781 666.503906 C 484.113281 668.019531 486.277344 671.308594 487.5625 671.5 C 489.707031 671.820312 505.441406 670.980469 512.675781 667.894531 C 514.347656 667.3125 515.488281 665.648438 515.773438 663.949219 C 516.082031 661.632812 512.839844 657.546875 512.117188 655.511719 C 525.285156 663.152344 530.417969 659.976562 531.886719 659.78125 C 539.417969 658.492188 541.363281 656.503906 542.707031 655.078125 C 540.65625 649.5 540.304688 650.71875 538.933594 647.726562 C 537.355469 644.007812 534.15625 640.75 534.527344 639.652344 C 534.855469 638.5 535.316406 637.25 534.722656 636.097656 C 534.25 635.113281 532.757812 630.734375 529.914062 630.253906 C 528.550781 629.96875 527.195312 629.464844 526.1875 628.472656 C 519.316406 621.75 522.246094 623.800781 518.964844 619.226562 C 518.214844 618.183594 515.449219 611.9375 515.25 610.917969 C 513.800781 603.566406 513.5 604.195312 513.035156 602.109375 C 512.3125 598.855469 513.070312 578.945312 513.089844 578.613281 C 513.15625 577.65625 513.644531 576.765625 513.558594 575.796875 C 513.503906 574.070312 513.414062 572.320312 513.777344 570.617188 C 515.855469 559.1875 513.410156 566.4375 516.527344 557.902344 C 516.644531 557.566406 519.710938 536.238281 520.585938 519.351562 C 520.480469 519.359375 521.367188 510.375 522.511719 505.96875 C 524.320312 497.191406 523.914062 501.457031 526.160156 489.449219 C 527.570312 481.289062 526.863281 481.023438 528.921875 472.867188 C 529.003906 472.535156 533.308594 454.054688 533.292969 451.90625 C 533.441406 449.871094 534.734375 448.207031 535.320312 446.300781 C 535.734375 445.386719 535.855469 444.183594 536.820312 443.652344 C 544.761719 438.675781 557.050781 429.800781 560.238281 420.988281 C 560.300781 421.074219 561.710938 417.917969 562.03125 416.121094 C 562.878906 412.019531 566.4375 404.375 566.578125 404.039062 C 568.714844 398.289062 569.589844 398.867188 570.277344 397.363281 C 572.035156 393.835938 575.421875 361.683594 575.445312 361.347656 C 575.472656 360.617188 576.039062 360.078125 576.511719 359.582031 C 587.578125 348.71875 587.1875 346.5625 591.773438 338.890625 C 617.050781 296.617188 622.210938 274.320312 622.210938 274.320312 C 622.804688 274.464844 623.335938 274.78125 623.886719 275.042969 C 626.296875 276.253906 632.203125 276.703125 632.535156 276.753906 C 634.679688 277.726562 636.867188 281.652344 641.777344 284.632812 C 644.683594 286.289062 647.285156 288.46875 650.402344 289.765625 C 653.480469 291.070312 656.351562 292.824219 659.125 294.683594 C 660.585938 295.285156 662.25 295.804688 663.179688 297.1875 C 665.871094 303.179688 666.75 307.226562 669.773438 309.472656 C 676.707031 312.195312 677.796875 309.804688 681.777344 309.847656 C 683.070312 309.835938 684.074219 308.875 685.28125 308.539062 C 686.574219 308.117188 690.117188 308.703125 691.246094 305.976562 C 691.710938 304.71875 693.433594 304.921875 694.039062 303.785156 C 696.261719 300.207031 696.515625 301.484375 699.117188 295.453125 C 703.5 284.863281 701.429688 291.625 703.519531 282.730469 C 704.410156 278.570312 693.1875 262.355469 692.296875 258.269531 Z M 680.164062 196.082031 C 679.429688 196.03125 678.933594 195.644531 678.878906 194.894531 C 679.402344 195.171875 679.859375 195.558594 680.164062 196.082031 Z M 121.632812 550.082031 C 121.886719 550.804688 121.9375 551.570312 121.96875 552.332031 C 121.875 552.332031 121.683594 552.335938 121.585938 552.339844 C 121.554688 551.585938 121.554688 550.828125 121.632812 550.082031 Z M 121.242188 368.332031 C 120.789062 369.984375 120.160156 371.667969 118.953125 372.929688 C 119.289062 371.21875 120.285156 369.75 121.242188 368.332031 Z M 119.933594 573.75 C 119.835938 572.738281 119.761719 571.636719 120.375 570.765625 C 120.472656 571.777344 120.417969 572.832031 119.933594 573.75 Z M 118.011719 549.65625 C 119.175781 551.613281 118.472656 553.171875 118.066406 558.5 C 116.867188 555.664062 117.722656 552.578125 118.011719 549.65625 Z M 118.171875 542.148438 C 118.179688 543.4375 118.28125 544.761719 117.933594 546.019531 C 117.710938 544.730469 117.925781 543.417969 118.171875 542.148438 Z M 118.648438 569.066406 C 118.996094 570.332031 119.101562 571.699219 118.730469 572.972656 C 118.554688 571.675781 118.570312 570.367188 118.648438 569.066406 Z M 119.050781 563.953125 C 119.734375 565.34375 119.410156 566.984375 119.265625 568.46875 C 118.953125 567 118.351562 565.402344 119.050781 563.953125 Z M 119.574219 574.257812 C 119.585938 575.109375 119.453125 575.953125 119.394531 576.804688 C 119.324219 576.800781 119.183594 576.792969 119.113281 576.792969 C 119.09375 575.921875 119.070312 575.007812 119.574219 574.257812 Z M 118.976562 549.246094 C 118.648438 548.480469 118.4375 547.65625 118.496094 546.820312 C 118.945312 547.546875 119.035156 548.40625 118.976562 549.246094 Z M 118.765625 374.785156 C 118.425781 376.304688 117.914062 377.8125 117.039062 379.121094 C 117.117188 377.523438 117.925781 376.097656 118.765625 374.785156 Z M 115.917969 559.359375 C 116.996094 564.316406 116.738281 565.269531 116.089844 566.726562 C 115.695312 564.292969 115.957031 561.8125 115.917969 559.359375 Z M 116.117188 572.683594 C 116.121094 571.472656 116.066406 570.234375 116.433594 569.070312 C 116.46875 570.277344 116.378906 571.5 116.117188 572.683594 Z M 115.472656 541.640625 C 115.878906 542.601562 115.953125 543.648438 115.765625 544.671875 C 115.542969 543.675781 115.367188 542.660156 115.472656 541.640625 Z M 115.003906 392.253906 C 114.90625 393.433594 114.535156 394.59375 113.8125 395.542969 C 114.050781 394.394531 114.515625 393.3125 115.003906 392.253906 Z M 113.75 396.671875 C 113.472656 398.207031 112.671875 399.597656 111.761719 400.847656 C 111.726562 399.203125 112.679688 397.824219 113.75 396.671875 Z M 111.6875 402.15625 C 112.203125 401.261719 112.972656 400.539062 113.378906 399.585938 C 114.167969 398.128906 114.339844 396.4375 115.125 394.980469 C 115.300781 398.074219 113.582031 401.234375 111.796875 404.074219 C 111.71875 403.4375 111.53125 402.785156 111.6875 402.15625 Z M 115.066406 551.496094 C 115.148438 552.394531 115 553.300781 114.789062 554.175781 C 114.316406 553.292969 114.308594 552.21875 115.066406 551.496094 Z M 114.363281 551.238281 C 114.347656 550.472656 114.542969 549.730469 114.964844 549.097656 C 115.039062 549.867188 114.867188 550.632812 114.363281 551.238281 Z M 113.632812 544.484375 C 113.433594 543.617188 113.375 542.730469 113.398438 541.847656 C 113.964844 542.628906 114.015625 543.609375 113.632812 544.484375 Z M 109.980469 479.980469 C 112.082031 482.328125 111.332031 482.277344 110.351562 484.136719 C 110.042969 482.773438 109.832031 481.375 109.980469 479.980469 Z M 109.882812 477.386719 C 109.902344 476.792969 109.847656 476.171875 110.152344 475.640625 C 110.675781 474.636719 110.929688 473.515625 111.476562 472.53125 C 111.078125 474.183594 110.425781 475.773438 109.882812 477.386719 Z M 111.796875 483.144531 C 112.539062 485.558594 112.3125 485.851562 111.484375 487.726562 C 110.363281 485.640625 110.632812 485.0625 111.796875 483.144531 Z M 111.398438 480.671875 C 110.082031 478.90625 109.664062 479.734375 112.507812 471.734375 C 113.300781 473.734375 112.078125 474.90625 111.398438 480.671875 Z M 112.3125 465.578125 C 111.925781 464.769531 111.664062 463.90625 111.613281 463.015625 C 112.90625 464.023438 112.890625 464.234375 112.3125 465.578125 Z M 112.714844 477.285156 C 113.066406 479.226562 113.0625 481.246094 112.761719 483.195312 C 112.117188 482.050781 112.339844 478.648438 112.714844 477.285156 Z M 111.96875 458.363281 C 112.253906 456.433594 112.285156 454.4375 112.996094 452.59375 C 112.980469 453.78125 112.554688 454.949219 112.789062 456.144531 C 113.105469 458.566406 113.296875 461.007812 113.199219 463.453125 C 112.3125 461.929688 111.773438 460.136719 111.96875 458.363281 Z M 111.84375 406.566406 C 111.957031 406.578125 112.175781 406.613281 112.289062 406.628906 C 112.183594 407.015625 112.070312 407.402344 111.945312 407.789062 C 111.914062 407.375 111.886719 406.96875 111.84375 406.566406 Z M 112.375 405.847656 C 112.273438 404.78125 112.636719 403.753906 113.257812 402.898438 C 113.195312 403.929688 112.941406 404.96875 112.375 405.847656 Z M 110.222656 425.703125 C 109.585938 423.578125 109.71875 421.234375 110.46875 419.15625 C 110.394531 421.335938 110.441406 423.53125 110.222656 425.703125 Z M 110.160156 412.863281 C 110.085938 412.859375 109.9375 412.859375 109.867188 412.855469 C 108.660156 410.144531 108.832031 405.441406 110.617188 403.234375 C 112.054688 406.265625 110.976562 406.039062 111.269531 407.730469 C 111.699219 409.53125 110.613281 411.175781 110.160156 412.863281 Z M 111.359375 438.867188 C 111.382812 437.984375 111.382812 437.105469 111.386719 436.226562 L 111.664062 436.214844 C 111.640625 437.097656 111.585938 437.980469 111.472656 438.863281 Z M 110.113281 462.484375 C 111.222656 464.246094 111.261719 466.585938 110.484375 468.480469 C 110.519531 466.46875 110.007812 464.496094 110.113281 462.484375 Z M 109.664062 474.925781 C 110.105469 472.6875 111.304688 468 111.636719 467.238281 C 112.363281 470.3125 111.945312 469.648438 109.664062 474.925781 Z M 108.90625 493.105469 C 108.828125 491.1875 109.351562 489.3125 109.964844 487.515625 C 110.074219 489.433594 109.621094 491.335938 108.90625 493.105469 Z M 110.964844 490.476562 C 110.957031 492.085938 110.308594 493.582031 109.851562 495.097656 C 109.550781 496.035156 109.902344 497.015625 109.890625 497.972656 C 108.519531 495.921875 110.160156 491.773438 110.964844 490.476562 Z M 111.296875 500.84375 C 111.023438 499.082031 109.96875 496.199219 112.140625 490.757812 C 112.261719 492.40625 111.339844 500.511719 111.296875 500.84375 Z M 112.1875 521.4375 C 111.957031 524.542969 113.160156 532.316406 112.546875 535.160156 C 111.859375 533.117188 111.425781 524.289062 112.1875 521.4375 Z M 112.4375 541.515625 C 112.480469 541.511719 112.574219 541.511719 112.617188 541.511719 C 112.695312 543.597656 113.386719 545.679688 113.007812 547.769531 C 112.210938 545.777344 112.5 543.605469 112.4375 541.515625 Z M 113.582031 554.082031 C 113.898438 556.109375 114.171875 558.214844 113.640625 560.234375 C 112.882812 558.292969 112.386719 555.960938 113.582031 554.082031 Z M 113.320312 566.773438 C 112.871094 565.65625 113.222656 564.476562 113.832031 563.507812 C 113.960938 564.617188 113.734375 565.742188 113.320312 566.773438 Z M 112.238281 557.707031 C 112.765625 559.792969 113.84375 562.054688 112.789062 564.160156 C 111.617188 562.320312 111.078125 559.695312 112.238281 557.707031 Z M 111.023438 561.273438 C 111.296875 562.75 112.28125 564.105469 112.175781 565.628906 C 111.476562 567.128906 110.648438 568.613281 109.523438 569.839844 C 109.09375 566.902344 110.0625 564.003906 111.023438 561.273438 Z M 109.96875 570.648438 C 110.78125 569.207031 111.742188 567.851562 112.578125 566.421875 C 114.105469 568.753906 112.0625 574.113281 111.636719 574.988281 C 111.113281 573.527344 110.554688 572.082031 109.96875 570.648438 Z M 114.066406 567.878906 C 114.125 567.109375 114.183594 566.335938 114.398438 565.589844 C 115.167969 568.9375 114.125 574.820312 114.238281 578.613281 C 114.328125 580.058594 113.632812 581.386719 113 582.636719 C 110.039062 578.066406 113.789062 572.996094 114.066406 567.878906 Z M 114.375 581.472656 C 114.175781 583.03125 114.023438 584.621094 114.429688 586.171875 C 112.953125 583.421875 113.414062 582.78125 114.375 581.472656 Z M 116.324219 589.25 C 115.144531 587.347656 114.550781 585.070312 114.71875 582.839844 C 115.03125 583.117188 115.34375 583.402344 115.664062 583.6875 C 115.539062 582.742188 115.261719 581.816406 115.25 580.863281 C 115.398438 579.566406 116.191406 578.460938 116.390625 577.183594 C 116.621094 575.75 116.835938 574.207031 117.835938 573.082031 C 117.847656 572.5625 117.863281 572.046875 117.910156 571.539062 C 119.328125 577.640625 116.636719 585.996094 116.324219 589.25 Z M 120.683594 579.851562 C 120.675781 580.476562 121.019531 581.160156 120.691406 581.757812 C 120.101562 582.8125 119.285156 583.738281 118.8125 584.867188 C 118.28125 586.097656 117.8125 587.390625 116.9375 588.4375 C 117.257812 585.472656 118.460938 582.675781 118.691406 579.695312 C 118.898438 579.726562 119.109375 579.761719 119.320312 579.800781 C 119.320312 579.800781 120.339844 575.765625 120.800781 573.148438 C 120.996094 573.257812 121.195312 573.375 121.390625 573.496094 C 121.625 575.660156 120.40625 577.683594 120.683594 579.851562 Z M 121.417969 580.226562 C 121.230469 578.804688 121.402344 577.351562 121.921875 576.019531 C 121.964844 577.425781 122.042969 578.917969 121.417969 580.226562 Z M 122.171875 572.652344 C 121.671875 571.527344 121.570312 570.277344 121.917969 569.09375 C 122.597656 570.167969 122.441406 571.46875 122.171875 572.652344 Z M 138.882812 546.75 C 138.167969 545.308594 139.003906 543.804688 139.378906 542.402344 C 139.414062 543.867188 139.253906 545.332031 138.882812 546.75 Z M 138.414062 534.363281 C 139.101562 535.292969 139.292969 536.484375 138.878906 537.578125 C 138.75 537.585938 138.488281 537.605469 138.359375 537.613281 C 138.402344 536.53125 138.351562 535.445312 138.414062 534.363281 Z M 136.761719 554.484375 C 137 555.644531 136.949219 556.851562 136.714844 558.011719 C 136.058594 556.941406 136.199219 555.558594 136.761719 554.484375 Z M 135.882812 558.261719 C 136.371094 558.976562 136.351562 559.808594 135.871094 560.527344 C 135.792969 559.769531 135.789062 559.011719 135.882812 558.261719 Z M 135.699219 563.421875 C 135.953125 562.453125 136.308594 561.398438 136.746094 560.496094 C 137.644531 561.796875 136.5 563.300781 135.984375 564.535156 C 135.800781 564.1875 135.539062 563.820312 135.699219 563.421875 Z M 134.910156 545.121094 C 135.429688 546.585938 134.792969 548.085938 134.421875 549.507812 C 134.285156 548.027344 134.460938 546.535156 134.910156 545.121094 Z M 129.15625 555.042969 C 129.199219 556.074219 128.804688 557.046875 128.3125 557.9375 C 128.386719 556.925781 128.5625 555.882812 129.15625 555.042969 Z M 124.164062 555.09375 C 125.222656 556.558594 125.277344 556.597656 124.171875 558.164062 C 124.117188 558.347656 124.015625 558.710938 123.964844 558.890625 C 124.011719 558.386719 124.179688 557.898438 124.382812 557.441406 C 124.230469 556.664062 124.152344 555.878906 124.164062 555.09375 Z M 122.757812 356.449219 C 122.804688 355.738281 123.121094 355.097656 123.75 354.742188 C 123.648438 355.421875 123.296875 356.019531 122.757812 356.449219 Z M 124.503906 576.902344 C 124.132812 576.261719 123.839844 575.578125 123.679688 574.855469 C 123.980469 575.085938 124.292969 575.316406 124.566406 575.589844 C 124.726562 576.007812 124.53125 576.46875 124.503906 576.902344 Z M 125.039062 574.003906 C 124.625 573.316406 124.457031 572.480469 124.902344 571.765625 C 125.082031 572.492188 125.144531 573.25 125.039062 574.003906 Z M 126.195312 547.871094 C 126.210938 550.28125 126.050781 552.707031 125.433594 555.046875 C 124 553.621094 124.039062 554.738281 126.195312 547.871094 Z M 125.898438 581.691406 C 125.347656 580.261719 125.011719 578.691406 125.210938 577.15625 C 125.78125 578.59375 125.988281 580.152344 125.898438 581.691406 Z M 125.84375 569.488281 C 125.9375 567.898438 126.410156 566.355469 126.457031 564.765625 C 126.625 564.652344 126.792969 564.539062 126.964844 564.4375 C 126.867188 563.640625 127.023438 562.863281 127.292969 562.125 C 127.460938 562.910156 127.808594 563.726562 127.597656 564.542969 C 127.113281 566.21875 126.789062 567.988281 125.84375 569.488281 Z M 126.464844 571.214844 C 126.636719 569.753906 127.019531 568.292969 127.796875 567.039062 C 127.71875 568.515625 127.289062 569.976562 126.464844 571.214844 Z M 127.878906 545.128906 C 128.152344 545.886719 128.214844 546.695312 128.144531 547.5 C 127.871094 546.738281 127.84375 545.921875 127.878906 545.128906 Z M 128.007812 561.238281 C 128.007812 559.996094 128.5625 558.847656 129.203125 557.816406 C 129.179688 559.050781 128.679688 560.21875 128.007812 561.238281 Z M 128.8125 564.582031 C 129.21875 564.554688 129.195312 565.480469 128.792969 565.457031 C 128.558594 565.234375 128.582031 564.789062 128.8125 564.582031 Z M 129.050781 571.558594 C 128.53125 570.507812 129.445312 569.46875 129.910156 568.570312 C 129.492188 572.652344 130.164062 571.046875 130.402344 574.492188 C 129.722656 573.628906 129.492188 572.542969 129.050781 571.558594 Z M 130.335938 563.949219 C 130.308594 562.71875 130.507812 561.492188 130.839844 560.308594 C 130.996094 561.542969 130.914062 562.828125 130.335938 563.949219 Z M 130.820312 571.679688 C 130.589844 571.46875 130.582031 571.019531 130.820312 570.820312 C 131.230469 570.777344 131.226562 571.703125 130.820312 571.679688 Z M 131.417969 570.367188 C 131.128906 569.75 130.785156 569.097656 130.949219 568.398438 C 131.296875 566.175781 132.105469 564.023438 133.195312 562.066406 C 133.390625 563.070312 134.378906 565.046875 131.417969 570.367188 Z M 133.15625 331.996094 C 133.417969 331.050781 134.035156 330.265625 134.769531 329.640625 C 134.40625 330.527344 133.90625 331.378906 133.15625 331.996094 Z M 133.953125 558.265625 C 133.964844 557.476562 134.054688 556.664062 134.519531 556.003906 C 134.722656 556.820312 134.492188 557.628906 133.953125 558.265625 Z M 135.25 564.652344 C 135.917969 565.398438 135.492188 566.3125 134.988281 567.007812 C 134.921875 566.207031 135.042969 565.417969 135.25 564.652344 Z M 135.75 570.085938 C 135.203125 568.875 135.464844 567.550781 136.03125 566.410156 C 137.132812 566.425781 136.089844 569.210938 135.75 570.085938 Z M 136.746094 566.253906 C 136.273438 564.9375 137.054688 563.671875 137.660156 562.550781 C 137.699219 563.828125 137.597656 565.226562 136.746094 566.253906 Z M 138.027344 561.703125 C 138.164062 560.304688 138.628906 558.976562 138.929688 557.617188 C 138.929688 559.019531 138.664062 560.433594 138.027344 561.703125 Z M 137.480469 560.421875 C 136.71875 558.761719 137.636719 556.992188 137.902344 555.320312 C 138.507812 553.519531 138.285156 551.613281 138.492188 549.757812 C 139.988281 552.59375 137.839844 559.632812 137.480469 560.421875 Z M 139.84375 557.726562 C 139.804688 555.953125 139.792969 554.167969 140.074219 552.414062 C 140.382812 550.433594 138.785156 548.585938 139.566406 546.625 C 139.828125 547.992188 139.742188 549.398438 140.089844 550.75 C 140.691406 553.8125 140.96875 554.484375 139.84375 557.726562 Z M 156.949219 422.089844 C 157.667969 423.726562 157.324219 425.566406 157.285156 427.292969 C 156.371094 425.683594 156.59375 423.820312 156.949219 422.089844 Z M 156.714844 443.070312 C 157.378906 441.121094 156.8125 439.042969 157.144531 437.042969 C 157.597656 438.230469 157.679688 439.511719 158.035156 440.726562 C 158.164062 439.371094 157.453125 434.238281 157.695312 432.808594 C 159.042969 436.777344 158.398438 439.039062 158.328125 452.484375 C 156.847656 449.964844 155.484375 448.242188 156.714844 443.070312 Z M 158.484375 456.523438 C 157.441406 454.746094 156.445312 452.789062 156.367188 450.691406 C 157.640625 452.347656 158.925781 454.328125 158.484375 456.523438 Z M 154.820312 448.835938 C 155.117188 449.851562 155.160156 450.925781 155.085938 451.984375 C 154.703125 450.976562 154.753906 449.882812 154.820312 448.835938 Z M 154.195312 451.957031 C 154.929688 453.703125 155.125 455.742188 154.257812 457.484375 C 153.703125 455.691406 153.589844 453.753906 154.195312 451.957031 Z M 152.539062 459.105469 C 152.636719 460.609375 153 462.117188 152.636719 463.617188 C 152.339844 462.128906 152.246094 460.601562 152.539062 459.105469 Z M 153.226562 475.832031 C 153.902344 479.496094 153.488281 485.121094 152.78125 487.199219 C 151.195312 483.074219 152.855469 476.769531 153.226562 475.832031 Z M 143.71875 524.117188 C 144.96875 525.839844 143.320312 528.492188 143.046875 531.886719 C 143.003906 531.882812 142.921875 531.878906 142.878906 531.878906 C 142.65625 527.832031 142.789062 527.664062 143.71875 524.117188 Z M 143.3125 512.96875 C 143.316406 514.183594 143.332031 515.40625 143.335938 516.625 C 142.5 515.535156 142.355469 516.652344 143.3125 512.96875 Z M 143.289062 506.175781 C 143.402344 508.316406 143.5 510.535156 142.648438 512.554688 C 142.710938 510.433594 142.074219 508.085938 143.289062 506.175781 Z M 142.097656 536.675781 C 142.957031 541.300781 144.394531 540.035156 142.320312 549.214844 C 142.367188 546.566406 142.417969 543.910156 142.335938 541.269531 C 141.871094 539.773438 142.109375 538.210938 142.097656 536.675781 Z M 141.550781 544.734375 L 141.675781 544.738281 C 141.71875 547.242188 141.523438 549.761719 141.074219 552.226562 C 140.511719 549.800781 141.691406 549.953125 141.550781 544.734375 Z M 142.117188 563.6875 C 141.550781 561.035156 141.078125 558.277344 141.621094 555.582031 C 142.324219 558.226562 142.078125 560.980469 142.117188 563.6875 Z M 142.558594 555.589844 C 142.503906 555.59375 142.390625 555.597656 142.332031 555.597656 C 142.324219 552.855469 142.648438 549.394531 143.476562 547.519531 C 143.746094 550.246094 143.042969 552.933594 142.558594 555.589844 Z M 143.113281 559.46875 C 142.773438 558.371094 142.757812 557.183594 143.09375 556.085938 C 143.167969 557.210938 143.183594 558.339844 143.113281 559.46875 Z M 142.84375 560.820312 C 143.339844 561.976562 143.640625 563.285156 143.140625 564.5 C 142.59375 563.355469 142.832031 562.042969 142.84375 560.820312 Z M 143.277344 567.96875 C 143.019531 566.890625 143.019531 565.730469 143.636719 564.777344 C 143.710938 565.847656 143.726562 566.964844 143.277344 567.96875 Z M 143.828125 532.457031 C 143.84375 531.425781 143.8125 530.378906 144.125 529.386719 C 144.136719 532.339844 144.113281 535.292969 144.105469 538.25 C 142.71875 534.582031 143.828125 534.90625 143.828125 532.457031 Z M 144.097656 561.449219 C 143.753906 559.304688 143.746094 557.105469 143.984375 554.953125 C 145.050781 556.929688 144.679688 559.371094 144.097656 561.449219 Z M 144.117188 513.316406 C 143.847656 511.296875 144.429688 509.347656 145.070312 507.460938 C 146.0625 508.765625 145.792969 510.152344 144.117188 513.316406 Z M 146.101562 507.605469 C 145.457031 506.808594 145.359375 505.722656 145.980469 504.878906 C 146.121094 505.777344 146.148438 506.691406 146.101562 507.605469 Z M 146.148438 501.378906 C 145.878906 499.734375 146.222656 498.09375 146.589844 496.496094 C 146.480469 498.117188 147.019531 499.890625 146.148438 501.378906 Z M 146.726562 505.109375 C 146.488281 503.964844 146.453125 502.777344 146.753906 501.644531 C 147.640625 502.648438 147.261719 504.03125 146.726562 505.109375 Z M 147.066406 508.550781 C 146.976562 507.125 147.203125 505.675781 147.894531 504.414062 C 147.992188 505.84375 147.542969 507.222656 147.066406 508.550781 Z M 148.492188 500.394531 C 149.332031 501.625 148.683594 503.183594 148.089844 504.378906 C 147.96875 503.035156 148.230469 501.703125 148.492188 500.394531 Z M 148.746094 505.804688 C 148.792969 504.617188 149.164062 503.484375 149.535156 502.371094 C 149.730469 502.8125 150.027344 503.246094 150.054688 503.746094 C 149.800781 504.53125 149.253906 505.171875 148.746094 505.804688 Z M 149.976562 500.882812 C 149.722656 499.945312 149.84375 498.96875 149.722656 498.019531 C 148.789062 493.625 149.613281 489.855469 150.988281 484.878906 C 151.703125 486.375 153.015625 487.957031 152.386719 489.710938 C 151.855469 491.453125 150.074219 500.460938 149.976562 500.882812 Z M 163.84375 472.566406 C 160.136719 481.832031 157.988281 485.832031 156.539062 490.296875 C 155.121094 494.671875 152.832031 498.53125 150.597656 502.515625 C 150.078125 500.765625 151.316406 498.859375 152.117188 493.472656 C 152.273438 492.472656 155.253906 483.957031 153.855469 474.582031 C 153.597656 472.417969 154.378906 470.269531 154.003906 468.113281 C 153.734375 467.21875 153.113281 466.386719 153.300781 465.40625 C 153.207031 464.757812 153.746094 464.378906 154.179688 464.019531 C 154.460938 464.839844 154.75 465.660156 155.117188 466.445312 C 155.3125 464.316406 153.921875 462.320312 154.484375 460.195312 C 154.773438 458.855469 154.925781 457.433594 155.710938 456.261719 C 156.773438 459.117188 156.734375 460.964844 158.597656 467.796875 C 158.667969 467.296875 158.402344 466.835938 158.320312 466.359375 C 157.707031 464.417969 157.453125 462.390625 157.097656 460.390625 C 157.230469 460.417969 157.503906 460.464844 157.636719 460.492188 C 157.296875 458.554688 156.707031 456.648438 156.625 454.675781 C 157.679688 456.046875 158.421875 457.621094 159.085938 459.210938 C 159.113281 457.949219 159.046875 456.691406 158.996094 455.429688 C 159.246094 455.464844 159.496094 455.503906 159.75 455.542969 C 158.589844 453.425781 158.921875 453.621094 159.101562 438.164062 C 159.34375 434.476562 157.535156 430.925781 158.179688 427.230469 C 158.894531 428.257812 159.050781 429.515625 159.277344 430.714844 C 159.445312 427.976562 158.195312 425.378906 158.273438 422.640625 C 158.667969 423.878906 158.734375 425.195312 159.167969 426.429688 C 164.960938 443.808594 165.324219 441.578125 165.382812 452.382812 C 165.421875 450.640625 165.464844 448.902344 165.503906 447.160156 C 166.203125 465.203125 166.554688 465.796875 163.84375 472.566406 Z M 497.019531 628.191406 C 497.125 630.191406 498.019531 632.042969 498.117188 634.046875 C 496.992188 632.296875 496.964844 630.191406 497.019531 628.191406 Z M 502.414062 638.164062 C 502.097656 637.867188 501.792969 637.574219 501.492188 637.277344 C 501.546875 637.640625 501.597656 638 501.65625 638.378906 C 500.421875 637.613281 499.433594 636.496094 498.777344 635.207031 C 498.847656 634.921875 498.964844 634.65625 499.082031 634.398438 C 498.507812 632.667969 498.253906 630.855469 497.8125 629.089844 C 498.863281 630.214844 499.242188 631.730469 499.828125 633.113281 C 500.066406 633.117188 500.308594 633.125 500.558594 633.144531 C 500.71875 632.828125 500.867188 632.511719 501.007812 632.195312 C 501.078125 632.636719 501.15625 633.089844 501.242188 633.546875 C 501.582031 633.027344 501.929688 632.511719 502.238281 631.972656 C 502.316406 632.207031 502.398438 632.441406 502.484375 632.6875 C 502.648438 632.550781 502.816406 632.421875 502.988281 632.296875 C 503.125 632.433594 503.269531 632.578125 503.421875 632.726562 C 503.625 632.523438 503.832031 632.324219 504.042969 632.132812 C 504.152344 632.640625 504.367188 633.140625 504.285156 633.679688 C 504.597656 633.445312 504.90625 633.203125 505.226562 632.976562 C 504.664062 634.898438 503.074219 636.28125 502.414062 638.164062 Z M 662.96875 173.113281 C 662.414062 172.671875 661.960938 172.109375 661.808594 171.402344 C 663.148438 172.480469 664.347656 173.867188 664.863281 175.53125 C 664.242188 174.71875 663.769531 173.777344 662.96875 173.113281 Z M 678.417969 194.867188 C 678.089844 195.105469 677.441406 194.691406 677.660156 194.304688 C 677.972656 194.054688 678.628906 194.476562 678.417969 194.867188 Z M 677.832031 193.015625 C 677.226562 192.667969 676.695312 192.222656 676.238281 191.703125 C 676.917969 191.925781 677.550781 192.316406 677.832031 193.015625 Z M 677.449219 188.964844 C 676.546875 188.886719 675.707031 188.464844 675.238281 187.675781 C 676.082031 187.875 676.902344 188.257812 677.449219 188.964844 Z M 676.199219 187.441406 C 675.5 187.1875 674.800781 186.898438 674.226562 186.425781 C 673.953125 185.742188 674.808594 185.570312 676.199219 187.441406 Z M 674.210938 188.484375 C 674.902344 188.753906 675.542969 189.144531 676.09375 189.652344 C 675.714844 189.609375 675.347656 189.585938 674.996094 189.5 C 674.613281 189.265625 674.4375 188.839844 674.210938 188.484375 Z M 675.449219 192.160156 C 676.152344 192.503906 676.792969 193.007812 677.160156 193.722656 C 676.390625 193.457031 675.847656 192.835938 675.449219 192.160156 Z M 676.789062 196.023438 C 677.351562 196.15625 677.945312 196.257812 678.480469 196.519531 C 678.648438 196.847656 678.71875 197.207031 678.835938 197.558594 C 677.988281 197.308594 677.128906 196.90625 676.789062 196.023438 Z M 676.789062 196.023438 " fill-opacity="1" fill-rule="nonzero"/></g></svg>