<svg xmlns="http://www.w3.org/2000/svg" xmlns:xlink="http://www.w3.org/1999/xlink" width="1080" zoomAndPan="magnify" viewBox="0 0 810 809.999993" height="1080" preserveAspectRatio="xMidYMid meet" version="1.0"><defs><clipPath id="ce707fa0c2"><path d="M 131 141.027344 L 678 141.027344 L 678 667 L 131 667 Z M 131 141.027344 " clip-rule="nonzero"/></clipPath></defs><rect x="-81" width="972" fill="#ffffff" y="-80.999999" height="971.999992" fill-opacity="1"/><rect x="-81" width="972" fill="#003e52" y="-80.999999" height="971.999992" fill-opacity="1"/><g clip-path="url(#ce707fa0c2)"><path fill="#fffaf3" d="M 308.5 206.609375 C 311.085938 206.144531 313.792969 205.625 315.34375 208.363281 C 315.425781 208.507812 315.433594 208.621094 315.375 208.710938 L 313.957031 210.761719 C 313.863281 210.898438 313.835938 211.023438 313.878906 211.132812 C 313.96875 211.371094 314.140625 211.425781 314.394531 211.300781 C 315.726562 210.628906 316.492188 209.171875 318.351562 210.476562 C 318.894531 210.855469 319.027344 211.363281 318.75 211.988281 L 317.992188 213.703125 C 317.953125 213.789062 317.953125 213.878906 317.992188 213.964844 C 318.027344 214.050781 318.09375 214.105469 318.183594 214.132812 C 319.792969 214.632812 322.300781 216.972656 320.96875 218.867188 C 320.515625 219.507812 320.6875 220.09375 321.484375 220.628906 C 322.480469 221.300781 324.433594 222.390625 324.324219 223.773438 C 324.257812 224.589844 323.347656 225.527344 322.972656 226.425781 C 322.925781 226.542969 322.921875 226.671875 322.96875 226.804688 C 323.824219 229.40625 324.46875 232.058594 324.90625 234.761719 C 324.925781 234.90625 325.003906 234.972656 325.132812 234.960938 C 325.605469 234.921875 325.082031 230.902344 329.230469 232.65625 C 330.839844 233.332031 332.957031 234.476562 335.582031 236.082031 C 335.644531 236.121094 335.707031 236.140625 335.769531 236.140625 C 335.832031 236.140625 335.875 236.117188 335.898438 236.078125 L 336.628906 234.824219 C 336.957031 234.253906 337.390625 234.046875 337.929688 234.199219 C 339.152344 234.550781 340.140625 234.976562 341.414062 234.773438 C 345.066406 234.179688 349.113281 232.105469 349.542969 238.183594 C 349.546875 238.246094 349.566406 238.304688 349.601562 238.359375 C 349.632812 238.414062 349.675781 238.457031 349.730469 238.488281 C 349.785156 238.519531 349.839844 238.535156 349.902344 238.53125 C 349.960938 238.53125 350.015625 238.515625 350.066406 238.484375 C 352.433594 237.007812 354.617188 237.175781 356.617188 238.992188 C 356.714844 239.082031 356.808594 239.078125 356.894531 238.980469 C 358.785156 236.785156 361.40625 235.199219 363.222656 238.859375 C 363.386719 239.1875 363.542969 239.183594 363.691406 238.847656 C 364.976562 235.925781 368.898438 237.152344 370.964844 234.117188 C 371.042969 234 371.152344 233.929688 371.289062 233.910156 C 371.429688 233.886719 371.550781 233.917969 371.664062 234.003906 C 372.261719 234.472656 373.015625 234.730469 373.832031 234.496094 C 375.976562 233.878906 380.25 233.417969 381.046875 236.265625 C 381.070312 236.351562 381.113281 236.425781 381.171875 236.492188 C 381.230469 236.558594 381.300781 236.609375 381.382812 236.644531 C 381.464844 236.679688 381.546875 236.695312 381.636719 236.691406 C 381.722656 236.6875 381.808594 236.664062 381.886719 236.621094 C 384.71875 235.113281 387.035156 236.523438 388.503906 239.003906 C 388.691406 239.320312 388.945312 239.476562 389.261719 239.476562 C 391.53125 239.484375 393.65625 240.011719 395.644531 241.054688 C 395.777344 241.125 395.878906 241.09375 395.945312 240.960938 L 396.910156 239.125 C 397.269531 238.433594 397.859375 238.34375 398.675781 238.851562 L 400.765625 240.15625 C 400.890625 240.238281 401.03125 240.265625 401.191406 240.246094 C 402.9375 240.023438 404.695312 240.082031 406.46875 240.414062 C 407.371094 240.585938 407.816406 240.207031 407.804688 239.277344 C 407.769531 235.492188 411.167969 235.800781 411.820312 238.703125 C 411.839844 238.785156 411.875 238.859375 411.929688 238.921875 C 411.980469 238.988281 412.046875 239.035156 412.125 239.066406 C 412.203125 239.097656 412.28125 239.109375 412.363281 239.101562 C 412.445312 239.09375 412.523438 239.0625 412.589844 239.015625 C 413.757812 238.203125 414.808594 237.265625 415.738281 236.203125 C 416.175781 235.699219 416.574219 235.722656 416.933594 236.265625 C 417.238281 236.71875 418.316406 238.546875 418.941406 238.257812 C 419.054688 238.207031 419.117188 238.109375 419.125 237.964844 C 419.277344 235.5625 420.566406 234.5 422.996094 234.777344 C 423.75 234.859375 424.253906 235.191406 424.503906 235.769531 L 425.566406 238.1875 C 425.609375 238.285156 425.691406 238.308594 425.804688 238.25 C 428.167969 236.988281 429.929688 235.980469 432.117188 237.550781 C 432.167969 237.589844 432.222656 237.609375 432.273438 237.609375 C 432.328125 237.609375 432.363281 237.59375 432.378906 237.554688 L 433.40625 235.324219 C 433.46875 235.191406 433.570312 235.089844 433.707031 235.023438 C 433.839844 234.953125 433.988281 234.933594 434.148438 234.953125 C 435.808594 235.191406 437.335938 235.78125 438.722656 236.730469 C 438.847656 236.820312 438.964844 236.808594 439.066406 236.699219 C 441.4375 234.179688 445.355469 230.339844 447.464844 236.222656 C 447.492188 236.296875 447.546875 236.347656 447.625 236.367188 C 447.703125 236.386719 447.777344 236.371094 447.839844 236.320312 C 450.421875 234.175781 453.789062 231.597656 456.386719 235.871094 C 456.609375 236.238281 456.808594 236.226562 456.984375 235.828125 C 458.050781 233.417969 459.773438 231.640625 462.144531 230.5 C 462.976562 230.097656 463.617188 230.152344 464.0625 230.65625 L 466.199219 233.089844 C 466.316406 233.21875 466.394531 233.21875 466.4375 233.089844 L 467.933594 228.3125 C 468.050781 227.941406 468.222656 227.914062 468.453125 228.234375 L 470.359375 230.898438 C 470.417969 230.980469 470.523438 231.007812 470.6875 230.992188 C 473.175781 230.730469 475.660156 230.585938 478.140625 230.554688 C 480.476562 230.523438 480.671875 228.40625 480.925781 226.617188 C 481.222656 224.453125 483.652344 225.007812 484.246094 226.640625 C 484.566406 227.507812 484.617188 228.640625 484.402344 230.039062 C 484.378906 230.191406 484.449219 230.574219 484.664062 230.433594 C 484.753906 230.378906 484.808594 230.269531 484.832031 230.109375 C 485.25 227.320312 486.757812 225.652344 489.359375 225.113281 C 492.191406 224.527344 490.976562 227.253906 491.667969 227.734375 C 491.773438 227.808594 491.867188 227.78125 491.953125 227.65625 C 493.261719 225.664062 494.207031 224.371094 496.691406 224.121094 C 496.816406 224.109375 496.941406 224.136719 497.0625 224.203125 C 498.414062 224.941406 499.480469 225.03125 501.054688 224.488281 C 503.109375 223.773438 505.019531 224.148438 506.78125 225.621094 C 506.921875 225.738281 507.066406 225.738281 507.207031 225.617188 C 508.496094 224.496094 509.898438 223.542969 511.410156 222.761719 C 513.320312 221.777344 514.804688 224.324219 515.699219 225.585938 C 515.730469 225.628906 515.765625 225.660156 515.8125 225.683594 C 515.859375 225.707031 515.90625 225.71875 515.957031 225.71875 C 516.003906 225.714844 516.050781 225.703125 516.089844 225.675781 C 516.128906 225.652344 516.160156 225.617188 516.179688 225.574219 C 517.183594 223.410156 518.828125 222.667969 521.109375 223.339844 C 521.234375 223.378906 521.367188 223.371094 521.503906 223.316406 C 523.996094 222.324219 525.152344 221.140625 527.113281 223.890625 C 527.210938 224.023438 527.339844 224.101562 527.5 224.125 C 527.664062 224.148438 527.808594 224.109375 527.9375 224.011719 C 530.742188 221.816406 533.269531 221.8125 536.054688 224.21875 C 536.160156 224.304688 536.257812 224.304688 536.351562 224.210938 C 537.519531 223.027344 538.03125 221.546875 539.972656 223.042969 C 542.441406 224.957031 544.507812 226.808594 546.167969 228.605469 C 546.257812 228.703125 546.363281 228.734375 546.488281 228.695312 C 549.355469 227.851562 551.625 227.277344 553.785156 229.863281 C 553.871094 229.96875 553.96875 229.980469 554.078125 229.894531 C 555.246094 228.964844 556.421875 228.050781 557.609375 227.15625 C 559.253906 225.910156 561.414062 227.652344 563.132812 228.195312 C 563.226562 228.222656 563.359375 228.195312 563.523438 228.113281 C 565.503906 227.09375 566.84375 227.628906 567.535156 229.714844 C 567.609375 229.9375 567.71875 229.957031 567.863281 229.777344 C 568.652344 228.773438 569.34375 227.5 570.820312 227.625 C 571.675781 227.695312 572.875 228.121094 573.632812 228.703125 C 574.335938 229.242188 574.558594 229.84375 574.304688 230.503906 L 573.550781 232.460938 C 573.519531 232.539062 573.523438 232.613281 573.5625 232.683594 C 573.601562 232.75 573.65625 232.78125 573.726562 232.769531 C 576.003906 232.421875 578.289062 232.25 580.585938 232.261719 C 583.140625 232.269531 584.183594 235.71875 584.753906 237.738281 C 584.839844 238.050781 584.949219 238.058594 585.082031 237.761719 C 586.921875 233.664062 589.394531 232.140625 590.582031 238.046875 C 590.609375 238.179688 590.683594 238.226562 590.808594 238.195312 C 592.15625 237.847656 594.4375 236.484375 595.15625 238.539062 C 595.199219 238.660156 595.28125 238.738281 595.402344 238.773438 C 595.523438 238.804688 595.632812 238.785156 595.734375 238.707031 C 597.234375 237.519531 598.769531 235.289062 600.769531 237.414062 C 600.996094 237.652344 601.492188 238.394531 602.253906 239.644531 C 602.320312 239.753906 602.414062 239.78125 602.535156 239.722656 C 603.753906 239.148438 604.699219 239.371094 605.769531 240.257812 C 607.046875 241.324219 608.386719 242.308594 609.78125 243.210938 C 611.179688 244.117188 611.703125 245.09375 611.039062 246.660156 C 611 246.753906 611.007812 246.839844 611.0625 246.921875 C 611.113281 247.003906 611.191406 247.046875 611.289062 247.046875 C 612.101562 247.058594 612.996094 247.332031 613.613281 247.488281 C 616.289062 248.140625 616.417969 250.011719 616.882812 252.339844 C 616.910156 252.46875 616.988281 252.554688 617.117188 252.589844 C 618.699219 253.035156 620.261719 253.496094 621.8125 253.976562 C 625.832031 255.21875 626.304688 259.089844 627.300781 262.492188 C 627.339844 262.625 627.492188 262.71875 627.761719 262.773438 L 631.332031 263.488281 C 631.996094 263.621094 632.425781 264.125 632.613281 264.996094 C 632.832031 266.003906 633 267.039062 633.113281 268.109375 C 633.304688 269.890625 635.371094 269.90625 636.660156 270.210938 C 637.164062 270.332031 637.507812 270.640625 637.679688 271.128906 C 638.351562 273.039062 639.039062 274.945312 641.355469 275.511719 C 641.488281 275.542969 641.585938 275.617188 641.644531 275.726562 C 642.542969 277.449219 640.980469 278.773438 639.949219 279.824219 C 639.652344 280.128906 639.714844 280.300781 640.140625 280.332031 C 642.507812 280.523438 646.238281 281.457031 646.960938 284.117188 C 647.265625 285.234375 646.652344 286.367188 646.355469 287.464844 C 646.320312 287.585938 646.367188 287.691406 646.488281 287.789062 L 649.597656 290.230469 C 650.378906 290.839844 650.519531 291.480469 650.019531 292.15625 L 648.75 293.871094 C 648.683594 293.960938 648.644531 294.054688 648.636719 294.148438 C 648.628906 294.242188 648.652344 294.316406 648.707031 294.363281 C 650.53125 296.011719 652.339844 297.65625 654.136719 299.304688 C 656.226562 301.21875 654.796875 303.402344 653.980469 305.457031 C 653.929688 305.582031 653.957031 305.6875 654.054688 305.773438 C 656.398438 307.875 657.992188 308.136719 657.394531 311.839844 C 656.738281 315.878906 661.835938 317.054688 661.3125 319.832031 C 661.210938 320.386719 660.753906 320.804688 660.488281 321.335938 C 660.433594 321.449219 660.4375 321.566406 660.503906 321.6875 C 661.628906 323.675781 660.613281 325.917969 660.109375 327.894531 C 660.078125 328.019531 660.101562 328.136719 660.171875 328.246094 C 660.851562 329.261719 661.535156 330.28125 662.269531 331.242188 C 663.917969 333.394531 662.722656 335.285156 661.671875 337.523438 C 661.617188 337.644531 661.636719 337.75 661.730469 337.839844 C 663.328125 339.429688 665.675781 340.992188 664.65625 343.59375 C 664.144531 344.890625 663.609375 346.175781 663.039062 347.449219 C 662.984375 347.574219 663 347.683594 663.089844 347.785156 C 664.328125 349.246094 666.203125 350.40625 663.722656 352.285156 C 663.617188 352.367188 663.554688 352.472656 663.542969 352.601562 C 663.382812 354.167969 664.40625 354.773438 665.0625 355.898438 C 665.390625 356.46875 665.3125 356.972656 664.828125 357.410156 C 663.175781 358.917969 664.378906 360.917969 664.871094 362.632812 C 664.933594 362.84375 664.941406 363.042969 664.898438 363.230469 C 664.855469 363.421875 664.765625 363.574219 664.632812 363.683594 L 662.144531 365.753906 C 661.488281 366.300781 661.429688 366.851562 661.976562 367.402344 C 664.105469 369.558594 666.109375 370.554688 665.636719 373.996094 C 665.613281 374.171875 665.667969 374.320312 665.800781 374.441406 C 667.066406 375.570312 669.707031 377.527344 668.625 379.53125 C 668.289062 380.148438 668.316406 380.714844 668.695312 381.230469 L 673.496094 387.746094 C 673.5625 387.835938 673.589844 387.929688 673.578125 388.03125 C 673.566406 388.132812 673.519531 388.210938 673.4375 388.269531 L 670.214844 390.488281 C 670.175781 390.511719 670.164062 390.554688 670.175781 390.609375 C 670.1875 390.664062 670.21875 390.714844 670.273438 390.761719 C 672.160156 392.386719 674.304688 394.011719 672.417969 396.769531 C 671.65625 397.882812 670.792969 398.910156 669.820312 399.847656 C 669.777344 399.890625 669.742188 399.945312 669.726562 400.003906 C 669.707031 400.0625 669.703125 400.121094 669.714844 400.183594 C 669.726562 400.242188 669.75 400.296875 669.789062 400.347656 C 669.828125 400.394531 669.878906 400.429688 669.933594 400.453125 C 673.199219 401.78125 676.996094 405.554688 673.039062 408.976562 C 672.945312 409.058594 672.921875 409.15625 672.964844 409.269531 L 674.039062 412.074219 C 674.316406 412.804688 674.117188 413.347656 673.4375 413.703125 L 671.03125 414.964844 C 670.964844 415 670.917969 415.050781 670.890625 415.113281 C 670.867188 415.179688 670.871094 415.238281 670.902344 415.292969 L 672.332031 417.628906 C 672.621094 418.101562 672.597656 418.683594 672.261719 419.375 L 671.769531 420.382812 C 671.746094 420.425781 671.804688 420.546875 671.945312 420.75 C 674.453125 424.378906 675.496094 425.976562 671.945312 429.492188 C 671.847656 429.585938 671.851562 429.675781 671.953125 429.765625 C 673.035156 430.691406 675.191406 432.316406 674.449219 433.480469 C 673.902344 434.332031 672.703125 434.121094 672.070312 435.410156 C 672.015625 435.523438 672.003906 435.648438 672.035156 435.78125 C 672.707031 438.457031 673.515625 440.234375 670.910156 442.183594 C 670.789062 442.273438 670.714844 442.386719 670.683594 442.53125 C 670.652344 442.671875 670.675781 442.800781 670.753906 442.917969 C 671.75 444.449219 672.5 446.085938 673.011719 447.820312 C 673.242188 448.597656 673.003906 449.183594 672.292969 449.566406 C 671.285156 450.117188 670.203125 450.402344 669.050781 450.425781 C 668.5 450.4375 668.460938 450.59375 668.925781 450.894531 C 672.015625 452.878906 670.671875 456.542969 669.890625 459.71875 C 669.902344 459.714844 669.882812 459.734375 669.824219 459.785156 C 669.769531 459.839844 669.695312 459.902344 669.605469 459.976562 L 666.152344 462.875 C 666.117188 462.898438 666.097656 463.042969 666.089844 463.308594 C 666.050781 467.15625 664.1875 469.5625 660.496094 470.53125 C 660.386719 470.5625 660.308594 470.625 660.261719 470.722656 C 660.210938 470.820312 660.207031 470.917969 660.25 471.015625 C 663.449219 478.53125 668.28125 484.414062 673.492188 490.597656 C 675.199219 492.625 676.308594 494.199219 676.816406 495.328125 C 679.222656 500.664062 677.257812 505.222656 675.300781 511.25 C 673.746094 516.035156 673.011719 521.84375 672.445312 527.714844 C 671.398438 538.550781 670.339844 549.386719 669.269531 560.21875 C 669.097656 561.933594 668.972656 564.894531 668.886719 569.101562 C 668.773438 575.058594 668.300781 580.644531 667.855469 586.414062 C 667.714844 588.238281 667.691406 590.15625 667.78125 592.160156 C 668.085938 598.574219 667.578125 604.253906 669.410156 610.367188 C 670.984375 615.621094 672.429688 620.910156 673.742188 626.238281 C 674.707031 630.144531 672.914062 634.070312 668.125 632.1875 C 667.382812 631.890625 666.933594 632.136719 666.78125 632.917969 C 665.597656 638.898438 664.300781 645.074219 662.902344 651.4375 C 661.300781 658.71875 657.292969 662.199219 650.015625 662.824219 C 644.714844 663.277344 639.40625 663.601562 634.089844 663.792969 C 633.59375 663.8125 633.179688 664.007812 632.847656 664.375 C 630.828125 666.632812 624.734375 668.785156 623.847656 664.136719 C 621.832031 653.496094 631.238281 642.542969 636.601562 634.28125 C 638.613281 631.183594 639.726562 627.632812 639.949219 623.632812 C 640.667969 610.464844 644.023438 595.972656 645.382812 586.582031 C 647.085938 574.800781 647.261719 563.691406 645.914062 553.246094 C 645.773438 552.167969 645.132812 549.066406 643.996094 543.9375 C 642.492188 537.167969 641.246094 529.183594 640.257812 519.988281 C 640.058594 518.117188 639.511719 515.738281 638.621094 512.847656 C 635.507812 502.742188 629.996094 493.425781 622.929688 485.527344 C 622.859375 485.445312 622.769531 485.398438 622.660156 485.378906 C 622.550781 485.363281 622.449219 485.382812 622.355469 485.4375 C 619.515625 487.089844 617.683594 483.484375 614.628906 483.601562 C 612.195312 483.695312 611.210938 481.417969 609.777344 480.027344 C 609.226562 479.488281 608.566406 479.273438 607.796875 479.382812 C 602.132812 480.226562 602.136719 474.078125 597.601562 473.144531 C 597.394531 473.101562 597.261719 473.050781 597.207031 472.984375 L 595.136719 470.585938 C 594.921875 470.335938 594.695312 470.253906 594.464844 470.339844 C 592.398438 471.105469 589.925781 472.453125 588.636719 469.679688 C 588.167969 468.679688 587.75 467.65625 587.375 466.609375 C 587.140625 465.945312 586.792969 465.882812 586.335938 466.417969 C 584.839844 468.167969 582.386719 469.089844 579.988281 469.042969 C 578.734375 469.019531 577.496094 468.71875 576.359375 469.3125 C 575.40625 469.8125 574.605469 470.5 573.949219 471.371094 C 573.871094 471.476562 573.863281 471.589844 573.929688 471.707031 C 578.351562 479.953125 582.320312 485.957031 588.253906 492.164062 C 592.242188 496.335938 593.566406 501.148438 590.921875 506.507812 C 588.148438 512.136719 584.375 520.667969 582.238281 528.144531 C 577.722656 543.941406 571.800781 559.222656 566.140625 574.625 C 562.414062 584.773438 559.554688 595.425781 556.695312 605.847656 C 555.246094 611.140625 553.125 615.765625 554.027344 621.429688 C 554.417969 623.890625 554.214844 625.640625 551.390625 625.953125 C 547.890625 626.34375 545.132812 624.972656 543.121094 621.835938 C 542.945312 621.5625 542.792969 621.574219 542.667969 621.875 C 540.542969 626.984375 537.414062 632.914062 536.21875 637.835938 C 535.722656 639.886719 535.507812 641.609375 534.316406 643.175781 C 531.503906 646.863281 526.09375 647.582031 521.804688 647.546875 C 515.421875 647.492188 507.910156 647.300781 499.273438 646.972656 C 496.730469 646.875 492.734375 646.882812 494.277344 642.914062 C 498.664062 631.613281 506.167969 625.910156 515.832031 618.246094 C 518.914062 615.808594 520.566406 612.859375 521.941406 608.824219 C 525.210938 599.265625 527.894531 592.023438 532.503906 584.195312 C 533.023438 583.304688 533.527344 582.003906 534.007812 580.289062 C 536.359375 571.933594 539.304688 563.683594 541.957031 555.410156 C 544.578125 547.242188 547.472656 539.171875 546.933594 532 C 546.710938 529.078125 546.632812 527.160156 546.695312 526.246094 C 546.996094 521.902344 547.152344 519.324219 545.488281 515.804688 C 545.433594 515.6875 545.414062 515.5625 545.4375 515.429688 C 545.707031 513.746094 545.464844 512.296875 544.710938 511.082031 C 540.949219 505.03125 537.425781 498.660156 533.699219 492.484375 C 533.628906 492.371094 533.535156 492.34375 533.421875 492.410156 C 532.25 493.117188 531.664062 494.078125 531.660156 495.292969 C 531.652344 500.339844 530.820312 505.386719 525.765625 507.765625 C 525.027344 508.117188 524.375 507.976562 523.816406 507.351562 L 522.050781 505.363281 C 521.75 505.027344 521.550781 505.074219 521.449219 505.5 C 519.859375 512.203125 514.355469 510 509.5 509.460938 C 508.046875 509.304688 506.367188 509.472656 504.464844 509.96875 C 502.316406 510.527344 500.027344 510.074219 497.898438 509.671875 C 497.742188 509.644531 497.660156 509.574219 497.644531 509.464844 L 496.992188 504.828125 C 496.90625 504.21875 496.746094 504.195312 496.511719 504.757812 C 495.285156 507.664062 492.871094 514.144531 488.746094 512.792969 C 488.1875 512.609375 487.71875 512.550781 487.347656 512.621094 C 486.28125 512.816406 484.8125 513.660156 484.085938 512.277344 C 483.28125 510.75 482.542969 509.191406 481.871094 507.601562 C 481.699219 507.183594 481.609375 507.210938 481.605469 507.679688 C 481.585938 509.9375 481.171875 511.929688 478.738281 512.726562 C 478.148438 512.921875 477.679688 512.722656 477.335938 512.140625 L 476.390625 510.515625 C 475.957031 509.769531 475.351562 509.589844 474.570312 509.976562 C 471.496094 511.492188 470.355469 513.265625 467.53125 509.625 C 467.480469 509.558594 467.40625 509.519531 467.3125 509.519531 C 467.21875 509.515625 467.132812 509.546875 467.050781 509.609375 L 465.191406 511.113281 C 465.152344 511.148438 465.105469 511.152344 465.050781 511.125 C 465 511.097656 464.964844 511.054688 464.945312 510.992188 C 463.855469 507.734375 459.460938 508.484375 459.285156 504.386719 C 459.277344 504.230469 459.242188 504.199219 459.171875 504.296875 L 456.351562 508.4375 C 456.292969 508.519531 456.222656 508.566406 456.132812 508.585938 C 456.046875 508.601562 455.976562 508.578125 455.929688 508.515625 L 454.121094 506.25 C 453.601562 505.59375 453.050781 505.382812 452.472656 505.621094 C 451.878906 505.871094 451.246094 505.921875 450.574219 505.769531 C 435.125 502.3125 420.75 497.863281 407.085938 490.714844 C 403.035156 488.597656 399.21875 487.820312 394.75 487.867188 C 393.175781 487.882812 392.054688 487.398438 391.03125 488.996094 C 383.289062 501.046875 374.9375 513.511719 369.117188 526.140625 C 367.273438 530.140625 367.105469 533.160156 366.644531 538.699219 C 366.121094 545.070312 363.84375 551.078125 364.457031 557.515625 C 365.007812 563.324219 365.5 569.140625 365.941406 574.960938 C 366.335938 580.167969 367.195312 586.796875 368.523438 594.84375 C 370.171875 604.839844 371.691406 612.417969 375.652344 620.757812 C 377.039062 623.671875 377.695312 625.628906 377.34375 628.546875 C 377.054688 630.917969 376.371094 633.023438 373.894531 633.554688 C 371.957031 633.972656 370.511719 632.25 369.339844 630.964844 C 368.710938 630.285156 368.339844 630.355469 368.222656 631.175781 C 367.464844 636.40625 366.726562 641.621094 366.695312 646.914062 C 366.613281 659.488281 355.933594 662.328125 345.855469 663.609375 C 339.996094 664.355469 334.117188 664.855469 328.214844 665.101562 C 325.410156 665.222656 323.453125 665.101562 322.347656 664.742188 C 318.929688 663.625 318.957031 659.5625 320.386719 656.96875 C 324.851562 648.855469 331.253906 641.421875 337.269531 633.980469 C 340.023438 630.570312 341.753906 627.460938 342.808594 623.535156 C 346.214844 610.832031 346.25 596.097656 345.921875 582.730469 C 345.785156 577.179688 345.035156 571.894531 343.664062 566.871094 C 341.480469 558.867188 337.511719 551.257812 336.40625 542.605469 C 335.664062 536.777344 336.335938 532.675781 338.503906 527.40625 C 339.65625 524.609375 340.6875 520.917969 341.605469 516.332031 C 343.226562 508.234375 344.25 500.058594 344.679688 491.808594 C 344.683594 491.71875 344.640625 491.664062 344.546875 491.648438 C 342.453125 491.3125 340.828125 490.253906 339.675781 488.46875 C 337.847656 485.652344 335.914062 482.902344 333.867188 480.226562 C 333.820312 480.164062 333.796875 480.097656 333.800781 480.027344 C 333.804688 479.957031 333.832031 479.90625 333.882812 479.878906 L 337.304688 478.125 C 337.363281 478.09375 337.398438 478.046875 337.410156 477.976562 C 337.417969 477.910156 337.398438 477.855469 337.347656 477.808594 C 334.308594 475.1875 331.492188 474.875 327.457031 475.171875 C 325.265625 475.328125 323.898438 475.378906 323.347656 475.320312 C 316.027344 474.539062 313.386719 475.648438 311.574219 483.066406 C 309.441406 491.800781 307.339844 500.546875 305.269531 509.304688 C 303.527344 516.667969 302.515625 522.742188 302.402344 529.914062 C 302.367188 531.890625 301.980469 535.359375 301.238281 540.328125 C 300.269531 546.8125 299.277344 553.292969 298.265625 559.769531 C 296.929688 568.355469 295.730469 576.707031 295.6875 584.640625 C 295.679688 586.597656 295.765625 593.050781 295.949219 604.007812 C 296.082031 612.289062 296.855469 620.773438 298.261719 629.464844 C 299.597656 637.71875 292.792969 638.277344 288.507812 633.234375 C 288.234375 632.910156 288.050781 632.953125 287.960938 633.375 C 286.832031 638.707031 284.539062 644.140625 284.652344 649.292969 C 284.75 653.5 284.015625 656.996094 280.050781 659.164062 C 278.425781 660.050781 276.40625 660.570312 273.988281 660.71875 C 269.394531 661.007812 264.796875 661.261719 260.203125 661.476562 C 254.292969 661.757812 248.753906 662.289062 243.035156 662.839844 C 241.207031 663.019531 239.855469 662.945312 238.28125 662.347656 C 237.589844 662.082031 237.179688 661.585938 237.050781 660.855469 C 236.886719 659.945312 236.992188 659.027344 237.363281 658.097656 C 239.492188 652.742188 242.917969 647.984375 247.636719 643.828125 C 252.152344 639.855469 254.949219 637.324219 256.03125 636.242188 C 259.144531 633.117188 261.027344 628.945312 262.613281 624.203125 C 264.570312 618.359375 267.238281 611.9375 270.605469 604.945312 C 273.601562 598.738281 275.078125 592.140625 275.539062 584.925781 C 276.085938 576.394531 277.074219 568.410156 276.316406 559.585938 C 275.578125 551.019531 275.007812 542.917969 274.605469 535.277344 C 274.382812 531.0625 274.449219 527.5625 275.589844 522.480469 C 277.824219 512.542969 277.160156 503.050781 275.019531 493.277344 C 273.453125 486.136719 272.359375 481.4375 271.742188 479.175781 C 270.988281 476.414062 269.535156 473.960938 267.378906 471.816406 C 267.273438 471.710938 267.144531 471.667969 266.996094 471.6875 C 266.847656 471.707031 266.738281 471.785156 266.664062 471.914062 C 266.117188 472.875 265.308594 473.394531 264.238281 473.476562 C 262.820312 473.582031 261.945312 472.324219 260.535156 472.292969 C 259.179688 472.261719 257.796875 472.390625 256.390625 472.671875 C 255.855469 472.78125 255.609375 472.570312 255.652344 472.042969 L 255.953125 468.261719 C 255.957031 468.191406 255.933594 468.132812 255.875 468.09375 C 255.816406 468.050781 255.757812 468.042969 255.691406 468.070312 C 254.066406 468.707031 252.382812 469.214844 250.644531 469.589844 C 248.464844 470.058594 247.578125 468.511719 246.328125 466.675781 C 246.207031 466.503906 246.097656 466.433594 246 466.46875 L 243.191406 467.59375 C 243.074219 467.640625 242.964844 467.648438 242.859375 467.621094 C 242.75 467.59375 242.683594 467.535156 242.648438 467.449219 C 241.945312 465.65625 241.292969 464.519531 242.550781 462.664062 C 242.835938 462.246094 243.074219 461.800781 243.261719 461.332031 C 243.277344 461.289062 243.273438 461.25 243.246094 461.210938 C 243.21875 461.175781 243.179688 461.15625 243.132812 461.160156 C 238.40625 461.546875 235.796875 460.472656 237.554688 455.042969 C 237.65625 454.738281 237.554688 454.648438 237.257812 454.777344 C 230.8125 457.558594 229.53125 455.015625 228.082031 449.292969 C 228.050781 449.164062 227.972656 449.085938 227.839844 449.0625 C 226.886719 448.894531 225.742188 448.914062 224.957031 448.578125 C 221.957031 447.3125 225 443.289062 226.21875 441.773438 C 226.523438 441.390625 226.4375 441.25 225.960938 441.351562 C 220.320312 442.558594 214.683594 440.683594 218.515625 433.613281 C 218.546875 433.554688 218.546875 433.5 218.523438 433.441406 C 218.496094 433.382812 218.453125 433.347656 218.394531 433.332031 C 215.0625 432.5625 213 432.320312 213.355469 428.152344 C 213.5 426.394531 213.671875 424.613281 213.863281 422.800781 C 213.875 422.695312 213.847656 422.597656 213.78125 422.511719 C 213.714844 422.425781 213.628906 422.375 213.523438 422.355469 C 209.4375 421.710938 207.851562 420.234375 209.066406 415.910156 C 209.453125 414.535156 207.539062 412.855469 206.707031 411.824219 C 206.621094 411.71875 206.519531 411.648438 206.394531 411.605469 C 204.261719 410.925781 200.742188 411.070312 202.851562 407.445312 C 203.753906 405.894531 204.683594 404.398438 205.628906 402.960938 C 205.699219 402.859375 205.71875 402.75 205.695312 402.628906 C 205.667969 402.507812 205.601562 402.414062 205.5 402.347656 C 201.246094 399.65625 201.355469 397.34375 204.0625 393.46875 C 204.136719 393.359375 204.164062 393.242188 204.144531 393.113281 C 203.664062 390.285156 199.195312 389.738281 199.328125 387.558594 C 199.335938 387.441406 199.382812 387.324219 199.464844 387.203125 C 200.523438 385.699219 198.796875 383.945312 197.9375 382.714844 C 197.574219 382.199219 197.625 381.722656 198.085938 381.285156 C 199.734375 379.722656 199.800781 378.121094 198.28125 376.480469 C 197.539062 375.683594 196.4375 375.363281 195.414062 374.976562 C 194.0625 374.464844 194.058594 373.113281 195.480469 372.902344 C 196.414062 372.765625 201.164062 372.996094 197.070312 370.964844 C 194.511719 369.699219 194.222656 367.828125 195.132812 364.941406 C 195.15625 364.867188 195.164062 364.792969 195.148438 364.714844 C 195.136719 364.640625 195.109375 364.570312 195.0625 364.507812 C 195.019531 364.445312 194.960938 364.398438 194.894531 364.367188 C 194.828125 364.332031 194.753906 364.320312 194.679688 364.320312 L 192 364.4375 C 191.914062 364.441406 191.847656 364.402344 191.800781 364.324219 C 191.753906 364.246094 191.746094 364.164062 191.777344 364.070312 C 192.648438 361.6875 195.421875 354.03125 193.730469 352.039062 C 192.449219 350.53125 192.320312 348.316406 192.949219 346.578125 C 193.03125 346.34375 193.605469 345.386719 194.671875 343.699219 C 195.507812 342.382812 196.148438 340.949219 196.59375 339.402344 C 196.726562 338.945312 196.601562 338.578125 196.214844 338.300781 C 193.976562 336.707031 194.179688 334.75 193.886719 332.429688 C 193.832031 332.019531 193.9375 331.632812 194.199219 331.269531 L 195.8125 329.003906 C 195.917969 328.855469 195.917969 328.730469 195.8125 328.632812 L 193.871094 326.800781 C 193.535156 326.484375 193.355469 326.183594 193.339844 325.894531 L 192.738281 316.761719 C 192.71875 316.445312 192.882812 316.160156 193.222656 315.898438 L 196.207031 313.621094 C 196.308594 313.542969 196.355469 313.429688 196.347656 313.269531 C 196.167969 309.488281 195.902344 307.011719 193.898438 304.523438 C 193.714844 304.296875 193.703125 304.0625 193.859375 303.816406 C 194.929688 302.125 194.078125 299.988281 193.507812 298.261719 C 193.363281 297.816406 193.40625 297.480469 193.636719 297.246094 L 195.855469 295 C 195.925781 294.925781 195.964844 294.84375 195.96875 294.75 C 195.96875 294.652344 195.9375 294.582031 195.867188 294.527344 C 194.757812 293.679688 191.347656 291.46875 192.722656 289.832031 C 193.3125 289.132812 194.613281 288.875 195.257812 288.332031 C 196.261719 287.476562 196.691406 286.371094 196.546875 285.011719 C 196.511719 284.65625 196.632812 284.367188 196.910156 284.144531 C 200.582031 281.203125 197.800781 277.332031 199.628906 273.640625 C 199.691406 273.519531 199.703125 273.398438 199.671875 273.277344 C 199.214844 271.589844 198.304688 271.378906 196.941406 272.644531 C 191.242188 277.917969 184.800781 281.925781 177.617188 284.679688 C 172.3125 286.710938 167.648438 286.574219 163.367188 282.707031 C 162.261719 281.707031 161.050781 281.554688 159.671875 281.410156 C 159.535156 281.398438 159.417969 281.347656 159.316406 281.265625 C 157.894531 280.113281 153.0625 275.402344 155.683594 273.882812 C 156.097656 273.640625 157.558594 273.058594 160.058594 272.132812 C 160.296875 272.046875 160.757812 271.636719 160.035156 271.617188 C 156.179688 271.5 152.085938 271.429688 151.210938 266.652344 C 149.515625 257.363281 149.414062 247.917969 153.269531 239.117188 C 158.546875 227.078125 164.945312 215.523438 170.894531 203.808594 C 174.523438 196.65625 176.359375 192.527344 178.289062 185.296875 C 178.332031 185.132812 178.332031 185.011719 178.285156 184.929688 L 173.257812 175.878906 C 172.96875 175.363281 172.511719 175.109375 171.882812 175.117188 C 165.601562 175.160156 158.289062 171.683594 153.703125 169.605469 C 146.636719 166.398438 140.773438 161.722656 135.648438 155.894531 C 133.5 153.453125 131.773438 150.425781 131.144531 147.472656 C 130.722656 145.484375 132.308594 145.199219 133.953125 144.832031 C 136.878906 144.171875 139.5625 143.746094 142.671875 143.902344 C 150.871094 144.316406 159 144.824219 166.980469 146.882812 C 170.582031 147.8125 176.242188 149.8125 183.964844 152.875 C 190.28125 155.382812 201.628906 149.027344 208.1875 146.746094 C 211.210938 145.695312 213.160156 145.078125 214.035156 144.902344 C 215.605469 144.589844 216.5625 143.660156 216.90625 142.105469 C 216.921875 142.046875 216.953125 142.007812 217.003906 141.980469 C 217.054688 141.953125 217.105469 141.953125 217.152344 141.980469 L 219.898438 143.417969 C 220.070312 143.507812 220.175781 143.511719 220.21875 143.425781 L 221.320312 141.355469 C 221.363281 141.273438 221.429688 141.226562 221.515625 141.214844 C 221.605469 141.199219 221.671875 141.226562 221.71875 141.296875 L 223.105469 143.285156 C 223.183594 143.398438 223.292969 143.457031 223.429688 143.464844 C 223.570312 143.476562 223.6875 143.433594 223.789062 143.335938 L 225.496094 141.664062 C 225.566406 141.59375 225.652344 141.617188 225.746094 141.726562 L 227 143.164062 C 227.058594 143.230469 227.167969 143.277344 227.328125 143.296875 C 230.789062 143.769531 234.25 144.222656 237.714844 144.652344 C 241.320312 145.101562 244.90625 146.070312 248.53125 146.796875 C 249.355469 146.960938 250.132812 146.839844 250.867188 146.429688 C 251.917969 145.847656 253.257812 145.65625 254.878906 145.855469 C 257.253906 146.144531 256.402344 148.328125 255.707031 149.660156 C 255.578125 149.90625 255.648438 150.011719 255.925781 149.972656 C 257.207031 149.796875 258.820312 148.144531 259.738281 150.007812 C 259.761719 150.058594 259.800781 150.085938 259.851562 150.097656 C 259.90625 150.105469 259.953125 150.09375 260 150.0625 L 260.976562 149.328125 C 261.632812 148.828125 261.898438 149.011719 261.765625 149.878906 C 261.210938 153.535156 264.09375 151.625 265.726562 151.769531 C 265.875 151.78125 265.984375 151.847656 266.054688 151.96875 C 266.605469 152.90625 266.84375 153.917969 266.761719 155.003906 C 266.753906 155.109375 266.832031 155.167969 267 155.179688 C 267.769531 155.234375 268.503906 155.28125 269.199219 155.328125 C 271.167969 155.445312 270.890625 156.882812 271.253906 158.234375 C 271.289062 158.359375 271.359375 158.46875 271.464844 158.550781 C 273.796875 160.425781 277.382812 161.847656 278.078125 165.464844 C 278.085938 165.515625 278.113281 165.550781 278.160156 165.574219 C 278.203125 165.597656 278.25 165.601562 278.296875 165.582031 C 284.160156 163.015625 290.941406 164.738281 296.8125 166.546875 C 301.636719 168.03125 305.523438 169.417969 308.476562 170.703125 C 310.035156 171.382812 311.589844 172.394531 313.144531 173.738281 C 316.421875 176.582031 317.726562 179.5 316.113281 183.625 C 313.570312 190.152344 309.320312 195.152344 303.359375 198.628906 C 303.183594 198.730469 303.121094 198.828125 303.175781 198.921875 L 305.96875 203.96875 C 306.011719 204.042969 306.074219 204.046875 306.160156 203.984375 C 307.980469 202.625 310.476562 201.757812 312.679688 202.707031 C 312.71875 202.726562 312.746094 202.757812 312.75 202.804688 C 312.757812 202.851562 312.746094 202.886719 312.710938 202.917969 C 312.296875 203.285156 308.339844 206.5 308.34375 206.519531 C 308.355469 206.597656 308.40625 206.625 308.5 206.609375 Z M 308.5 206.609375 " fill-opacity="1" fill-rule="nonzero"/></g></svg>