<svg xmlns="http://www.w3.org/2000/svg" xmlns:xlink="http://www.w3.org/1999/xlink" width="1080" zoomAndPan="magnify" viewBox="0 0 810 809.999993" height="1080" preserveAspectRatio="xMidYMid meet" version="1.0"><defs><clipPath id="9902c72ac7"><path d="M 89 222.351562 L 719 222.351562 L 719 587 L 89 587 Z M 89 222.351562 " clip-rule="nonzero"/></clipPath></defs><rect x="-81" width="972" fill="#ffffff" y="-80.999999" height="971.999992" fill-opacity="1"/><rect x="-81" width="972" fill="#003e52" y="-80.999999" height="971.999992" fill-opacity="1"/><g clip-path="url(#9902c72ac7)"><path fill="#fffaf3" d="M 696.746094 446.859375 C 695.335938 447.144531 693.988281 447.425781 690.488281 448.136719 C 699.277344 449.90625 696.261719 456.414062 698.605469 460.367188 C 700.160156 462.988281 700.726562 466.242188 703.648438 468.03125 C 705 468.855469 705.898438 470.574219 704.3125 471.566406 C 697.914062 475.550781 704.253906 476.429688 705.929688 478.113281 C 708.339844 480.535156 712.605469 481.011719 709.988281 486.789062 C 708.445312 490.195312 712.085938 494.558594 717.269531 497.507812 C 710.667969 497.953125 710.753906 498.898438 713.894531 503.429688 C 717.734375 508.964844 714.878906 516.785156 716.667969 523.3125 C 721.972656 542.632812 713.257812 557.878906 702.703125 572.578125 C 697.898438 579.269531 690.480469 581.820312 682.816406 583.144531 C 675.003906 584.496094 667.039062 584.941406 659.179688 586.042969 C 648.292969 587.582031 638.285156 583.828125 628.046875 581.320312 C 625.046875 580.589844 626.621094 578.617188 626.957031 577.496094 C 628.925781 570.820312 634.320312 568.464844 640.523438 567.308594 C 645.957031 566.296875 651.375 565.445312 655.605469 561.226562 C 662.445312 554.398438 662.515625 547.078125 655.492188 540.53125 C 651.5625 536.859375 650.363281 531.382812 646.425781 526.519531 C 645.878906 530.324219 648.035156 533.132812 646.605469 536.8125 C 641.046875 529.726562 635.75 522.984375 630.460938 516.238281 C 628.433594 518.441406 631.960938 520.3125 629.910156 523.324219 C 624.359375 511.652344 612.125 506.21875 606.746094 494.851562 C 606.335938 493.976562 605.882812 493.109375 604.824219 492.585938 C 604.160156 496.988281 600.511719 500.082031 601.769531 504.421875 C 601.9375 505 602.324219 505.632812 601.40625 506.238281 C 595.707031 509.984375 595.730469 510.015625 598.675781 518.242188 C 597.433594 520.039062 596.101562 518.449219 594.84375 518.269531 C 593.699219 518.101562 592.59375 517.683594 591.242188 517.316406 C 590.140625 521.089844 595.261719 523.378906 593.558594 527.152344 C 590.414062 527.425781 589.621094 523.710938 586.898438 523.363281 C 586.558594 532.800781 584.992188 536.675781 582.207031 534.988281 C 582.207031 536.9375 582.148438 538.847656 582.222656 540.757812 C 582.300781 542.773438 585.636719 546.488281 579.765625 545.230469 C 578.882812 545.042969 578.261719 545.640625 578.507812 546.378906 C 580.898438 553.472656 573.878906 557.5 572.953125 563.875 C 571.222656 575.789062 564.855469 580.523438 552.726562 581.566406 C 536.894531 582.929688 521.046875 584.167969 505.195312 585.21875 C 495.5 585.863281 485.960938 585.011719 477.03125 580.601562 C 473.75 578.984375 470.351562 577.667969 466.875 581.175781 C 466.605469 578.214844 466.382812 575.871094 466.125 573.023438 C 462.863281 574.28125 460.03125 575.378906 456.152344 576.882812 C 457.96875 570.753906 461.773438 567.460938 466.210938 564.824219 C 473.976562 560.214844 482.320312 557.726562 491.441406 557.105469 C 515.449219 555.488281 520.46875 549.28125 516.789062 526.125 C 514.871094 514.078125 513.421875 501.828125 515.164062 489.902344 C 516.121094 483.382812 509.675781 479.070312 512.554688 472.800781 C 513.605469 470.511719 513.472656 467.683594 513.90625 464.9375 C 511.429688 464.992188 511.941406 467.90625 510.09375 468.539062 C 507.453125 467.304688 508.675781 464.925781 508.65625 462.988281 C 508.636719 460.84375 508.730469 458.675781 509.015625 456.558594 C 509.433594 453.480469 506.582031 451.75 505.15625 451.019531 C 502.441406 449.625 503.074219 453.925781 501.199219 454.96875 C 498.589844 454.71875 500.398438 451.503906 498.050781 450.550781 C 495.65625 453.511719 493.75 456.027344 488.316406 456.453125 C 482.734375 456.894531 481.222656 451.894531 476.585938 452.773438 C 475.851562 454.171875 476.363281 456.867188 474.003906 458.628906 C 471.867188 456.519531 471.082031 451.636719 465.652344 454.871094 C 463.78125 455.980469 460.402344 452.195312 457.5 449.554688 C 462.851562 455.550781 453.773438 454.957031 454.222656 458.703125 C 453.59375 458.535156 452.492188 458.496094 452.40625 458.183594 C 450.855469 452.535156 443.347656 454.824219 441.757812 449.195312 C 440.972656 450.097656 440.605469 450.410156 440.375 450.804688 C 439.195312 452.800781 441.207031 456.386719 438.199219 457 C 436.855469 457.273438 434.859375 454.742188 433.28125 453.351562 C 431.25 451.5625 429.402344 447.976562 427.257812 453.265625 C 427.078125 453.699219 426.1875 453.84375 425.628906 454.132812 C 424.804688 447.476562 417.5 452.160156 414.863281 447.835938 C 412.074219 443.273438 412.121094 449.132812 410.644531 449.601562 C 408.0625 446.414062 405.535156 443.292969 403.007812 440.171875 C 402.527344 440.378906 402.046875 440.585938 401.574219 440.789062 C 402.585938 445.230469 402.449219 450.453125 404.828125 453.957031 C 411.039062 463.085938 408.847656 474.59375 414.476562 483.835938 C 416.851562 487.742188 410.792969 483.914062 410.871094 487.3125 C 416.074219 491.058594 415.390625 497.214844 415.410156 503.109375 C 415.414062 505.433594 416.488281 507.222656 417.417969 509.164062 C 417.910156 510.191406 419.832031 511.828125 417.125 512.300781 C 413.484375 512.9375 415.457031 514.722656 415.933594 516.390625 C 418.941406 526.839844 420.519531 537.417969 418.683594 548.289062 C 416.421875 561.710938 407.089844 571.679688 393.496094 573.261719 C 377.589844 575.117188 361.539062 577.519531 346.140625 569.476562 C 341.027344 566.800781 341.84375 564.804688 344.660156 561.53125 C 347.691406 557.992188 352.03125 557.1875 356.210938 556.128906 C 358.765625 555.484375 361.398438 555.164062 363.996094 554.683594 C 367.046875 554.121094 370.726562 554.03125 371.605469 550.359375 C 372.589844 546.261719 369.605469 543.121094 366.644531 541.503906 C 362.53125 539.246094 360.128906 536.039062 358.425781 532.074219 C 356.75 528.175781 357.140625 531.230469 356.0625 532.375 C 354.574219 533.953125 354.082031 531.65625 353.488281 530.722656 C 350.179688 525.480469 346.878906 520.238281 342.070312 515.480469 C 340.300781 518.375 339.78125 522.375 335.429688 522.378906 C 334.851562 522.378906 334.019531 523.03125 333.738281 523.589844 C 328.289062 534.65625 325.886719 537.472656 315.847656 544.382812 C 315.253906 544.789062 314.136719 545.550781 314.175781 545.617188 C 318.621094 553.320312 307.058594 551.429688 307.496094 556.742188 C 307.535156 557.253906 306.785156 558.257812 306.3125 558.316406 C 293.363281 559.847656 286.578125 571.511719 275.871094 576.808594 C 269.097656 580.164062 262.449219 583.230469 254.804688 583.574219 C 239 584.292969 223.183594 586.171875 207.457031 582.683594 C 205.53125 582.257812 201.828125 583.914062 199.429688 585.90625 C 197.835938 583.855469 201.253906 580.183594 197.835938 579.144531 C 194.402344 578.101562 195.066406 582.949219 192.757812 584.113281 C 190.6875 575.390625 192.398438 572.390625 199.351562 567.480469 C 207.714844 561.578125 217.15625 559.082031 226.859375 557.425781 C 236.613281 555.757812 242.722656 550.804688 244.105469 540.882812 C 246.453125 524.003906 252.941406 508.507812 259.75 493.117188 C 270.554688 468.683594 269.664062 443.605469 264.652344 418.113281 C 262.96875 409.539062 262.6875 400.699219 252.800781 396.789062 C 250.199219 395.757812 246.59375 396.660156 245.195312 392.882812 C 244.863281 391.976562 243.027344 391.777344 242.375 393.382812 C 241.011719 396.753906 239.898438 394.417969 237.855469 393.875 C 233.511719 392.714844 230.230469 391.046875 226.570312 388.199219 C 223.789062 386.035156 223.578125 392.96875 220.65625 395.144531 C 218.679688 392.203125 215.472656 390.027344 216.21875 385.582031 C 212.21875 387.285156 210.21875 393.300781 204.914062 389.070312 C 204.632812 388.84375 200.960938 389.921875 200.480469 392.042969 C 199.628906 395.796875 196.757812 393.441406 195.007812 393.902344 C 191.265625 394.886719 194.539062 390.367188 192.011719 389.65625 C 190.746094 391.191406 189.398438 392.835938 188.007812 394.527344 C 184.945312 393.792969 186.789062 390.035156 184.074219 388.652344 C 182.265625 388.363281 182.136719 390.660156 180.980469 391.617188 C 180.253906 392.222656 179.597656 393.695312 179.070312 393.613281 C 175.429688 393.09375 172.847656 387.753906 168.285156 391.320312 C 158.929688 378.429688 145.859375 379.289062 132.386719 381.605469 C 123.371094 383.15625 114.679688 382.769531 106.691406 377.546875 C 102.855469 375.042969 99.351562 372.996094 98.492188 367.484375 C 97.972656 364.152344 93.972656 361.457031 91.925781 358.234375 C 89.03125 353.679688 88.039062 350.199219 94.832031 347.105469 C 106.152344 341.949219 114.148438 332.152344 123.179688 323.863281 C 123.851562 323.242188 124.46875 322.25 124.5625 321.378906 C 126.789062 299.980469 142.847656 288.78125 157.871094 277.199219 C 162.496094 273.632812 165.542969 271.03125 164.386719 264.730469 C 163.621094 260.578125 163.8125 256.125 165.382812 251.902344 C 167.683594 245.710938 169.835938 244.8125 174.566406 249.078125 C 177.265625 251.515625 178.597656 252.824219 181.683594 249.140625 C 185.769531 244.269531 193.910156 246.023438 198.472656 253.417969 C 201.832031 258.859375 204.679688 259.113281 210.316406 257.210938 C 221.695312 253.371094 233.492188 250.511719 245.570312 250.195312 C 260.886719 249.796875 274.054688 244.214844 286.238281 235.425781 C 297.550781 227.253906 310.03125 222.882812 324.191406 224.820312 C 331.851562 225.863281 339.546875 227.515625 346.28125 231.128906 C 377.949219 248.109375 410.570312 247.488281 444.351562 238.710938 C 478.375 229.851562 512.949219 223.726562 548.28125 223.015625 C 574.777344 222.484375 599.042969 228.757812 620.972656 244.355469 C 636.871094 255.660156 654.097656 265.335938 665.441406 281.789062 C 684 308.722656 695.601562 338.1875 694.992188 371.429688 C 694.636719 390.667969 693.492188 409.898438 692.582031 429.121094 C 692.496094 430.890625 692.496094 432.472656 693.460938 433.9375 C 694.773438 435.921875 696.921875 436.859375 692.808594 439.320312 C 690.1875 440.890625 696.421875 443.246094 696.742188 446.851562 Z M 696.746094 446.859375 " fill-opacity="1" fill-rule="nonzero"/></g></svg>