<svg xmlns="http://www.w3.org/2000/svg" xmlns:xlink="http://www.w3.org/1999/xlink" width="1080" zoomAndPan="magnify" viewBox="0 0 810 809.999993" height="1080" preserveAspectRatio="xMidYMid meet" version="1.0"><defs><clipPath id="31b14ed205"><path d="M 104 121.054688 L 707 121.054688 L 707 688.804688 L 104 688.804688 Z M 104 121.054688 " clip-rule="nonzero"/></clipPath></defs><rect x="-81" width="972" fill="#ffffff" y="-80.999999" height="971.999992" fill-opacity="1"/><rect x="-81" width="972" fill="#003e52" y="-80.999999" height="971.999992" fill-opacity="1"/><g clip-path="url(#31b14ed205)"><path fill="#fffaf3" d="M 703.839844 332.226562 C 702.429688 331.019531 700.921875 329.808594 699.308594 328.902344 C 695.082031 326.386719 691.15625 323.570312 687.632812 320.148438 C 686.929688 319.441406 686.125 318.738281 685.320312 318.132812 C 682.398438 315.617188 678.976562 314.109375 675.253906 313.605469 C 670.925781 312.898438 666.496094 313.203125 662.167969 313.804688 C 655.023438 314.8125 647.875 315.917969 640.730469 316.824219 C 627.945312 318.4375 615.867188 322.058594 604.894531 328.804688 C 599.359375 332.125 593.421875 334.339844 587.082031 335.546875 C 580.539062 336.753906 573.996094 337.863281 567.453125 339.070312 C 564.636719 339.574219 561.714844 340.078125 558.695312 340.679688 C 554.066406 333.9375 548.128906 328.097656 542.390625 322.058594 C 542.792969 321.757812 542.992188 321.65625 543.195312 321.457031 C 547.121094 319.140625 550.542969 316.222656 553.765625 313 C 558.09375 308.570312 561.515625 303.539062 563.425781 297.601562 C 566.246094 289.246094 565.941406 280.890625 562.722656 272.738281 C 560.808594 267.90625 558.695312 263.175781 556.179688 258.546875 C 547.019531 242.242188 538.0625 225.933594 528.800781 209.832031 C 524.777344 202.683594 520.449219 195.738281 515.816406 188.894531 C 509.175781 178.929688 500.820312 170.273438 492.164062 162.019531 C 482.601562 152.859375 472.535156 144.101562 461.464844 136.855469 C 453.109375 131.421875 444.152344 127.191406 434.488281 124.578125 C 428.046875 122.863281 421.402344 121.960938 414.761719 121.457031 C 409.425781 121.054688 404.089844 121.054688 398.757812 121.859375 C 392.816406 122.765625 387.082031 124.578125 382.148438 128.097656 C 380.335938 129.40625 378.625 130.816406 377.417969 132.730469 C 376.007812 135.042969 375.910156 137.359375 377.519531 139.574219 C 378.324219 140.78125 379.332031 141.890625 380.4375 142.792969 C 382.652344 144.707031 385.066406 146.621094 387.382812 148.429688 C 404.394531 161.316406 419.390625 176.3125 432.878906 192.921875 C 441.535156 203.691406 448.78125 215.367188 455.125 227.546875 C 462.972656 242.441406 472.03125 256.433594 483.207031 269.015625 C 485.421875 271.53125 487.230469 274.347656 489.144531 277.066406 C 490.453125 278.980469 491.359375 281.09375 491.761719 283.410156 C 491.863281 284.3125 491.960938 285.21875 490.957031 285.722656 C 488.339844 284.816406 485.824219 283.8125 483.304688 283.003906 C 477.066406 280.992188 470.824219 279.082031 464.585938 277.167969 C 458.242188 275.253906 451.902344 273.445312 445.359375 272.636719 C 438.3125 271.734375 431.367188 270.726562 424.324219 269.921875 C 416.773438 269.015625 409.226562 268.8125 401.675781 269.417969 C 391.914062 270.222656 382.148438 270.925781 372.386719 271.734375 C 364.636719 272.335938 356.882812 273.445312 349.4375 275.558594 C 338.164062 278.675781 326.890625 281.394531 315.414062 283.609375 C 307.160156 285.21875 299.109375 287.835938 291.761719 291.964844 C 283.40625 296.695312 274.953125 301.425781 266.597656 306.257812 C 261.867188 308.972656 257.742188 312.398438 253.816406 316.222656 C 244.757812 325.078125 235.695312 333.835938 226.539062 342.59375 C 221.304688 347.523438 217.074219 353.0625 213.652344 359.300781 C 211.4375 363.328125 208.921875 367.152344 206.304688 370.875 C 203.285156 375.40625 200.066406 379.734375 196.945312 384.164062 C 195.738281 385.875 194.730469 387.6875 193.523438 389.496094 C 192.820312 389.296875 192.011719 389.09375 191.308594 388.792969 C 187.785156 387.382812 184.164062 385.976562 180.640625 384.566406 C 171.480469 380.839844 162.019531 378.125 152.054688 377.722656 C 144.101562 377.417969 136.351562 378.125 128.800781 380.640625 C 120.347656 383.457031 113.503906 388.492188 108.269531 395.636719 C 104.542969 400.671875 103.035156 406.207031 104.746094 412.347656 C 105.753906 416.070312 106.558594 419.894531 107.0625 423.71875 C 107.664062 428.046875 109.277344 431.875 112.195312 435.09375 C 115.414062 438.617188 118.738281 442.140625 122.160156 445.460938 C 125.078125 448.378906 128.703125 450.089844 132.828125 450.796875 C 135.042969 451.199219 137.257812 451.398438 139.472656 451.5 C 146.015625 451.601562 152.65625 451.601562 159.199219 451.703125 C 161.214844 451.703125 163.125 452.003906 165.238281 452.207031 C 165.238281 452.808594 165.238281 453.210938 165.238281 453.515625 C 164.9375 456.230469 164.636719 459.050781 164.332031 461.765625 C 163.527344 468.109375 162.925781 474.449219 161.214844 480.691406 C 160.105469 484.617188 159.199219 488.542969 158.292969 492.367188 C 157.1875 496.796875 155.273438 500.71875 151.851562 503.839844 C 149.941406 505.550781 147.925781 507.0625 145.8125 508.671875 C 143.902344 510.183594 141.886719 511.492188 139.976562 513 C 139.167969 513.605469 138.464844 514.410156 137.859375 515.316406 C 136.652344 517.128906 137.359375 519.140625 139.472656 519.84375 C 140.878906 520.246094 142.289062 520.449219 143.800781 520.550781 C 146.113281 520.648438 148.328125 520.648438 150.644531 520.648438 C 156.886719 520.550781 162.421875 522.160156 166.75 526.890625 C 167.453125 527.695312 168.359375 528.402344 169.164062 529.207031 C 172.789062 532.730469 176.511719 536.25 180.136719 539.671875 C 185.46875 544.707031 191.207031 549.136719 197.449219 552.859375 C 199.964844 554.371094 202.378906 555.878906 204.996094 557.488281 C 204.496094 557.890625 204.191406 558.394531 203.6875 558.699219 C 202.078125 559.804688 200.367188 561.011719 198.65625 562.019531 C 195.132812 564.132812 191.511719 566.046875 187.988281 568.160156 C 183.15625 571.078125 178.828125 574.703125 175.203125 579.03125 C 172.183594 582.652344 169.769531 586.78125 168.460938 591.410156 C 167.253906 595.636719 167.050781 600.066406 166.648438 604.394531 C 166.042969 610.835938 167.753906 616.472656 172.082031 621.304688 C 173.292969 622.714844 174.097656 624.425781 175.003906 626.035156 C 176.613281 628.953125 178.625 631.46875 181.242188 633.484375 C 184.566406 636 188.085938 638.011719 192.011719 639.320312 C 193.925781 639.925781 195.9375 640.429688 197.851562 640.628906 C 202.78125 641.234375 207.3125 639.523438 211.539062 637.207031 C 216.773438 634.390625 221.402344 630.765625 225.832031 626.839844 C 237.308594 616.675781 247.472656 605.300781 256.835938 593.222656 C 257.335938 592.617188 257.839844 592.015625 258.34375 591.410156 C 258.847656 591.609375 259.046875 591.8125 259.25 591.914062 C 265.992188 595.9375 273.242188 598.65625 280.589844 601.171875 C 287.132812 603.386719 293.574219 605.804688 299.914062 608.320312 C 304.945312 610.230469 309.878906 612.246094 315.113281 613.554688 C 321.253906 615.164062 327.59375 615.265625 333.933594 615.164062 C 338.464844 615.0625 343.09375 614.964844 347.625 615.265625 C 353.964844 615.769531 360.207031 616.574219 366.445312 617.378906 C 373.996094 618.183594 381.445312 617.984375 388.792969 616.371094 C 394.328125 615.164062 399.863281 613.855469 405.5 612.648438 C 412.648438 611.136719 419.390625 608.824219 426.035156 605.902344 C 433.582031 602.683594 441.234375 599.460938 448.882812 596.34375 C 452.003906 595.035156 455.222656 593.925781 458.445312 592.71875 C 465.390625 590.101562 471.628906 586.277344 477.570312 581.847656 C 484.714844 576.613281 491.960938 571.683594 499.914062 567.757812 C 508.269531 563.628906 515.816406 558.394531 522.460938 551.851562 C 534.4375 539.976562 545.007812 526.992188 554.167969 512.800781 C 556.480469 509.175781 558.695312 505.550781 561.011719 501.828125 C 561.210938 501.425781 561.613281 501.125 562.019531 500.621094 C 562.320312 501.425781 562.621094 502.027344 562.722656 502.632812 C 563.125 504.34375 563.628906 506.054688 563.730469 507.765625 C 564.03125 512.898438 564.332031 518.03125 564.535156 523.167969 C 564.835938 533.835938 564.632812 544.503906 565.136719 555.175781 C 565.640625 566.246094 566.75 577.316406 567.65625 588.390625 C 568.863281 603.085938 568.761719 617.679688 565.941406 632.175781 C 564.433594 639.824219 562.921875 647.472656 561.613281 655.125 C 560.808594 659.453125 560.304688 663.882812 559.804688 668.308594 C 559.402344 672.4375 559.601562 676.460938 560.710938 680.488281 C 561.917969 685.019531 564.9375 687.734375 569.464844 688.640625 C 570.773438 688.945312 572.183594 688.945312 573.59375 688.945312 C 578.222656 688.84375 582.351562 686.929688 586.175781 684.515625 C 592.71875 680.386719 598.355469 675.253906 603.285156 669.417969 C 609.125 662.472656 613.753906 654.722656 617.878906 646.667969 C 622.914062 636.804688 627.242188 626.640625 629.457031 615.769531 C 631.671875 605.300781 633.683594 594.832031 635.597656 584.261719 C 637.207031 575.304688 637.609375 566.347656 637.105469 557.289062 C 636.199219 538.867188 634.289062 520.648438 632.476562 502.332031 C 631.671875 494.277344 630.863281 486.125 629.152344 478.175781 C 626.941406 468.007812 622.613281 458.847656 615.464844 451.199219 C 610.03125 445.359375 603.585938 441.535156 595.636719 440.226562 C 593.019531 439.824219 590.402344 439.625 587.785156 439.222656 C 586.679688 439.121094 585.671875 438.816406 584.5625 438.617188 C 584.5625 438.316406 584.5625 438.113281 584.5625 437.914062 C 584.867188 430.664062 585.167969 423.519531 585.371094 416.273438 C 585.371094 415.164062 585.972656 414.863281 586.679688 414.359375 C 598.453125 406.105469 611.136719 400.167969 625.429688 397.75 C 632.578125 396.542969 639.824219 395.636719 647.070312 394.832031 C 652.707031 394.128906 658.042969 392.515625 663.074219 389.898438 C 672.9375 384.765625 682.199219 378.828125 690.957031 372.085938 C 695.886719 368.359375 699.007812 363.527344 699.914062 357.390625 C 700.417969 353.664062 701.726562 350.140625 703.136719 346.617188 C 704.039062 344.40625 704.847656 342.089844 705.550781 339.773438 C 706.960938 336.855469 706.054688 334.238281 703.839844 332.226562 Z M 703.839844 332.226562 " fill-opacity="1" fill-rule="nonzero"/></g></svg>