<svg xmlns="http://www.w3.org/2000/svg" xmlns:xlink="http://www.w3.org/1999/xlink" width="1080" zoomAndPan="magnify" viewBox="0 0 810 809.999993" height="1080" preserveAspectRatio="xMidYMid meet" version="1.0"><rect x="-81" width="972" fill="#ffffff" y="-80.999999" height="971.999992" fill-opacity="1"/><rect x="-81" width="972" fill="#003e52" y="-80.999999" height="971.999992" fill-opacity="1"/><path fill="#fffaf3" d="M 445.984375 694.136719 C 403.125 686.457031 367.078125 666.859375 328.300781 630.15625 C 285.382812 589.527344 252.15625 537.867188 238.832031 491.039062 C 234.28125 475.042969 233.679688 474.277344 229.757812 479.496094 C 223.992188 487.175781 209.167969 516.40625 201.332031 535.542969 L 194.847656 551.375 L 193.007812 536.984375 C 191.992188 529.070312 189.929688 518.054688 188.417969 512.5 C 186.90625 506.945312 185.335938 497.855469 184.929688 492.300781 C 184.390625 484.933594 182.953125 482.40625 179.613281 482.945312 C 174.117188 483.832031 168.324219 472.277344 168.324219 460.429688 C 168.324219 454.78125 166.863281 451.910156 163.996094 451.910156 C 161.613281 451.910156 159.667969 450.902344 159.667969 449.671875 C 159.667969 444.261719 205.621094 400.109375 217.371094 394.226562 C 224.511719 390.652344 230.660156 387.472656 231.039062 387.15625 C 231.414062 386.84375 233.769531 375.796875 236.269531 362.601562 C 245.546875 313.703125 268.292969 258.535156 294.113281 222.308594 C 315.832031 191.839844 352.007812 159.648438 379.351562 146.457031 C 415.308594 129.113281 496.519531 109.59375 503.535156 116.609375 C 505.90625 118.980469 502.808594 129.058594 491.777344 154.824219 C 483.539062 174.070312 476.035156 193.640625 475.101562 198.316406 C 473.445312 206.59375 473.609375 206.734375 481.425781 203.761719 C 500.957031 196.335938 505.820312 191.417969 510.648438 174.214844 C 516.214844 154.367188 519.246094 151.558594 523.375 162.410156 C 525.652344 168.40625 525.3125 175.355469 522.023438 189.917969 C 516.75 213.261719 508.644531 230.046875 495.125 245.621094 C 483.515625 258.992188 454.386719 304.566406 442.257812 328.335938 L 433.910156 344.695312 L 442.214844 363.007812 C 455.53125 392.378906 461.898438 420.023438 460.128906 440.761719 C 459.90625 443.359375 455.503906 447.683594 450.347656 450.375 C 428.167969 461.949219 425.101562 463.90625 425.101562 466.492188 C 425.101562 467.992188 421.71875 469.222656 417.582031 469.222656 C 412.433594 469.222656 410.535156 467.984375 411.5625 465.304688 C 412.390625 463.152344 413.78125 449.195312 414.65625 434.289062 L 416.246094 407.191406 L 411.835938 423.058594 C 409.414062 431.785156 406.71875 455.15625 405.851562 474.992188 L 404.277344 511.054688 L 434.164062 532.65625 C 456.566406 548.84375 462.636719 554.523438 458.402344 555.339844 C 455.292969 555.941406 446.992188 560.828125 439.953125 566.203125 C 425.386719 577.324219 423.542969 577.816406 421.015625 571.230469 C 420.015625 568.625 418.574219 567.113281 417.8125 567.875 C 417.054688 568.632812 418.972656 576.640625 422.078125 585.671875 C 440.835938 640.183594 472.773438 670.261719 510.214844 668.667969 C 532.183594 667.734375 541.207031 646.027344 529.539062 622.167969 C 526.832031 616.632812 521.050781 610.394531 516.695312 608.308594 C 508.789062 604.519531 506.015625 595.328125 511.714844 591.804688 C 513.332031 590.804688 526.085938 591.375 540.054688 593.074219 C 572.746094 597.050781 592.683594 593.5 621.394531 578.601562 C 646.195312 565.730469 650.144531 564.984375 650.144531 573.179688 C 650.144531 600.359375 600.667969 660.671875 564.726562 677.304688 C 531.402344 692.730469 479.324219 700.109375 445.984375 694.136719 Z M 445.984375 694.136719 " fill-opacity="1" fill-rule="nonzero"/></svg>