<svg xmlns="http://www.w3.org/2000/svg" xmlns:xlink="http://www.w3.org/1999/xlink" width="1080" zoomAndPan="magnify" viewBox="0 0 810 809.999993" height="1080" preserveAspectRatio="xMidYMid meet" version="1.0"><defs><clipPath id="ccd7ba303c"><path d="M 73 232.285156 L 737.570312 232.285156 L 737.570312 578 L 73 578 Z M 73 232.285156 " clip-rule="nonzero"/></clipPath></defs><rect x="-81" width="972" fill="#ffffff" y="-80.999999" height="971.999992" fill-opacity="1"/><rect x="-81" width="972" fill="#003e52" y="-80.999999" height="971.999992" fill-opacity="1"/><g clip-path="url(#ccd7ba303c)"><path fill="#fffaf3" d="M 668.367188 249.730469 C 677.371094 241.441406 687.660156 232.296875 700.519531 232.296875 C 714.097656 234.011719 727.957031 240.585938 734.960938 252.730469 C 737.390625 256.589844 737.675781 261.449219 736.960938 265.878906 C 735.960938 269.308594 732.386719 271.164062 728.957031 271.308594 C 717.527344 271.878906 705.949219 271.453125 694.660156 269.308594 C 692.660156 268.59375 691.375 270.453125 690.089844 271.738281 C 681.226562 281.597656 675.511719 293.746094 669.652344 305.605469 C 656.933594 332.898438 646.789062 361.480469 634.355469 388.917969 C 624.496094 413.925781 604.488281 433.074219 584.339844 450.222656 C 578.480469 454.796875 573.480469 460.367188 567.046875 464.371094 C 558.1875 470.65625 548.183594 474.375 538.324219 478.660156 C 537.753906 495.378906 535.324219 512.101562 535.609375 528.960938 C 536.894531 538.679688 540.898438 547.824219 542.039062 557.542969 C 541.898438 564.257812 534.039062 565.117188 528.894531 565.546875 C 519.320312 565.972656 508.746094 566.972656 500.171875 561.6875 C 494.738281 558.113281 496.167969 551.113281 497.167969 545.824219 C 499.027344 537.824219 496.597656 529.675781 496.597656 521.675781 C 495.738281 511.386719 494.3125 501.097656 493.882812 490.664062 C 491.308594 491.09375 488.882812 491.378906 486.308594 491.949219 C 485.023438 508.527344 483.449219 525.105469 483.878906 541.679688 C 485.59375 550.828125 488.59375 559.6875 489.453125 568.976562 C 489.308594 571.976562 485.738281 573.691406 483.164062 574.546875 C 472.445312 576.976562 461.015625 577.691406 450.296875 574.546875 C 446.867188 573.261719 443.007812 571.261719 442.152344 567.402344 C 441.4375 560.6875 444.007812 554.257812 443.582031 547.539062 C 442.152344 530.675781 439.152344 513.816406 437.722656 496.953125 C 425.71875 496.953125 413.570312 498.382812 401.566406 497.238281 C 396.136719 497.09375 390.5625 497.09375 385.132812 496.808594 C 384.277344 507.957031 383.277344 519.101562 383.847656 530.25 C 385.703125 539.824219 388.5625 549.253906 389.277344 558.972656 C 389.847656 563.117188 385.992188 565.972656 382.273438 566.546875 C 371.128906 568.832031 358.980469 569.402344 348.265625 565.117188 C 345.691406 563.6875 343.121094 561.6875 342.121094 558.972656 C 341.40625 551.253906 344.40625 543.824219 343.546875 536.109375 C 342.121094 521.101562 341.121094 506.097656 339.691406 491.09375 C 337.832031 490.523438 335.832031 489.949219 333.972656 489.519531 C 332.257812 500.667969 331.257812 512.101562 330.402344 523.390625 C 329.542969 531.390625 328.6875 539.679688 330.832031 547.539062 C 332.117188 554.683594 333.972656 561.972656 333.6875 569.261719 C 333.546875 572.40625 330.6875 574.546875 327.828125 575.261719 C 319.253906 577.691406 310.253906 577.550781 301.535156 576.691406 C 295.675781 575.835938 289.246094 574.40625 285.53125 569.546875 C 283.671875 563.832031 285.246094 557.6875 286.101562 551.96875 C 287.386719 540.109375 285.101562 528.105469 284.671875 516.242188 C 283.386719 502.8125 282.101562 489.519531 280.527344 476.230469 C 280.242188 474.085938 280.242188 471.800781 279.242188 470.085938 C 261.378906 459.511719 240.945312 453.222656 220.222656 452.652344 C 202.074219 451.792969 184.496094 456.9375 167.207031 461.511719 C 149.773438 466.65625 131.765625 473.085938 118.046875 485.664062 C 111.046875 492.378906 105.757812 502.527344 109.046875 512.242188 C 113.332031 525.105469 124.765625 534.25 136.625 539.824219 C 152.628906 545.539062 170.066406 542.679688 186.070312 538.25 C 199.21875 534.394531 212.222656 529.535156 224.652344 523.816406 C 235.085938 518.960938 243.945312 511.242188 253.519531 504.953125 C 254.234375 506.8125 254.234375 508.527344 253.664062 510.386719 C 248.089844 522.960938 237.085938 532.390625 224.9375 538.394531 C 200.933594 551.683594 173.207031 559.6875 145.769531 556.398438 C 121.621094 553.683594 97.898438 541.539062 83.75 521.386719 C 76.605469 511.957031 72.320312 499.808594 73.75 487.949219 C 75.175781 476.230469 81.609375 465.65625 89.46875 456.9375 C 106.042969 439.21875 127.621094 427.074219 149.34375 416.785156 C 178.78125 402.207031 210.363281 392.777344 240.515625 379.914062 C 266.238281 369.195312 290.53125 355.335938 314.109375 340.332031 C 338.261719 324.898438 367.414062 316.179688 396.136719 319.179688 C 434.007812 322.609375 468.304688 340.617188 502.597656 355.765625 C 521.320312 364.625 540.753906 373.628906 561.902344 373.628906 C 568.191406 373.199219 574.910156 372.625 580.339844 369.054688 C 588.199219 363.765625 594.914062 356.765625 600.488281 349.046875 C 606.777344 341.472656 610.347656 332.328125 615.351562 323.898438 C 630.925781 297.746094 647.074219 271.59375 668.367188 249.730469 Z M 668.367188 249.730469 " fill-opacity="1" fill-rule="nonzero"/></g></svg>